<?xml version="1.0" encoding="UTF-8" standalone="no"?>
<svg
   version="1.1"
   width="297.0022mm"
   height="210.0072mm"
   viewBox="0.0000 0.0000 297.0022 210.0072"
   id="svg424"
   sodipodi:docname="Keyboard Plate v2.svg"
   xml:space="preserve"
   inkscape:version="1.3.2 (091e20e, 2023-11-25, custom)"
   xmlns:inkscape="http://www.inkscape.org/namespaces/inkscape"
   xmlns:sodipodi="http://sodipodi.sourceforge.net/DTD/sodipodi-0.dtd"
   xmlns="http://www.w3.org/2000/svg"
   xmlns:svg="http://www.w3.org/2000/svg"><defs
     id="defs424" /><sodipodi:namedview
     id="namedview424"
     pagecolor="#ffffff"
     bordercolor="#000000"
     borderopacity="0.25"
     inkscape:showpageshadow="2"
     inkscape:pageopacity="0.0"
     inkscape:pagecheckerboard="0"
     inkscape:deskcolor="#d1d1d1"
     inkscape:document-units="mm"
     inkscape:zoom="0.94964224"
     inkscape:cx="601.27906"
     inkscape:cy="-176.38221"
     inkscape:window-width="1920"
     inkscape:window-height="1017"
     inkscape:window-x="-8"
     inkscape:window-y="-8"
     inkscape:window-maximized="1"
     inkscape:current-layer="g424" /><title
     id="title1">SVG Image created as 750-THR-Earthtyper-User_Eco2.svg date 2025/12/17 19:37:37 </title><desc
     id="desc1">Image generated by PCBNEW </desc><g
     style="fill:#000000; fill-opacity:1.0000;stroke:#000000; stroke-opacity:1.0000; stroke-linecap:round; stroke-linejoin:round;"
     transform="translate(0 0) scale(1 1)"
     id="g1" /><g
     style="fill:none;  stroke:#000000; stroke-width:0.1524; stroke-opacity:1;  stroke-linecap:round; stroke-linejoin:round;"
     id="g424"><path
       d="M170.3133 -87.5157 L184.2833 -87.5157 "
       id="path1" /><path
       d="M170.3133 -73.5457 L170.3133 -87.5157 "
       id="path2" /><path
       d="M184.2833 -87.5157 L184.2833 -73.5457 "
       id="path3" /><path
       d="M184.2833 -73.5457 L170.3133 -73.5457 "
       id="path4" /><path
       d="M132.4166 -130.1496 L146.3865 -130.1496 "
       id="path5" /><path
       d="M132.4166 -116.1796 L132.4166 -130.1496 "
       id="path6" /><path
       d="M146.3865 -130.1496 L146.3865 -116.1796 "
       id="path7" /><path
       d="M146.3865 -116.1796 L132.4166 -116.1796 "
       id="path8" /><path
       d="M234.5944 -63.8683 L235.4580 -63.8683 "
       id="path9" /><path
       d="M234.5944 -61.0743 L234.5944 -63.8683 "
       id="path10" /><path
       d="M235.4580 -67.2719 L242.1128 -67.2719 "
       id="path11" /><path
       d="M235.4580 -63.8683 L235.4580 -67.2719 "
       id="path12" /><path
       d="M235.4580 -61.0743 L234.5944 -61.0743 "
       id="path13" /><path
       d="M235.4580 -54.9783 L235.4580 -61.0743 "
       id="path14" /><path
       d="M236.4994 -54.9783 L235.4580 -54.9783 "
       id="path15" /><path
       d="M236.4994 -53.8099 L236.4994 -54.9783 "
       id="path16" /><path
       d="M241.0714 -54.9783 L241.0714 -53.8099 "
       id="path17" /><path
       d="M241.0714 -53.8099 L236.4994 -53.8099 "
       id="path18" /><path
       d="M242.1128 -67.2719 L242.1128 -66.4591 "
       id="path19" /><path
       d="M242.1128 -66.4591 L243.7384 -66.4591 "
       id="path20" /><path
       d="M242.1128 -55.7657 L242.1128 -54.9783 "
       id="path21" /><path
       d="M242.1128 -54.9783 L241.0714 -54.9783 "
       id="path22" /><path
       d="M243.7384 -68.5673 L257.7084 -68.5673 "
       id="path23" /><path
       d="M243.7384 -66.4591 L243.7384 -68.5673 "
       id="path24" /><path
       d="M243.7384 -55.7657 L242.1128 -55.7657 "
       id="path25" /><path
       d="M243.7384 -54.5973 L243.7384 -55.7657 "
       id="path26" /><path
       d="M257.7084 -68.5673 L257.7084 -66.4591 "
       id="path27" /><path
       d="M257.7084 -66.4591 L259.3340 -66.4591 "
       id="path28" /><path
       d="M257.7084 -55.7657 L257.7084 -54.5973 "
       id="path29" /><path
       d="M257.7084 -54.5973 L243.7384 -54.5973 "
       id="path30" /><path
       d="M259.3340 -67.2719 L265.9888 -67.2719 "
       id="path31" /><path
       d="M259.3340 -66.4591 L259.3340 -67.2719 "
       id="path32" /><path
       d="M259.3340 -55.7657 L257.7084 -55.7657 "
       id="path33" /><path
       d="M259.3340 -54.9783 L259.3340 -55.7657 "
       id="path34" /><path
       d="M260.3754 -54.9783 L259.3340 -54.9783 "
       id="path35" /><path
       d="M260.3754 -53.8099 L260.3754 -54.9783 "
       id="path36" /><path
       d="M264.9474 -54.9783 L264.9474 -53.8099 "
       id="path37" /><path
       d="M264.9474 -53.8099 L260.3754 -53.8099 "
       id="path38" /><path
       d="M265.9888 -67.2719 L265.9888 -63.8683 "
       id="path39" /><path
       d="M265.9888 -63.8683 L266.8524 -63.8683 "
       id="path40" /><path
       d="M265.9888 -61.0743 L265.9888 -54.9783 "
       id="path41" /><path
       d="M265.9888 -54.9783 L264.9474 -54.9783 "
       id="path42" /><path
       d="M266.8524 -63.8683 L266.8524 -61.0743 "
       id="path43" /><path
       d="M266.8524 -61.0743 L265.9888 -61.0743 "
       id="path44" /><path
       d="M111.0996 -30.6705 L125.0696 -30.6705 "
       id="path45" /><path
       d="M111.0996 -16.7005 L111.0996 -30.6705 "
       id="path46" /><path
       d="M125.0696 -30.6705 L125.0696 -16.7005 "
       id="path47" /><path
       d="M125.0696 -16.7005 L111.0996 -16.7005 "
       id="path48" /><path
       d="M179.7875 -30.6705 L193.7575 -30.6705 "
       id="path49" /><path
       d="M179.7875 -16.7005 L179.7875 -30.6705 "
       id="path50" /><path
       d="M193.7575 -30.6705 L193.7575 -16.7005 "
       id="path51" /><path
       d="M193.7575 -16.7005 L179.7875 -16.7005 "
       id="path52" /><path
       d="M80.3084 -68.5673 L94.2784 -68.5673 "
       id="path53" /><path
       d="M80.3084 -54.5973 L80.3084 -68.5673 "
       id="path54" /><path
       d="M94.2784 -68.5673 L94.2784 -54.5973 "
       id="path55" /><path
       d="M94.2784 -54.5973 L80.3084 -54.5973 "
       id="path56" /><path
       d="M42.4117 -68.5673 L56.3817 -68.5673 "
       id="path57" /><path
       d="M42.4117 -54.5973 L42.4117 -68.5673 "
       id="path58" /><path
       d="M56.3817 -68.5673 L56.3817 -54.5973 "
       id="path59" /><path
       d="M56.3817 -54.5973 L42.4117 -54.5973 "
       id="path60" /><path
       d="M122.9423 -106.4641 L136.9124 -106.4641 "
       id="path61" /><path
       d="M122.9423 -92.4941 L122.9423 -106.4641 "
       id="path62" /><path
       d="M136.9124 -106.4641 L136.9124 -92.4941 "
       id="path63" /><path
       d="M136.9124 -92.4941 L122.9423 -92.4941 "
       id="path64" /><path
       d="M184.5246 -49.6189 L198.4946 -49.6189 "
       id="path65" /><path
       d="M184.5246 -35.6489 L184.5246 -49.6189 "
       id="path66" /><path
       d="M198.4946 -49.6189 L198.4946 -35.6489 "
       id="path67" /><path
       d="M198.4946 -35.6489 L184.5246 -35.6489 "
       id="path68" /><path
       d="M156.1020 -68.5673 L170.0720 -68.5673 "
       id="path69" /><path
       d="M156.1020 -54.5973 L156.1020 -68.5673 "
       id="path70" /><path
       d="M170.0720 -68.5673 L170.0720 -54.5973 "
       id="path71" /><path
       d="M170.0720 -54.5973 L156.1020 -54.5973 "
       id="path72" /><path
       d="M99.2569 -68.5673 L113.2268 -68.5673 "
       id="path73" /><path
       d="M99.2569 -54.5973 L99.2569 -68.5673 "
       id="path74" /><path
       d="M113.2268 -68.5673 L113.2268 -54.5973 "
       id="path75" /><path
       d="M113.2268 -54.5973 L99.2569 -54.5973 "
       id="path76" /><path
       d="M70.8342 -49.6189 L84.8042 -49.6189 "
       id="path77" /><path
       d="M70.8342 -35.6489 L70.8342 -49.6189 "
       id="path78" /><path
       d="M84.8042 -49.6189 L84.8042 -35.6489 "
       id="path79" /><path
       d="M84.8042 -35.6489 L70.8342 -35.6489 "
       id="path80" /><path
       d="M255.5811 -130.1496 L269.5512 -130.1496 "
       id="path81" /><path
       d="M255.5811 -116.1796 L255.5811 -130.1496 "
       id="path82" /><path
       d="M269.5512 -130.1496 L269.5512 -116.1796 "
       id="path83" /><path
       d="M269.5512 -116.1796 L255.5811 -116.1796 "
       id="path84" /><path
       d="M227.1585 -87.5157 L241.1285 -87.5157 "
       id="path85" /><path
       d="M227.1585 -73.5457 L227.1585 -87.5157 "
       id="path86" /><path
       d="M241.1285 -87.5157 L241.1285 -73.5457 "
       id="path87" /><path
       d="M241.1285 -73.5457 L227.1585 -73.5457 "
       id="path88" /><path
       d="M250.8440 -87.5157 L264.8141 -87.5157 "
       id="path89" /><path
       d="M250.8440 -73.5457 L250.8440 -87.5157 "
       id="path90" /><path
       d="M264.8141 -87.5157 L264.8141 -73.5457 "
       id="path91" /><path
       d="M264.8141 -73.5457 L250.8440 -73.5457 "
       id="path92" /><path
       d="M212.9472 -68.5673 L226.9172 -68.5673 "
       id="path93" /><path
       d="M212.9472 -54.5973 L212.9472 -68.5673 "
       id="path94" /><path
       d="M226.9172 -68.5673 L226.9172 -54.5973 "
       id="path95" /><path
       d="M226.9172 -54.5973 L212.9472 -54.5973 "
       id="path96" /><path
       d="M141.8907 -106.4641 L155.8607 -106.4641 "
       id="path97" /><path
       d="M141.8907 -92.4941 L141.8907 -106.4641 "
       id="path98" /><path
       d="M155.8607 -106.4641 L155.8607 -92.4941 "
       id="path99" /><path
       d="M155.8607 -92.4941 L141.8907 -92.4941 "
       id="path100" /><path
       d="M151.3649 -87.5157 L165.3349 -87.5157 "
       id="path101" /><path
       d="M151.3649 -73.5457 L151.3649 -87.5157 "
       id="path102" /><path
       d="M165.3349 -87.5157 L165.3349 -73.5457 "
       id="path103" /><path
       d="M165.3349 -73.5457 L151.3649 -73.5457 "
       id="path104" /><path
       d="M108.7310 -49.6189 L122.7010 -49.6189 "
       id="path105" /><path
       d="M108.7310 -35.6489 L108.7310 -49.6189 "
       id="path106" /><path
       d="M122.7010 -49.6189 L122.7010 -35.6489 "
       id="path107" /><path
       d="M122.7010 -35.6489 L108.7310 -35.6489 "
       id="path108" /><path
       d="M113.4681 -130.1496 L127.4381 -130.1496 "
       id="path109" /><path
       d="M113.4681 -116.1796 L113.4681 -130.1496 "
       id="path110" /><path
       d="M127.4381 -130.1496 L127.4381 -116.1796 "
       id="path111" /><path
       d="M127.4381 -116.1796 L113.4681 -116.1796 "
       id="path112" /><path
       d="M66.0971 -106.4641 L80.0671 -106.4641 "
       id="path113" /><path
       d="M66.0971 -92.4941 L66.0971 -106.4641 "
       id="path114" /><path
       d="M80.0671 -106.4641 L80.0671 -92.4941 "
       id="path115" /><path
       d="M80.0671 -92.4941 L66.0971 -92.4941 "
       id="path116" /><path
       d="M-7.3279 -30.6705 L6.6421 -30.6705 "
       id="path117" /><path
       d="M-7.3279 -16.7005 L-7.3279 -30.6705 "
       id="path118" /><path
       d="M6.6421 -30.6705 L6.6421 -16.7005 "
       id="path119" /><path
       d="M6.6421 -16.7005 L-7.3279 -16.7005 "
       id="path120" /><path
       d="M165.2334 -49.6189 L179.2034 -49.6189 "
       id="path121" /><path
       d="M165.2334 -35.6489 L165.2334 -49.6189 "
       id="path122" /><path
       d="M179.2034 -49.6189 L179.2034 -35.6489 "
       id="path123" /><path
       d="M179.2034 -35.6489 L165.2334 -35.6489 "
       id="path124" /><path
       d="M260.3182 -25.9334 L274.2883 -25.9334 "
       id="path125" /><path
       d="M260.3182 -11.9634 L260.3182 -25.9334 "
       id="path126" /><path
       d="M274.2883 -25.9334 L274.2883 -11.9634 "
       id="path127" /><path
       d="M274.2883 -11.9634 L260.3182 -11.9634 "
       id="path128" /><path
       d="M40.0431 -30.6705 L54.0131 -30.6705 "
       id="path129" /><path
       d="M40.0431 -16.7005 L40.0431 -30.6705 "
       id="path130" /><path
       d="M54.0131 -30.6705 L54.0131 -16.7005 "
       id="path131" /><path
       d="M54.0131 -16.7005 L40.0431 -16.7005 "
       id="path132" /><path
       d="M75.5713 -87.5157 L89.5413 -87.5157 "
       id="path133" /><path
       d="M75.5713 -73.5457 L75.5713 -87.5157 "
       id="path134" /><path
       d="M89.5413 -87.5157 L89.5413 -73.5457 "
       id="path135" /><path
       d="M89.5413 -73.5457 L75.5713 -73.5457 "
       id="path136" /><path
       d="M127.6794 -49.6189 L141.6495 -49.6189 "
       id="path137" /><path
       d="M127.6794 -35.6489 L127.6794 -49.6189 "
       id="path138" /><path
       d="M141.6495 -49.6189 L141.6495 -35.6489 "
       id="path139" /><path
       d="M141.6495 -35.6489 L127.6794 -35.6489 "
       id="path140" /><path
       d="M132.4166 -87.5157 L146.3865 -87.5157 "
       id="path141" /><path
       d="M132.4166 -73.5457 L132.4166 -87.5157 "
       id="path142" /><path
       d="M146.3865 -87.5157 L146.3865 -73.5457 "
       id="path143" /><path
       d="M146.3865 -73.5457 L132.4166 -73.5457 "
       id="path144" /><path
       d="M32.9374 -130.1496 L46.9074 -130.1496 "
       id="path145" /><path
       d="M32.9374 -116.1796 L32.9374 -130.1496 "
       id="path146" /><path
       d="M46.9074 -130.1496 L46.9074 -116.1796 "
       id="path147" /><path
       d="M46.9074 -116.1796 L32.9374 -116.1796 "
       id="path148" /><path
       d="M146.6278 -49.6189 L160.5978 -49.6189 "
       id="path149" /><path
       d="M146.6278 -35.6489 L146.6278 -49.6189 "
       id="path150" /><path
       d="M160.5978 -49.6189 L160.5978 -35.6489 "
       id="path151" /><path
       d="M160.5978 -35.6489 L146.6278 -35.6489 "
       id="path152" /><path
       d="M241.3698 -25.9334 L255.3398 -25.9334 "
       id="path153" /><path
       d="M241.3698 -11.9634 L241.3698 -25.9334 "
       id="path154" /><path
       d="M255.3398 -25.9334 L255.3398 -11.9634 "
       id="path155" /><path
       d="M255.3398 -11.9634 L241.3698 -11.9634 "
       id="path156" /><path
       d="M175.0504 -130.1496 L189.0204 -130.1496 "
       id="path157" /><path
       d="M175.0504 -116.1796 L175.0504 -130.1496 "
       id="path158" /><path
       d="M189.0204 -130.1496 L189.0204 -116.1796 "
       id="path159" /><path
       d="M189.0204 -116.1796 L175.0504 -116.1796 "
       id="path160" /><path
       d="M89.7826 -49.6189 L103.7526 -49.6189 "
       id="path161" /><path
       d="M89.7826 -35.6489 L89.7826 -49.6189 "
       id="path162" /><path
       d="M103.7526 -49.6189 L103.7526 -35.6489 "
       id="path163" /><path
       d="M103.7526 -35.6489 L89.7826 -35.6489 "
       id="path164" /><path
       d="M18.7262 -87.5157 L32.6961 -87.5157 "
       id="path165" /><path
       d="M18.7262 -73.5457 L18.7262 -87.5157 "
       id="path166" /><path
       d="M32.6961 -87.5157 L32.6961 -73.5457 "
       id="path167" /><path
       d="M32.6961 -73.5457 L18.7262 -73.5457 "
       id="path168" /><path
       d="M32.9374 -49.6189 L46.9074 -49.6189 "
       id="path169" /><path
       d="M32.9374 -35.6489 L32.9374 -49.6189 "
       id="path170" /><path
       d="M46.9074 -49.6189 L46.9074 -35.6489 "
       id="path171" /><path
       d="M46.9074 -35.6489 L32.9374 -35.6489 "
       id="path172" /><path
       d="M37.6745 -87.5157 L51.6445 -87.5157 "
       id="path173" /><path
       d="M37.6745 -73.5457 L37.6745 -87.5157 "
       id="path174" /><path
       d="M51.6445 -87.5157 L51.6445 -73.5457 "
       id="path175" /><path
       d="M51.6445 -73.5457 L37.6745 -73.5457 "
       id="path176" /><path
       d="M118.2052 -68.5673 L132.1753 -68.5673 "
       id="path177" /><path
       d="M118.2052 -54.5973 L118.2052 -68.5673 "
       id="path178" /><path
       d="M132.1753 -68.5673 L132.1753 -54.5973 "
       id="path179" /><path
       d="M132.1753 -54.5973 L118.2052 -54.5973 "
       id="path180" /><path
       d="M279.2666 -106.4641 L293.2366 -106.4641 "
       id="path181" /><path
       d="M279.2666 -92.4941 L279.2666 -106.4641 "
       id="path182" /><path
       d="M293.2366 -106.4641 L293.2366 -92.4941 "
       id="path183" /><path
       d="M293.2366 -92.4941 L279.2666 -92.4941 "
       id="path184" /><path
       d="M193.9989 -68.5673 L207.9689 -68.5673 "
       id="path185" /><path
       d="M193.9989 -54.5973 L193.9989 -68.5673 "
       id="path186" /><path
       d="M207.9689 -68.5673 L207.9689 -54.5973 "
       id="path187" /><path
       d="M207.9689 -54.5973 L193.9989 -54.5973 "
       id="path188" /><path
       d="M16.3576 -30.6705 L30.3276 -30.6705 "
       id="path189" /><path
       d="M16.3576 -16.7005 L16.3576 -30.6705 "
       id="path190" /><path
       d="M30.3276 -30.6705 L30.3276 -16.7005 "
       id="path191" /><path
       d="M30.3276 -16.7005 L16.3576 -16.7005 "
       id="path192" /><path
       d="M279.2666 -25.9334 L293.2366 -25.9334 "
       id="path193" /><path
       d="M279.2666 -11.9634 L279.2666 -25.9334 "
       id="path194" /><path
       d="M293.2366 -25.9334 L293.2366 -11.9634 "
       id="path195" /><path
       d="M293.2366 -11.9634 L279.2666 -11.9634 "
       id="path196" /><path
       d="M113.4681 -87.5157 L127.4381 -87.5157 "
       id="path197" /><path
       d="M113.4681 -73.5457 L113.4681 -87.5157 "
       id="path198" /><path
       d="M127.4381 -87.5157 L127.4381 -73.5457 "
       id="path199" /><path
       d="M127.4381 -73.5457 L113.4681 -73.5457 "
       id="path200" /><path
       d="M61.3600 -68.5673 L75.3300 -68.5673 "
       id="path201" /><path
       d="M61.3600 -54.5973 L61.3600 -68.5673 "
       id="path202" /><path
       d="M75.3300 -68.5673 L75.3300 -54.5973 "
       id="path203" /><path
       d="M75.3300 -54.5973 L61.3600 -54.5973 "
       id="path204" /><path
       d="M85.0455 -106.4641 L99.0155 -106.4641 "
       id="path205" /><path
       d="M85.0455 -92.4941 L85.0455 -106.4641 "
       id="path206" /><path
       d="M99.0155 -106.4641 L99.0155 -92.4941 "
       id="path207" /><path
       d="M99.0155 -92.4941 L85.0455 -92.4941 "
       id="path208" /><path
       d="M212.9472 -130.1496 L226.9172 -130.1496 "
       id="path209" /><path
       d="M212.9472 -116.1796 L212.9472 -130.1496 "
       id="path210" /><path
       d="M226.9172 -130.1496 L226.9172 -116.1796 "
       id="path211" /><path
       d="M226.9172 -116.1796 L212.9472 -116.1796 "
       id="path212" /><path
       d="M-9.6964 -130.1496 L4.2736 -130.1496 "
       id="path213" /><path
       d="M-9.6964 -116.1796 L-9.6964 -130.1496 "
       id="path214" /><path
       d="M4.2736 -130.1496 L4.2736 -116.1796 "
       id="path215" /><path
       d="M4.2736 -116.1796 L-9.6964 -116.1796 "
       id="path216" /><path
       d="M198.7360 -30.6705 L212.7060 -30.6705 "
       id="path217" /><path
       d="M198.7360 -16.7005 L198.7360 -30.6705 "
       id="path218" /><path
       d="M212.7060 -30.6705 L212.7060 -16.7005 "
       id="path219" /><path
       d="M212.7060 -16.7005 L198.7360 -16.7005 "
       id="path220" /><path
       d="M236.9629 -101.7651 L237.8265 -101.7651 "
       id="path221" /><path
       d="M236.9629 -98.9711 L236.9629 -101.7651 "
       id="path222" /><path
       d="M237.8265 -105.1687 L244.4813 -105.1687 "
       id="path223" /><path
       d="M237.8265 -101.7651 L237.8265 -105.1687 "
       id="path224" /><path
       d="M237.8265 -98.9711 L236.9629 -98.9711 "
       id="path225" /><path
       d="M237.8265 -92.8751 L237.8265 -98.9711 "
       id="path226" /><path
       d="M238.8679 -92.8751 L237.8265 -92.8751 "
       id="path227" /><path
       d="M238.8679 -91.7067 L238.8679 -92.8751 "
       id="path228" /><path
       d="M243.4399 -92.8751 L243.4399 -91.7067 "
       id="path229" /><path
       d="M243.4399 -91.7067 L238.8679 -91.7067 "
       id="path230" /><path
       d="M244.4813 -105.1687 L244.4813 -104.3559 "
       id="path231" /><path
       d="M244.4813 -104.3559 L246.1069 -104.3559 "
       id="path232" /><path
       d="M244.4813 -93.6625 L244.4813 -92.8751 "
       id="path233" /><path
       d="M244.4813 -92.8751 L243.4399 -92.8751 "
       id="path234" /><path
       d="M246.1069 -106.4641 L260.0770 -106.4641 "
       id="path235" /><path
       d="M246.1069 -104.3559 L246.1069 -106.4641 "
       id="path236" /><path
       d="M246.1069 -93.6625 L244.4813 -93.6625 "
       id="path237" /><path
       d="M246.1069 -92.4941 L246.1069 -93.6625 "
       id="path238" /><path
       d="M260.0770 -106.4641 L260.0770 -104.3559 "
       id="path239" /><path
       d="M260.0770 -104.3559 L261.7025 -104.3559 "
       id="path240" /><path
       d="M260.0770 -93.6625 L260.0770 -92.4941 "
       id="path241" /><path
       d="M260.0770 -92.4941 L246.1069 -92.4941 "
       id="path242" /><path
       d="M261.7025 -105.1687 L268.3573 -105.1687 "
       id="path243" /><path
       d="M261.7025 -104.3559 L261.7025 -105.1687 "
       id="path244" /><path
       d="M261.7025 -93.6625 L260.0770 -93.6625 "
       id="path245" /><path
       d="M261.7025 -92.8751 L261.7025 -93.6625 "
       id="path246" /><path
       d="M262.7439 -92.8751 L261.7025 -92.8751 "
       id="path247" /><path
       d="M262.7439 -91.7067 L262.7439 -92.8751 "
       id="path248" /><path
       d="M267.3159 -92.8751 L267.3159 -91.7067 "
       id="path249" /><path
       d="M267.3159 -91.7067 L262.7439 -91.7067 "
       id="path250" /><path
       d="M268.3573 -105.1687 L268.3573 -101.7651 "
       id="path251" /><path
       d="M268.3573 -101.7651 L269.2210 -101.7651 "
       id="path252" /><path
       d="M268.3573 -98.9711 L268.3573 -92.8751 "
       id="path253" /><path
       d="M268.3573 -92.8751 L267.3159 -92.8751 "
       id="path254" /><path
       d="M269.2210 -101.7651 L269.2210 -98.9711 "
       id="path255" /><path
       d="M269.2210 -98.9711 L268.3573 -98.9711 "
       id="path256" /><path
       d="M28.2004 -106.4641 L42.1703 -106.4641 "
       id="path257" /><path
       d="M28.2004 -92.4941 L28.2004 -106.4641 "
       id="path258" /><path
       d="M42.1703 -106.4641 L42.1703 -92.4941 "
       id="path259" /><path
       d="M42.1703 -92.4941 L28.2004 -92.4941 "
       id="path260" /><path
       d="M231.8956 -130.1496 L245.8656 -130.1496 "
       id="path261" /><path
       d="M231.8956 -116.1796 L231.8956 -130.1496 "
       id="path262" /><path
       d="M245.8656 -130.1496 L245.8656 -116.1796 "
       id="path263" /><path
       d="M245.8656 -116.1796 L231.8956 -116.1796 "
       id="path264" /><path
       d="M203.4731 -49.6189 L217.4430 -49.6189 "
       id="path265" /><path
       d="M203.4731 -35.6489 L203.4731 -49.6189 "
       id="path266" /><path
       d="M217.4430 -49.6189 L217.4430 -35.6489 "
       id="path267" /><path
       d="M217.4430 -35.6489 L203.4731 -35.6489 "
       id="path268" /><path
       d="M189.2617 -87.5157 L203.2317 -87.5157 "
       id="path269" /><path
       d="M189.2617 -73.5457 L189.2617 -87.5157 "
       id="path270" /><path
       d="M203.2317 -87.5157 L203.2317 -73.5457 "
       id="path271" /><path
       d="M203.2317 -73.5457 L189.2617 -73.5457 "
       id="path272" /><path
       d="M-6.9977 -44.9199 L-6.1341 -44.9199 "
       id="path273" /><path
       d="M-6.9977 -42.1259 L-6.9977 -44.9199 "
       id="path274" /><path
       d="M-6.1341 -48.3235 L0.5207 -48.3235 "
       id="path275" /><path
       d="M-6.1341 -44.9199 L-6.1341 -48.3235 "
       id="path276" /><path
       d="M-6.1341 -42.1259 L-6.9977 -42.1259 "
       id="path277" /><path
       d="M-6.1341 -36.0299 L-6.1341 -42.1259 "
       id="path278" /><path
       d="M-5.0927 -36.0299 L-6.1341 -36.0299 "
       id="path279" /><path
       d="M-5.0927 -34.8615 L-5.0927 -36.0299 "
       id="path280" /><path
       d="M-0.5207 -36.0299 L-0.5207 -34.8615 "
       id="path281" /><path
       d="M-0.5207 -34.8615 L-5.0927 -34.8615 "
       id="path282" /><path
       d="M0.5207 -48.3235 L0.5207 -47.5107 "
       id="path283" /><path
       d="M0.5207 -47.5107 L2.1463 -47.5107 "
       id="path284" /><path
       d="M0.5207 -36.8173 L0.5207 -36.0299 "
       id="path285" /><path
       d="M0.5207 -36.0299 L-0.5207 -36.0299 "
       id="path286" /><path
       d="M2.1463 -49.6189 L16.1163 -49.6189 "
       id="path287" /><path
       d="M2.1463 -47.5107 L2.1463 -49.6189 "
       id="path288" /><path
       d="M2.1463 -36.8173 L0.5207 -36.8173 "
       id="path289" /><path
       d="M2.1463 -35.6489 L2.1463 -36.8173 "
       id="path290" /><path
       d="M16.1163 -49.6189 L16.1163 -47.5107 "
       id="path291" /><path
       d="M16.1163 -47.5107 L17.7419 -47.5107 "
       id="path292" /><path
       d="M16.1163 -36.8173 L16.1163 -35.6489 "
       id="path293" /><path
       d="M16.1163 -35.6489 L2.1463 -35.6489 "
       id="path294" /><path
       d="M17.7419 -48.3235 L24.3967 -48.3235 "
       id="path295" /><path
       d="M17.7419 -47.5107 L17.7419 -48.3235 "
       id="path296" /><path
       d="M17.7419 -36.8173 L16.1163 -36.8173 "
       id="path297" /><path
       d="M17.7419 -36.0299 L17.7419 -36.8173 "
       id="path298" /><path
       d="M18.7833 -36.0299 L17.7419 -36.0299 "
       id="path299" /><path
       d="M18.7833 -34.8615 L18.7833 -36.0299 "
       id="path300" /><path
       d="M23.3553 -36.0299 L23.3553 -34.8615 "
       id="path301" /><path
       d="M23.3553 -34.8615 L18.7833 -34.8615 "
       id="path302" /><path
       d="M24.3967 -48.3235 L24.3967 -44.9199 "
       id="path303" /><path
       d="M24.3967 -44.9199 L25.2603 -44.9199 "
       id="path304" /><path
       d="M24.3967 -42.1259 L24.3967 -36.0299 "
       id="path305" /><path
       d="M24.3967 -36.0299 L23.3553 -36.0299 "
       id="path306" /><path
       d="M25.2603 -44.9199 L25.2603 -42.1259 "
       id="path307" /><path
       d="M25.2603 -42.1259 L24.3967 -42.1259 "
       id="path308" /><path
       d="M279.2666 -130.1496 L293.2366 -130.1496 "
       id="path309" /><path
       d="M279.2666 -116.1796 L279.2666 -130.1496 "
       id="path310" /><path
       d="M293.2366 -130.1496 L293.2366 -116.1796 "
       id="path311" /><path
       d="M293.2366 -116.1796 L279.2666 -116.1796 "
       id="path312" /><path
       d="M103.9939 -106.4641 L117.9639 -106.4641 "
       id="path313" /><path
       d="M103.9939 -92.4941 L103.9939 -106.4641 "
       id="path314" /><path
       d="M117.9639 -106.4641 L117.9639 -92.4941 "
       id="path315" /><path
       d="M117.9639 -92.4941 L103.9939 -92.4941 "
       id="path316" /><path
       d="M151.3649 -130.1496 L165.3349 -130.1496 "
       id="path317" /><path
       d="M151.3649 -116.1796 L151.3649 -130.1496 "
       id="path318" /><path
       d="M165.3349 -130.1496 L165.3349 -116.1796 "
       id="path319" /><path
       d="M165.3349 -116.1796 L151.3649 -116.1796 "
       id="path320" /><path
       d="M198.7360 -106.4641 L212.7060 -106.4641 "
       id="path321" /><path
       d="M198.7360 -92.4941 L198.7360 -106.4641 "
       id="path322" /><path
       d="M212.7060 -106.4641 L212.7060 -92.4941 "
       id="path323" /><path
       d="M212.7060 -92.4941 L198.7360 -92.4941 "
       id="path324" /><path
       d="M279.2666 -87.5157 L293.2366 -87.5157 "
       id="path325" /><path
       d="M279.2666 -73.5457 L279.2666 -87.5157 "
       id="path326" /><path
       d="M293.2366 -87.5157 L293.2366 -73.5457 "
       id="path327" /><path
       d="M293.2366 -73.5457 L279.2666 -73.5457 "
       id="path328" /><path
       d="M51.8858 -130.1496 L65.8559 -130.1496 "
       id="path329" /><path
       d="M51.8858 -116.1796 L51.8858 -130.1496 "
       id="path330" /><path
       d="M65.8559 -130.1496 L65.8559 -116.1796 "
       id="path331" /><path
       d="M65.8559 -116.1796 L51.8858 -116.1796 "
       id="path332" /><path
       d="M56.6229 -87.5157 L70.5930 -87.5157 "
       id="path333" /><path
       d="M56.6229 -73.5457 L56.6229 -87.5157 "
       id="path334" /><path
       d="M70.5930 -87.5157 L70.5930 -73.5457 "
       id="path335" /><path
       d="M70.5930 -73.5457 L56.6229 -73.5457 "
       id="path336" /><path
       d="M208.2101 -87.5157 L222.1801 -87.5157 "
       id="path337" /><path
       d="M208.2101 -73.5457 L208.2101 -87.5157 "
       id="path338" /><path
       d="M222.1801 -87.5157 L222.1801 -73.5457 "
       id="path339" /><path
       d="M222.1801 -73.5457 L208.2101 -73.5457 "
       id="path340" /><path
       d="M51.8858 -49.6189 L65.8559 -49.6189 "
       id="path341" /><path
       d="M51.8858 -35.6489 L51.8858 -49.6189 "
       id="path342" /><path
       d="M65.8559 -49.6189 L65.8559 -35.6489 "
       id="path343" /><path
       d="M65.8559 -35.6489 L51.8858 -35.6489 "
       id="path344" /><path
       d="M179.7875 -106.4641 L193.7575 -106.4641 "
       id="path345" /><path
       d="M179.7875 -92.4941 L179.7875 -106.4641 "
       id="path346" /><path
       d="M193.7575 -106.4641 L193.7575 -92.4941 "
       id="path347" /><path
       d="M193.7575 -92.4941 L179.7875 -92.4941 "
       id="path348" /><path
       d="M47.1487 -106.4641 L61.1187 -106.4641 "
       id="path349" /><path
       d="M47.1487 -92.4941 L47.1487 -106.4641 "
       id="path350" /><path
       d="M61.1187 -106.4641 L61.1187 -92.4941 "
       id="path351" /><path
       d="M61.1187 -92.4941 L47.1487 -92.4941 "
       id="path352" /><path
       d="M175.0504 -68.5673 L189.0204 -68.5673 "
       id="path353" /><path
       d="M175.0504 -54.5973 L175.0504 -68.5673 "
       id="path354" /><path
       d="M189.0204 -68.5673 L189.0204 -54.5973 "
       id="path355" /><path
       d="M189.0204 -54.5973 L175.0504 -54.5973 "
       id="path356" /><path
       d="M-4.9593 -87.5157 L9.0107 -87.5157 "
       id="path357" /><path
       d="M-4.9593 -73.5457 L-4.9593 -87.5157 "
       id="path358" /><path
       d="M9.0107 -87.5157 L9.0107 -73.5457 "
       id="path359" /><path
       d="M9.0107 -73.5457 L-4.9593 -73.5457 "
       id="path360" /><path
       d="M279.2666 -68.7197 L293.2366 -68.7197 "
       id="path361" /><path
       d="M279.2666 -54.7497 L279.2666 -68.7197 "
       id="path362" /><path
       d="M293.2366 -68.7197 L293.2366 -54.7497 "
       id="path363" /><path
       d="M293.2366 -54.7497 L279.2666 -54.7497 "
       id="path364" /><path
       d="M217.6843 -30.6705 L231.6543 -30.6705 "
       id="path365" /><path
       d="M217.6843 -16.7005 L217.6843 -30.6705 "
       id="path366" /><path
       d="M231.6543 -30.6705 L231.6543 -16.7005 "
       id="path367" /><path
       d="M231.6543 -16.7005 L217.6843 -16.7005 "
       id="path368" /><path
       d="M137.1536 -68.5673 L151.1236 -68.5673 "
       id="path369" /><path
       d="M137.1536 -54.5973 L137.1536 -68.5673 "
       id="path370" /><path
       d="M151.1236 -68.5673 L151.1236 -54.5973 "
       id="path371" /><path
       d="M151.1236 -54.5973 L137.1536 -54.5973 "
       id="path372" /><path
       d="M94.5198 -130.1496 L108.4898 -130.1496 "
       id="path373" /><path
       d="M94.5198 -116.1796 L94.5198 -130.1496 "
       id="path374" /><path
       d="M108.4898 -130.1496 L108.4898 -116.1796 "
       id="path375" /><path
       d="M108.4898 -116.1796 L94.5198 -116.1796 "
       id="path376" /><path
       d="M160.8391 -106.4641 L174.8091 -106.4641 "
       id="path377" /><path
       d="M160.8391 -92.4941 L160.8391 -106.4641 "
       id="path378" /><path
       d="M174.8091 -106.4641 L174.8091 -92.4941 "
       id="path379" /><path
       d="M174.8091 -92.4941 L160.8391 -92.4941 "
       id="path380" /><path
       d="M94.5198 -87.5157 L108.4898 -87.5157 "
       id="path381" /><path
       d="M94.5198 -73.5457 L94.5198 -87.5157 "
       id="path382" /><path
       d="M108.4898 -87.5157 L108.4898 -73.5457 "
       id="path383" /><path
       d="M108.4898 -73.5457 L94.5198 -73.5457 "
       id="path384" /><path
       d="M-9.6964 -106.4641 L4.2736 -106.4641 "
       id="path385" /><path
       d="M-9.6964 -92.4941 L-9.6964 -106.4641 "
       id="path386" /><path
       d="M4.2736 -106.4641 L4.2736 -92.4941 "
       id="path387" /><path
       d="M4.2736 -92.4941 L-9.6964 -92.4941 "
       id="path388" /><path
       d="M229.5271 -49.6189 L243.4971 -49.6189 "
       id="path389" /><path
       d="M229.5271 -35.6489 L229.5271 -49.6189 "
       id="path390" /><path
       d="M243.4971 -49.6189 L243.4971 -35.6489 "
       id="path391" /><path
       d="M243.4971 -35.6489 L229.5271 -35.6489 "
       id="path392" /><path
       d="M-2.5908 -68.5673 L11.3792 -68.5673 "
       id="path393" /><path
       d="M-2.5908 -54.5973 L-2.5908 -68.5673 "
       id="path394" /><path
       d="M11.3792 -68.5673 L11.3792 -54.5973 "
       id="path395" /><path
       d="M11.3792 -54.5973 L-2.5908 -54.5973 "
       id="path396" /><path
       d="M260.3182 -44.8818 L274.2883 -44.8818 "
       id="path397" /><path
       d="M260.3182 -30.9118 L260.3182 -44.8818 "
       id="path398" /><path
       d="M274.2883 -44.8818 L274.2883 -30.9118 "
       id="path399" /><path
       d="M274.2883 -30.9118 L260.3182 -30.9118 "
       id="path400" /><path
       d="M217.6843 -106.4641 L231.6543 -106.4641 "
       id="path401" /><path
       d="M217.6843 -92.4941 L217.6843 -106.4641 "
       id="path402" /><path
       d="M231.6543 -106.4641 L231.6543 -92.4941 "
       id="path403" /><path
       d="M231.6543 -92.4941 L217.6843 -92.4941 "
       id="path404" /><path
       d="M193.9989 -130.1496 L207.9689 -130.1496 "
       id="path405" /><path
       d="M193.9989 -116.1796 L193.9989 -130.1496 "
       id="path406" /><path
       d="M207.9689 -130.1496 L207.9689 -116.1796 "
       id="path407" /><path
       d="M207.9689 -116.1796 L193.9989 -116.1796 "
       id="path408" /><path
       d="M70.8342 -130.1496 L84.8042 -130.1496 "
       id="path409" /><path
       d="M70.8342 -116.1796 L70.8342 -130.1496 "
       id="path410" /><path
       d="M84.8042 -130.1496 L84.8042 -116.1796 "
       id="path411" /><path
       d="M84.8042 -116.1796 L70.8342 -116.1796 "
       id="path412" /><path
       d="M23.4632 -68.5673 L37.4333 -68.5673 "
       id="path413" /><path
       d="M23.4632 -54.5973 L23.4632 -68.5673 "
       id="path414" /><path
       d="M37.4333 -68.5673 L37.4333 -54.5973 "
       id="path415" /><path
       d="M37.4333 -54.5973 L23.4632 -54.5973 "
       id="path416" /><path
       d="M9.2519 -106.4641 L23.2219 -106.4641 "
       id="path417" /><path
       d="M9.2519 -92.4941 L9.2519 -106.4641 "
       id="path418" /><path
       d="M23.2219 -106.4641 L23.2219 -92.4941 "
       id="path419" /><path
       d="M23.2219 -92.4941 L9.2519 -92.4941 "
       id="path420" /><path
       d="M13.9890 -130.1496 L27.9590 -130.1496 "
       id="path421" /><path
       d="M13.9890 -116.1796 L13.9890 -130.1496 "
       id="path422" /><path
       d="M27.9590 -130.1496 L27.9590 -116.1796 "
       id="path423" /><path
       d="M27.9590 -116.1796 L13.9890 -116.1796 "
       id="path424" /><path
       d="m 111.5996,-30.6855 h 13 c 0.27614,0 0.5,0.22386 0.5,0.5 v 13 c 0,0.27614 -0.22386,0.5 -0.5,0.5 h -13 c -0.27614,0 -0.5,-0.22386 -0.5,-0.5 v -13 c 0,-0.27614 0.22386,-0.5 0.5,-0.5 z m -46.5,1 h 6 c 0.27614,0 0.5,0.22386 0.5,0.5 v 14 c 0,0.27614 -0.22386,0.5 -0.5,0.5 h -6 c -0.27614,0 -0.5,-0.22386 -0.5,-0.5 v -14 c 0,-0.27614 0.22386,-0.5 0.5,-0.5 z m 100,0 h 6 c 0.27614,0 0.5,0.22386 0.5,0.5 v 14 c 0,0.27614 -0.22386,0.5 -0.5,0.5 h -6 c -0.27614,0 -0.5,-0.22386 -0.5,-0.5 v -14 c 0,-0.27614 0.22386,-0.5 0.5,-0.5 z"
       vector-effect="non-scaling-stroke"
       id="path1-2"
       style="font-size:12px;fill:none;fill-rule:evenodd;stroke:#000000;stroke-width:0.25mm;stroke-linecap:round"
       sodipodi:nodetypes="sssssssssssssssssssssssssss" /><rect
       style="fill:none;stroke:#000000;stroke-width:0.264999;paint-order:fill markers stroke"
       id="rect3"
       width="306.45078"
       height="121.96018"
       x="-11.214202"
       y="-131.92358" /></g></svg>
