%TF.GenerationSoftware,KiCad,Pcbnew,10.0.0*%
%TF.CreationDate,2026-04-02T18:12:02-07:00*%
%TF.ProjectId,Transparent Keyboard,5472616e-7370-4617-9265-6e74204b6579,rev?*%
%TF.SameCoordinates,Original*%
%TF.FileFunction,Legend,Top*%
%TF.FilePolarity,Positive*%
%FSLAX46Y46*%
G04 Gerber Fmt 4.6, Leading zero omitted, Abs format (unit mm)*
G04 Created by KiCad (PCBNEW 10.0.0) date 2026-04-02 18:12:02*
%MOMM*%
%LPD*%
G01*
G04 APERTURE LIST*
G04 Aperture macros list*
%AMHorizOval*
0 Thick line with rounded ends*
0 $1 width*
0 $2 $3 position (X,Y) of the first rounded end (center of the circle)*
0 $4 $5 position (X,Y) of the second rounded end (center of the circle)*
0 Add line between two ends*
20,1,$1,$2,$3,$4,$5,0*
0 Add two circle primitives to create the rounded ends*
1,1,$1,$2,$3*
1,1,$1,$4,$5*%
G04 Aperture macros list end*
%ADD10C,0.300000*%
%ADD11C,0.000000*%
%ADD12C,0.381000*%
%ADD13HorizOval,2.500000X-0.604462X-0.948815X0.604462X0.948815X0*%
%ADD14HorizOval,2.500000X-0.019724X-0.289328X0.019724X0.289328X0*%
%ADD15R,1.752600X1.752600*%
%ADD16C,1.752600*%
G04 APERTURE END LIST*
D10*
X143983082Y13913457D02*
X143911653Y13984885D01*
X143911653Y13984885D02*
X143768796Y14056314D01*
X143768796Y14056314D02*
X143625939Y14056314D01*
X143625939Y14056314D02*
X143483082Y13984885D01*
X143483082Y13984885D02*
X143411653Y13913457D01*
X143411653Y13913457D02*
X143340225Y13770600D01*
X143340225Y13770600D02*
X143340225Y13627742D01*
X143340225Y13627742D02*
X143411653Y13484885D01*
X143411653Y13484885D02*
X143483082Y13413457D01*
X143483082Y13413457D02*
X143625939Y13342028D01*
X143625939Y13342028D02*
X143768796Y13342028D01*
X143768796Y13342028D02*
X143911653Y13413457D01*
X143911653Y13413457D02*
X143983082Y13484885D01*
X143983082Y14056314D02*
X143983082Y13484885D01*
X143983082Y13484885D02*
X144054510Y13413457D01*
X144054510Y13413457D02*
X144125939Y13413457D01*
X144125939Y13413457D02*
X144268796Y13484885D01*
X144268796Y13484885D02*
X144340225Y13627742D01*
X144340225Y13627742D02*
X144340225Y13984885D01*
X144340225Y13984885D02*
X144197368Y14199171D01*
X144197368Y14199171D02*
X143983082Y14342028D01*
X143983082Y14342028D02*
X143697368Y14413457D01*
X143697368Y14413457D02*
X143411653Y14342028D01*
X143411653Y14342028D02*
X143197368Y14199171D01*
X143197368Y14199171D02*
X143054510Y13984885D01*
X143054510Y13984885D02*
X142983082Y13699171D01*
X142983082Y13699171D02*
X143054510Y13413457D01*
X143054510Y13413457D02*
X143197368Y13199171D01*
X143197368Y13199171D02*
X143411653Y13056314D01*
X143411653Y13056314D02*
X143697368Y12984885D01*
X143697368Y12984885D02*
X143983082Y13056314D01*
X143983082Y13056314D02*
X144197368Y13199171D01*
X144983081Y13199171D02*
X144983081Y14699171D01*
X144983081Y14699171D02*
X145483081Y13627742D01*
X145483081Y13627742D02*
X145983081Y14699171D01*
X145983081Y14699171D02*
X145983081Y13199171D01*
X146697367Y13199171D02*
X146697367Y14199171D01*
X146697367Y14699171D02*
X146625939Y14627742D01*
X146625939Y14627742D02*
X146697367Y14556314D01*
X146697367Y14556314D02*
X146768796Y14627742D01*
X146768796Y14627742D02*
X146697367Y14699171D01*
X146697367Y14699171D02*
X146697367Y14556314D01*
X147197368Y14199171D02*
X147768796Y14199171D01*
X147411653Y14699171D02*
X147411653Y13413457D01*
X147411653Y13413457D02*
X147483082Y13270600D01*
X147483082Y13270600D02*
X147625939Y13199171D01*
X147625939Y13199171D02*
X147768796Y13199171D01*
X148268796Y13199171D02*
X148268796Y14699171D01*
X148911654Y13199171D02*
X148911654Y13984885D01*
X148911654Y13984885D02*
X148840225Y14127742D01*
X148840225Y14127742D02*
X148697368Y14199171D01*
X148697368Y14199171D02*
X148483082Y14199171D01*
X148483082Y14199171D02*
X148340225Y14127742D01*
X148340225Y14127742D02*
X148268796Y14056314D01*
X149625939Y13199171D02*
X149625939Y14199171D01*
X149625939Y14699171D02*
X149554511Y14627742D01*
X149554511Y14627742D02*
X149625939Y14556314D01*
X149625939Y14556314D02*
X149697368Y14627742D01*
X149697368Y14627742D02*
X149625939Y14699171D01*
X149625939Y14699171D02*
X149625939Y14556314D01*
X150554511Y13199171D02*
X150411654Y13270600D01*
X150411654Y13270600D02*
X150340225Y13413457D01*
X150340225Y13413457D02*
X150340225Y14699171D01*
X151697368Y13270600D02*
X151554511Y13199171D01*
X151554511Y13199171D02*
X151268797Y13199171D01*
X151268797Y13199171D02*
X151125939Y13270600D01*
X151125939Y13270600D02*
X151054511Y13413457D01*
X151054511Y13413457D02*
X151054511Y13984885D01*
X151054511Y13984885D02*
X151125939Y14127742D01*
X151125939Y14127742D02*
X151268797Y14199171D01*
X151268797Y14199171D02*
X151554511Y14199171D01*
X151554511Y14199171D02*
X151697368Y14127742D01*
X151697368Y14127742D02*
X151768797Y13984885D01*
X151768797Y13984885D02*
X151768797Y13842028D01*
X151768797Y13842028D02*
X151054511Y13699171D01*
X152340225Y13270600D02*
X152483082Y13199171D01*
X152483082Y13199171D02*
X152768796Y13199171D01*
X152768796Y13199171D02*
X152911653Y13270600D01*
X152911653Y13270600D02*
X152983082Y13413457D01*
X152983082Y13413457D02*
X152983082Y13484885D01*
X152983082Y13484885D02*
X152911653Y13627742D01*
X152911653Y13627742D02*
X152768796Y13699171D01*
X152768796Y13699171D02*
X152554511Y13699171D01*
X152554511Y13699171D02*
X152411653Y13770600D01*
X152411653Y13770600D02*
X152340225Y13913457D01*
X152340225Y13913457D02*
X152340225Y13984885D01*
X152340225Y13984885D02*
X152411653Y14127742D01*
X152411653Y14127742D02*
X152554511Y14199171D01*
X152554511Y14199171D02*
X152768796Y14199171D01*
X152768796Y14199171D02*
X152911653Y14127742D01*
X153554511Y13270600D02*
X153697368Y13199171D01*
X153697368Y13199171D02*
X153983082Y13199171D01*
X153983082Y13199171D02*
X154125939Y13270600D01*
X154125939Y13270600D02*
X154197368Y13413457D01*
X154197368Y13413457D02*
X154197368Y13484885D01*
X154197368Y13484885D02*
X154125939Y13627742D01*
X154125939Y13627742D02*
X153983082Y13699171D01*
X153983082Y13699171D02*
X153768797Y13699171D01*
X153768797Y13699171D02*
X153625939Y13770600D01*
X153625939Y13770600D02*
X153554511Y13913457D01*
X153554511Y13913457D02*
X153554511Y13984885D01*
X153554511Y13984885D02*
X153625939Y14127742D01*
X153625939Y14127742D02*
X153768797Y14199171D01*
X153768797Y14199171D02*
X153983082Y14199171D01*
X153983082Y14199171D02*
X154125939Y14127742D01*
X154840225Y13199171D02*
X154840225Y14699171D01*
X155483083Y13199171D02*
X155483083Y13984885D01*
X155483083Y13984885D02*
X155411654Y14127742D01*
X155411654Y14127742D02*
X155268797Y14199171D01*
X155268797Y14199171D02*
X155054511Y14199171D01*
X155054511Y14199171D02*
X154911654Y14127742D01*
X154911654Y14127742D02*
X154840225Y14056314D01*
X156125940Y14556314D02*
X156197368Y14627742D01*
X156197368Y14627742D02*
X156340226Y14699171D01*
X156340226Y14699171D02*
X156697368Y14699171D01*
X156697368Y14699171D02*
X156840226Y14627742D01*
X156840226Y14627742D02*
X156911654Y14556314D01*
X156911654Y14556314D02*
X156983083Y14413457D01*
X156983083Y14413457D02*
X156983083Y14270600D01*
X156983083Y14270600D02*
X156911654Y14056314D01*
X156911654Y14056314D02*
X156054511Y13199171D01*
X156054511Y13199171D02*
X156983083Y13199171D01*
X157911654Y14699171D02*
X158054511Y14699171D01*
X158054511Y14699171D02*
X158197368Y14627742D01*
X158197368Y14627742D02*
X158268797Y14556314D01*
X158268797Y14556314D02*
X158340225Y14413457D01*
X158340225Y14413457D02*
X158411654Y14127742D01*
X158411654Y14127742D02*
X158411654Y13770600D01*
X158411654Y13770600D02*
X158340225Y13484885D01*
X158340225Y13484885D02*
X158268797Y13342028D01*
X158268797Y13342028D02*
X158197368Y13270600D01*
X158197368Y13270600D02*
X158054511Y13199171D01*
X158054511Y13199171D02*
X157911654Y13199171D01*
X157911654Y13199171D02*
X157768797Y13270600D01*
X157768797Y13270600D02*
X157697368Y13342028D01*
X157697368Y13342028D02*
X157625939Y13484885D01*
X157625939Y13484885D02*
X157554511Y13770600D01*
X157554511Y13770600D02*
X157554511Y14127742D01*
X157554511Y14127742D02*
X157625939Y14413457D01*
X157625939Y14413457D02*
X157697368Y14556314D01*
X157697368Y14556314D02*
X157768797Y14627742D01*
X157768797Y14627742D02*
X157911654Y14699171D01*
X159840225Y13199171D02*
X158983082Y13199171D01*
X159411653Y13199171D02*
X159411653Y14699171D01*
X159411653Y14699171D02*
X159268796Y14484885D01*
X159268796Y14484885D02*
X159125939Y14342028D01*
X159125939Y14342028D02*
X158983082Y14270600D01*
X160768796Y14699171D02*
X160911653Y14699171D01*
X160911653Y14699171D02*
X161054510Y14627742D01*
X161054510Y14627742D02*
X161125939Y14556314D01*
X161125939Y14556314D02*
X161197367Y14413457D01*
X161197367Y14413457D02*
X161268796Y14127742D01*
X161268796Y14127742D02*
X161268796Y13770600D01*
X161268796Y13770600D02*
X161197367Y13484885D01*
X161197367Y13484885D02*
X161125939Y13342028D01*
X161125939Y13342028D02*
X161054510Y13270600D01*
X161054510Y13270600D02*
X160911653Y13199171D01*
X160911653Y13199171D02*
X160768796Y13199171D01*
X160768796Y13199171D02*
X160625939Y13270600D01*
X160625939Y13270600D02*
X160554510Y13342028D01*
X160554510Y13342028D02*
X160483081Y13484885D01*
X160483081Y13484885D02*
X160411653Y13770600D01*
X160411653Y13770600D02*
X160411653Y14127742D01*
X160411653Y14127742D02*
X160483081Y14413457D01*
X160483081Y14413457D02*
X160554510Y14556314D01*
X160554510Y14556314D02*
X160625939Y14627742D01*
X160625939Y14627742D02*
X160768796Y14699171D01*
X281178572Y41750242D02*
X281035715Y41821671D01*
X281035715Y41821671D02*
X280821429Y41821671D01*
X280821429Y41821671D02*
X280607143Y41750242D01*
X280607143Y41750242D02*
X280464286Y41607385D01*
X280464286Y41607385D02*
X280392857Y41464528D01*
X280392857Y41464528D02*
X280321429Y41178814D01*
X280321429Y41178814D02*
X280321429Y40964528D01*
X280321429Y40964528D02*
X280392857Y40678814D01*
X280392857Y40678814D02*
X280464286Y40535957D01*
X280464286Y40535957D02*
X280607143Y40393100D01*
X280607143Y40393100D02*
X280821429Y40321671D01*
X280821429Y40321671D02*
X280964286Y40321671D01*
X280964286Y40321671D02*
X281178572Y40393100D01*
X281178572Y40393100D02*
X281250000Y40464528D01*
X281250000Y40464528D02*
X281250000Y40964528D01*
X281250000Y40964528D02*
X280964286Y40964528D01*
X282107143Y41821671D02*
X282107143Y41464528D01*
X281750000Y41607385D02*
X282107143Y41464528D01*
X282107143Y41464528D02*
X282464286Y41607385D01*
X281892857Y41178814D02*
X282107143Y41464528D01*
X282107143Y41464528D02*
X282321429Y41178814D01*
X283250000Y41821671D02*
X283250000Y41464528D01*
X282892857Y41607385D02*
X283250000Y41464528D01*
X283250000Y41464528D02*
X283607143Y41607385D01*
X283035714Y41178814D02*
X283250000Y41464528D01*
X283250000Y41464528D02*
X283464286Y41178814D01*
X284392857Y41821671D02*
X284392857Y41464528D01*
X284035714Y41607385D02*
X284392857Y41464528D01*
X284392857Y41464528D02*
X284750000Y41607385D01*
X284178571Y41178814D02*
X284392857Y41464528D01*
X284392857Y41464528D02*
X284607143Y41178814D01*
D11*
%TO.C,G\u002A\u002A\u002A*%
G36*
X281705478Y44510677D02*
G01*
X281817913Y44507667D01*
X281933294Y44502860D01*
X282047235Y44496417D01*
X282155349Y44488496D01*
X282253249Y44479257D01*
X282336551Y44468859D01*
X282356179Y44465840D01*
X282409098Y44455363D01*
X282470834Y44440394D01*
X282518759Y44426914D01*
X282569402Y44411854D01*
X282616949Y44398449D01*
X282650073Y44389859D01*
X282756327Y44362509D01*
X282844213Y44334204D01*
X282920348Y44302806D01*
X282922742Y44301689D01*
X282965715Y44282856D01*
X283001790Y44269322D01*
X283023294Y44263961D01*
X283023535Y44263956D01*
X283045926Y44257928D01*
X283079699Y44242781D01*
X283098445Y44232691D01*
X283131949Y44214696D01*
X283156766Y44203460D01*
X283163795Y44201576D01*
X283179911Y44194565D01*
X283212440Y44175171D01*
X283257660Y44145849D01*
X283311849Y44109059D01*
X283371288Y44067256D01*
X283413900Y44036420D01*
X283498447Y43972779D01*
X283565689Y43917731D01*
X283619859Y43867158D01*
X283665195Y43816939D01*
X283705930Y43762958D01*
X283726335Y43732595D01*
X283759218Y43682542D01*
X283789505Y43637293D01*
X283813118Y43602901D01*
X283823301Y43588775D01*
X283842894Y43555793D01*
X283860607Y43514813D01*
X283863096Y43507485D01*
X283876090Y43467196D01*
X283887656Y43431588D01*
X283889421Y43426195D01*
X283900207Y43378718D01*
X283909078Y43310692D01*
X283915971Y43226511D01*
X283920824Y43130570D01*
X283923574Y43027263D01*
X283924157Y42920986D01*
X283922510Y42816132D01*
X283918572Y42717095D01*
X283912277Y42628271D01*
X283903565Y42554054D01*
X283902055Y42544511D01*
X283885218Y42442545D01*
X283871605Y42361609D01*
X283860336Y42298062D01*
X283850531Y42248259D01*
X283841311Y42208559D01*
X283831796Y42175318D01*
X283821107Y42144893D01*
X283808363Y42113642D01*
X283792686Y42077922D01*
X283785492Y42061780D01*
X283732809Y41954693D01*
X283675712Y41863222D01*
X283609015Y41780663D01*
X283527535Y41700315D01*
X283463433Y41645481D01*
X283410566Y41602775D01*
X283371116Y41572715D01*
X283339631Y41551530D01*
X283310655Y41535448D01*
X283290541Y41525926D01*
X283261999Y41510657D01*
X283226033Y41488475D01*
X283215728Y41481618D01*
X283189564Y41462237D01*
X283183633Y41452527D01*
X283194314Y41450038D01*
X283219562Y41446280D01*
X283257515Y41436922D01*
X283299902Y41424474D01*
X283338448Y41411448D01*
X283364879Y41400356D01*
X283370838Y41396452D01*
X283389229Y41389392D01*
X283407249Y41387691D01*
X283436570Y41379656D01*
X283450467Y41368932D01*
X283470151Y41352927D01*
X283480137Y41349783D01*
X283494865Y41341379D01*
X283521791Y41319743D01*
X283555767Y41289660D01*
X283591645Y41255918D01*
X283624276Y41223302D01*
X283648512Y41196601D01*
X283656819Y41185512D01*
X283686874Y41142824D01*
X283727141Y41092811D01*
X283773358Y41040018D01*
X283821263Y40988989D01*
X283866593Y40944269D01*
X283905087Y40910400D01*
X283931954Y40892171D01*
X283964153Y40876285D01*
X283988232Y40863149D01*
X284016022Y40848844D01*
X284025750Y40844841D01*
X284047281Y40834265D01*
X284079708Y40815626D01*
X284094534Y40806505D01*
X284128577Y40785988D01*
X284156044Y40770949D01*
X284163318Y40767588D01*
X284218308Y40745014D01*
X284259130Y40726472D01*
X284277803Y40717089D01*
X284308900Y40704424D01*
X284331729Y40699853D01*
X284353937Y40694723D01*
X284389435Y40681491D01*
X284418288Y40668711D01*
X284461640Y40649989D01*
X284501844Y40635554D01*
X284520689Y40630540D01*
X284541602Y40628623D01*
X284558128Y40635346D01*
X284566183Y40644329D01*
X285691250Y40644329D01*
X285698368Y40610492D01*
X285704076Y40602305D01*
X285730679Y40589312D01*
X285762273Y40589653D01*
X285785397Y40602930D01*
X285786946Y40606057D01*
X286114278Y40606057D01*
X286120531Y40599804D01*
X286126784Y40606057D01*
X286120531Y40612310D01*
X286114278Y40606057D01*
X285786946Y40606057D01*
X285795807Y40623940D01*
X285798353Y40631069D01*
X286139290Y40631069D01*
X286145543Y40624816D01*
X286151796Y40631069D01*
X286145543Y40637322D01*
X286139290Y40631069D01*
X285798353Y40631069D01*
X285808188Y40658613D01*
X285809543Y40663149D01*
X286004789Y40663149D01*
X286006500Y40662334D01*
X286017912Y40671139D01*
X286020482Y40674841D01*
X286153771Y40674841D01*
X286155736Y40657087D01*
X286160079Y40659208D01*
X286161731Y40684812D01*
X286160079Y40690473D01*
X286155514Y40692044D01*
X286153771Y40674841D01*
X286020482Y40674841D01*
X286023669Y40686533D01*
X286021958Y40687347D01*
X286010545Y40678543D01*
X286007976Y40674841D01*
X286004789Y40663149D01*
X285809543Y40663149D01*
X285813034Y40674841D01*
X285829648Y40722306D01*
X285851905Y40772293D01*
X285858996Y40785845D01*
X285881889Y40839491D01*
X285888161Y40884872D01*
X285877444Y40917777D01*
X285871096Y40924392D01*
X285840445Y40935646D01*
X285807431Y40928353D01*
X285784142Y40906258D01*
X285766754Y40876483D01*
X285750345Y40849980D01*
X285724804Y40800695D01*
X285705652Y40745767D01*
X285694073Y40691533D01*
X285691250Y40644329D01*
X284566183Y40644329D01*
X284575783Y40655035D01*
X284592908Y40681094D01*
X285313884Y40681094D01*
X285320137Y40674841D01*
X285326390Y40681094D01*
X285320137Y40687347D01*
X285313884Y40681094D01*
X284592908Y40681094D01*
X284600085Y40692016D01*
X284601033Y40693532D01*
X284601073Y40693600D01*
X285463958Y40693600D01*
X285470211Y40687347D01*
X285476464Y40693600D01*
X285470211Y40699853D01*
X285463958Y40693600D01*
X284601073Y40693600D01*
X284608391Y40706106D01*
X284751107Y40706106D01*
X284757360Y40699853D01*
X284763613Y40706106D01*
X284757360Y40712359D01*
X284751107Y40706106D01*
X284608391Y40706106D01*
X284622955Y40730993D01*
X284637576Y40760636D01*
X284641678Y40775475D01*
X284647928Y40786832D01*
X284651796Y40787396D01*
X284659265Y40795058D01*
X284657311Y40799902D01*
X284658303Y40811426D01*
X284662826Y40812408D01*
X284674077Y40822724D01*
X284676117Y40834294D01*
X284683918Y40862092D01*
X285052542Y40862092D01*
X285057010Y40840350D01*
X285066262Y40827416D01*
X285094182Y40814095D01*
X285127162Y40815679D01*
X285132093Y40818661D01*
X285388921Y40818661D01*
X285395174Y40812408D01*
X285401427Y40818661D01*
X285395174Y40824914D01*
X285388921Y40818661D01*
X285132093Y40818661D01*
X285149824Y40829384D01*
X285162836Y40852513D01*
X285169710Y40868686D01*
X285438946Y40868686D01*
X285445199Y40862433D01*
X285451452Y40868686D01*
X285445199Y40874939D01*
X285438946Y40868686D01*
X285169710Y40868686D01*
X285179852Y40892549D01*
X285192232Y40925778D01*
X285479530Y40925778D01*
X285481241Y40924964D01*
X285492654Y40933768D01*
X285495223Y40937470D01*
X285498410Y40949162D01*
X285496700Y40949976D01*
X285485287Y40941172D01*
X285482717Y40937470D01*
X285479530Y40925778D01*
X285192232Y40925778D01*
X285198368Y40942247D01*
X285207269Y40968735D01*
X285501476Y40968735D01*
X285507730Y40962482D01*
X285513983Y40968735D01*
X285639044Y40968735D01*
X285645297Y40962482D01*
X285651550Y40968735D01*
X285645297Y40974988D01*
X285639044Y40968735D01*
X285513983Y40968735D01*
X285507730Y40974988D01*
X285501476Y40968735D01*
X285207269Y40968735D01*
X285211472Y40981241D01*
X286539487Y40981241D01*
X286545740Y40974988D01*
X286551993Y40981241D01*
X286545740Y40987495D01*
X286539487Y40981241D01*
X285211472Y40981241D01*
X285215881Y40994362D01*
X285229885Y41041651D01*
X285237878Y41076867D01*
X285238847Y41086967D01*
X285237244Y41093797D01*
X286439438Y41093797D01*
X286445691Y41087544D01*
X286451944Y41093797D01*
X286445691Y41100050D01*
X286439438Y41093797D01*
X285237244Y41093797D01*
X285229783Y41125583D01*
X285203777Y41146659D01*
X285181600Y41150075D01*
X285163654Y41148041D01*
X285149031Y41139347D01*
X285135269Y41120104D01*
X285119905Y41086424D01*
X285100478Y41034418D01*
X285090542Y41006254D01*
X285068738Y40940838D01*
X285056261Y40894186D01*
X285052542Y40862092D01*
X284683918Y40862092D01*
X284685742Y40868593D01*
X284711986Y40911660D01*
X284717964Y40918711D01*
X284876169Y40918711D01*
X284882422Y40912458D01*
X284888675Y40918711D01*
X284882422Y40924964D01*
X284876169Y40918711D01*
X284717964Y40918711D01*
X284751079Y40957771D01*
X284762257Y40968735D01*
X284926193Y40968735D01*
X284932446Y40962482D01*
X284938699Y40968735D01*
X284932446Y40974988D01*
X284926193Y40968735D01*
X284762257Y40968735D01*
X284768976Y40975325D01*
X284802469Y41011493D01*
X284831477Y41051019D01*
X284839314Y41064521D01*
X284861172Y41100036D01*
X284891950Y41142269D01*
X284913361Y41168457D01*
X284939266Y41200099D01*
X285128668Y41200099D01*
X285140730Y41208318D01*
X285157557Y41225111D01*
X285172000Y41243228D01*
X285173940Y41250124D01*
X285161878Y41241905D01*
X285145051Y41225111D01*
X285130608Y41206995D01*
X285128668Y41200099D01*
X284939266Y41200099D01*
X284939926Y41200905D01*
X284958172Y41226546D01*
X284963712Y41238210D01*
X284974076Y41250265D01*
X284999510Y41264737D01*
X285004357Y41266855D01*
X285030868Y41283485D01*
X285035824Y41287547D01*
X285977530Y41287547D01*
X285980635Y41281071D01*
X285987621Y41272010D01*
X286005875Y41252566D01*
X286014023Y41252651D01*
X286014229Y41254846D01*
X286005682Y41265285D01*
X285992343Y41276731D01*
X285977530Y41287547D01*
X285035824Y41287547D01*
X285067695Y41313670D01*
X285108662Y41352158D01*
X285112811Y41356426D01*
X285839143Y41356426D01*
X285845396Y41350173D01*
X285851649Y41356426D01*
X285845396Y41362679D01*
X285839143Y41356426D01*
X285112811Y41356426D01*
X285127812Y41371856D01*
X285171259Y41415083D01*
X285216171Y41455007D01*
X285255079Y41485141D01*
X285267198Y41492947D01*
X285293414Y41507381D01*
X285317157Y41516704D01*
X285344617Y41521841D01*
X285381984Y41523716D01*
X285435450Y41523254D01*
X285465433Y41522554D01*
X285527027Y41520697D01*
X285568343Y41518149D01*
X285594118Y41513942D01*
X285609084Y41507106D01*
X285617976Y41496671D01*
X285621205Y41490646D01*
X285633014Y41468794D01*
X285645345Y41457575D01*
X285664796Y41455621D01*
X285697963Y41461564D01*
X285727906Y41468520D01*
X285810935Y41483429D01*
X285881921Y41486795D01*
X285937098Y41478657D01*
X285964548Y41465962D01*
X285999359Y41443753D01*
X286032305Y41425317D01*
X286065095Y41401716D01*
X286088582Y41374747D01*
X286109045Y41341563D01*
X286131973Y41304623D01*
X286133037Y41302915D01*
X286158050Y41262788D01*
X286286736Y41262709D01*
X286350532Y41261740D01*
X286396194Y41258251D01*
X286430554Y41251235D01*
X286460444Y41239683D01*
X286468075Y41235939D01*
X286505768Y41213040D01*
X286544881Y41183316D01*
X286579792Y41151838D01*
X286604877Y41123677D01*
X286614513Y41103904D01*
X286614513Y41103886D01*
X286623834Y41086295D01*
X286642663Y41069253D01*
X286661454Y41054117D01*
X286665840Y41046658D01*
X286664337Y41033292D01*
X286672775Y41008504D01*
X286687124Y40981619D01*
X286701930Y40963180D01*
X286724051Y40928432D01*
X286739616Y40869796D01*
X286748637Y40787197D01*
X286751126Y40680559D01*
X286750210Y40628034D01*
X286747705Y40554980D01*
X286744483Y40502763D01*
X286739991Y40467205D01*
X286733676Y40444132D01*
X286724986Y40429368D01*
X286723719Y40427914D01*
X286707202Y40404944D01*
X286702067Y40390707D01*
X286697276Y40372090D01*
X286685153Y40340259D01*
X286677907Y40323461D01*
X286664835Y40289671D01*
X286659184Y40265403D01*
X286659886Y40259564D01*
X286656870Y40250128D01*
X286653173Y40249631D01*
X286645659Y40240494D01*
X286647520Y40230872D01*
X286646970Y40214811D01*
X286640875Y40212113D01*
X286630471Y40201419D01*
X286627030Y40180848D01*
X286623194Y40157338D01*
X286615831Y40149582D01*
X286603648Y40139502D01*
X286586507Y40114227D01*
X286580132Y40102684D01*
X286559519Y40063327D01*
X286534754Y40016176D01*
X286522691Y39993255D01*
X286498018Y39956514D01*
X286455770Y39905730D01*
X286397640Y39842812D01*
X286325319Y39769668D01*
X286317647Y39762134D01*
X286145543Y39593544D01*
X286295617Y39584675D01*
X286388603Y39578143D01*
X286461026Y39570408D01*
X286517334Y39560690D01*
X286561974Y39548206D01*
X286599392Y39532175D01*
X286601949Y39530851D01*
X286686744Y39481470D01*
X286768511Y39424881D01*
X286837282Y39368037D01*
X286842762Y39362891D01*
X286902166Y39306357D01*
X286901621Y39180825D01*
X286899399Y39089272D01*
X286891746Y39017866D01*
X286875837Y38961878D01*
X286848849Y38916580D01*
X286807956Y38877243D01*
X286750335Y38839139D01*
X286673161Y38797538D01*
X286672493Y38797196D01*
X286548808Y38734009D01*
X286382066Y38738325D01*
X286215324Y38742640D01*
X286261724Y38716131D01*
X286303188Y38689099D01*
X286343827Y38657694D01*
X286348518Y38653600D01*
X286388912Y38617578D01*
X286389163Y38446512D01*
X286388700Y38373744D01*
X286386814Y38322089D01*
X286383125Y38287669D01*
X286377255Y38266606D01*
X286370654Y38256686D01*
X286355070Y38231966D01*
X286351895Y38217401D01*
X286343177Y38189934D01*
X286319571Y38150317D01*
X286284903Y38102996D01*
X286242997Y38052419D01*
X286197678Y38003032D01*
X286152771Y37959284D01*
X286112099Y37925620D01*
X286087657Y37910160D01*
X286050197Y37894656D01*
X286016445Y37886390D01*
X286010001Y37885968D01*
X285978167Y37881120D01*
X285939920Y37869245D01*
X285934868Y37867209D01*
X285899335Y37858625D01*
X285842462Y37852577D01*
X285767777Y37848928D01*
X285678808Y37847544D01*
X285579083Y37848288D01*
X285472133Y37851025D01*
X285361484Y37855620D01*
X285250665Y37861936D01*
X285143206Y37869838D01*
X285042634Y37879191D01*
X284952478Y37889859D01*
X284876266Y37901706D01*
X284838650Y37909336D01*
X284786469Y37923330D01*
X284723344Y37943442D01*
X284654348Y37967693D01*
X284622452Y37979764D01*
X285113786Y37979764D01*
X285120039Y37973511D01*
X285126292Y37979764D01*
X285120039Y37986017D01*
X285113786Y37979764D01*
X284622452Y37979764D01*
X284584555Y37994106D01*
X284519038Y38020702D01*
X284470136Y38042295D01*
X284851156Y38042295D01*
X284857409Y38036042D01*
X284863663Y38042295D01*
X284857409Y38048548D01*
X284851156Y38042295D01*
X284470136Y38042295D01*
X284462871Y38045503D01*
X284421125Y38066533D01*
X284400582Y38080133D01*
X284380455Y38094951D01*
X284370977Y38098573D01*
X284355929Y38105441D01*
X284329952Y38122519D01*
X284321937Y38128387D01*
X284300298Y38142344D01*
X284576021Y38142344D01*
X284582274Y38136091D01*
X284588527Y38142344D01*
X284582274Y38148597D01*
X284576021Y38142344D01*
X284300298Y38142344D01*
X284287414Y38150654D01*
X284278660Y38154850D01*
X284551009Y38154850D01*
X284557262Y38148597D01*
X284563515Y38154850D01*
X284557262Y38161104D01*
X284551009Y38154850D01*
X284278660Y38154850D01*
X284254776Y38166298D01*
X284251582Y38167357D01*
X284513490Y38167357D01*
X284519743Y38161104D01*
X284525996Y38167357D01*
X284519743Y38173610D01*
X284513490Y38167357D01*
X284251582Y38167357D01*
X284250861Y38167596D01*
X284231995Y38176600D01*
X284468890Y38176600D01*
X284481183Y38174597D01*
X284497403Y38176896D01*
X284497597Y38181166D01*
X284480859Y38184151D01*
X284473627Y38182153D01*
X284468890Y38176600D01*
X284231995Y38176600D01*
X284225416Y38179740D01*
X284188373Y38202684D01*
X284147609Y38231535D01*
X284146362Y38232478D01*
X284132948Y38242394D01*
X284375923Y38242394D01*
X284382176Y38236140D01*
X284388429Y38242394D01*
X284382176Y38248647D01*
X284375923Y38242394D01*
X284132948Y38242394D01*
X284108587Y38260402D01*
X284077563Y38282073D01*
X284059513Y38293158D01*
X284058719Y38293495D01*
X284045476Y38286635D01*
X284029225Y38262843D01*
X284023174Y38250239D01*
X283999144Y38207404D01*
X283961850Y38154994D01*
X283916970Y38099775D01*
X283870180Y38048511D01*
X283827156Y38007964D01*
X283806892Y37992508D01*
X283756868Y37959066D01*
X283564619Y37967677D01*
X283488478Y37970681D01*
X283433784Y37971712D01*
X283397037Y37970624D01*
X283374740Y37967273D01*
X283363394Y37961513D01*
X283361585Y37959267D01*
X283357509Y37940864D01*
X283354094Y37902766D01*
X283351668Y37850284D01*
X283350557Y37788733D01*
X283350525Y37779666D01*
X283349844Y37708703D01*
X283347433Y37655474D01*
X283342320Y37612714D01*
X283333534Y37573157D01*
X283320103Y37529537D01*
X283315112Y37514833D01*
X283292695Y37453184D01*
X283273969Y37411974D01*
X283256335Y37387433D01*
X283237198Y37375789D01*
X283217572Y37373216D01*
X283192837Y37365744D01*
X283187440Y37351330D01*
X283179815Y37324089D01*
X283169081Y37305716D01*
X283157601Y37283391D01*
X283157711Y37271324D01*
X283155554Y37261156D01*
X283152228Y37260660D01*
X283145209Y37250720D01*
X283146696Y37235648D01*
X283146409Y37215611D01*
X283139272Y37210636D01*
X283125987Y37201149D01*
X283125307Y37196934D01*
X283118565Y37178264D01*
X283102071Y37150671D01*
X283099443Y37146909D01*
X283085225Y37122047D01*
X283086609Y37110845D01*
X283088470Y37110587D01*
X283105089Y37102127D01*
X283133708Y37079832D01*
X283169448Y37048326D01*
X283207432Y37012234D01*
X283242783Y36976180D01*
X283270623Y36944789D01*
X283285560Y36923714D01*
X283304508Y36892399D01*
X283320018Y36872013D01*
X283334882Y36846618D01*
X283337912Y36832078D01*
X283344764Y36809871D01*
X283350418Y36804186D01*
X283360489Y36785581D01*
X283362211Y36755500D01*
X283355911Y36725925D01*
X283347917Y36712891D01*
X283324848Y36701648D01*
X283298069Y36697883D01*
X283272245Y36703249D01*
X283249108Y36722760D01*
X283228660Y36751035D01*
X283207077Y36782344D01*
X283190199Y36803509D01*
X283184711Y36808355D01*
X283176877Y36822667D01*
X283175332Y36836493D01*
X283169891Y36856243D01*
X283162826Y36860463D01*
X283150503Y36870421D01*
X283149261Y36876096D01*
X283139784Y36892768D01*
X283116825Y36917789D01*
X283100680Y36932521D01*
X283053158Y36973312D01*
X283037493Y36888749D01*
X283024085Y36828285D01*
X283006196Y36762385D01*
X282993645Y36722896D01*
X282977747Y36675117D01*
X282964315Y36631365D01*
X282956995Y36604087D01*
X282938610Y36551426D01*
X282911313Y36520812D01*
X282873335Y36510323D01*
X282870727Y36510291D01*
X282839927Y36512595D01*
X282821494Y36518184D01*
X282820991Y36518629D01*
X282814027Y36531155D01*
X282812826Y36551628D01*
X282818084Y36583224D01*
X282830498Y36629123D01*
X282850763Y36692504D01*
X282873959Y36760414D01*
X282884961Y36798665D01*
X282890046Y36829905D01*
X282889812Y36838578D01*
X282891585Y36856968D01*
X282896730Y36860463D01*
X282905438Y36870924D01*
X282907343Y36884783D01*
X282902715Y36900809D01*
X282894390Y36898470D01*
X282877004Y36890270D01*
X282841036Y36877082D01*
X282791999Y36860620D01*
X282735408Y36842594D01*
X282676778Y36824718D01*
X282621625Y36808704D01*
X282575463Y36796265D01*
X282543807Y36789112D01*
X282540472Y36788575D01*
X282497668Y36790661D01*
X282471373Y36811193D01*
X282462481Y36849200D01*
X282464669Y36869004D01*
X282473395Y36885622D01*
X282491905Y36900877D01*
X282523442Y36916594D01*
X282571251Y36934596D01*
X282638576Y36956706D01*
X282672877Y36967478D01*
X282736507Y36987607D01*
X282781618Y37003412D01*
X282813617Y37017860D01*
X282837913Y37033919D01*
X282859911Y37054556D01*
X282885019Y37082738D01*
X282886917Y37084936D01*
X282921599Y37127834D01*
X282953282Y37171635D01*
X282973673Y37204383D01*
X282992597Y37239270D01*
X283007973Y37266956D01*
X283011547Y37273167D01*
X283024383Y37297790D01*
X283039153Y37329444D01*
X283051651Y37357317D01*
X283059315Y37373629D01*
X283059508Y37373996D01*
X283051412Y37382693D01*
X283026555Y37397517D01*
X283003632Y37408938D01*
X282962609Y37428300D01*
X282926109Y37445810D01*
X282913175Y37452144D01*
X282888222Y37470796D01*
X282857922Y37501862D01*
X282845592Y37517037D01*
X283087789Y37517037D01*
X283094042Y37510784D01*
X283100295Y37517037D01*
X283162826Y37517037D01*
X283169079Y37510784D01*
X283175332Y37517037D01*
X283169079Y37523290D01*
X283162826Y37517037D01*
X283100295Y37517037D01*
X283094042Y37523290D01*
X283087789Y37517037D01*
X282845592Y37517037D01*
X282840337Y37523504D01*
X282826347Y37542049D01*
X283175332Y37542049D01*
X283181585Y37535796D01*
X283187838Y37542049D01*
X283181585Y37548302D01*
X283175332Y37542049D01*
X282826347Y37542049D01*
X282799489Y37577651D01*
X282788333Y37592074D01*
X283187838Y37592074D01*
X283194091Y37585820D01*
X283200344Y37592074D01*
X283194091Y37598327D01*
X283187838Y37592074D01*
X282788333Y37592074D01*
X282769883Y37615926D01*
X282768933Y37617086D01*
X283200344Y37617086D01*
X283206597Y37610833D01*
X283212850Y37617086D01*
X283206597Y37623339D01*
X283200344Y37617086D01*
X282768933Y37617086D01*
X282758691Y37629592D01*
X282912702Y37629592D01*
X282918956Y37623339D01*
X282925209Y37629592D01*
X282918956Y37635845D01*
X282912702Y37629592D01*
X282758691Y37629592D01*
X282748001Y37642646D01*
X282737154Y37654604D01*
X282900196Y37654604D01*
X282906449Y37648351D01*
X282912702Y37654604D01*
X282906449Y37660857D01*
X282900196Y37654604D01*
X282737154Y37654604D01*
X282730325Y37662132D01*
X282715731Y37676465D01*
X282713276Y37679617D01*
X282875184Y37679617D01*
X282881437Y37673364D01*
X282887690Y37679617D01*
X282881437Y37685870D01*
X282875184Y37679617D01*
X282713276Y37679617D01*
X282695492Y37702455D01*
X282687592Y37725643D01*
X282683272Y37744727D01*
X282678138Y37748400D01*
X282667279Y37758643D01*
X282653101Y37783732D01*
X282651144Y37788028D01*
X282630044Y37821686D01*
X282596297Y37861634D01*
X282556757Y37901003D01*
X282549049Y37907396D01*
X282727126Y37907396D01*
X282730169Y37900407D01*
X282742761Y37886981D01*
X282750001Y37889735D01*
X282750122Y37891483D01*
X282741240Y37902061D01*
X282735684Y37905922D01*
X282727126Y37907396D01*
X282549049Y37907396D01*
X282518276Y37932920D01*
X282489846Y37949740D01*
X282462543Y37956713D01*
X282420020Y37963754D01*
X282376764Y37968797D01*
X282292595Y37976620D01*
X282272324Y37928167D01*
X282254462Y37884052D01*
X282235606Y37835456D01*
X282231612Y37824829D01*
X282211247Y37779779D01*
X282184388Y37731856D01*
X282174246Y37716273D01*
X282153039Y37681864D01*
X282139685Y37653303D01*
X282137321Y37642971D01*
X282130831Y37625776D01*
X282124815Y37623339D01*
X282113778Y37613185D01*
X282112309Y37604223D01*
X282105823Y37578989D01*
X282088818Y37540055D01*
X282064977Y37494313D01*
X282037978Y37448654D01*
X282011502Y37409971D01*
X282002648Y37398890D01*
X281984723Y37378819D01*
X281968082Y37365952D01*
X281946554Y37358364D01*
X281913964Y37354132D01*
X281864142Y37351331D01*
X281847790Y37350607D01*
X281792849Y37348198D01*
X281756062Y37343895D01*
X281732051Y37333452D01*
X281715437Y37312623D01*
X281700840Y37277161D01*
X281682881Y37222820D01*
X281681814Y37219578D01*
X281667839Y37172715D01*
X281664583Y37139789D01*
X281673716Y37111417D01*
X281696909Y37078216D01*
X281709827Y37062298D01*
X281768273Y36984789D01*
X281815371Y36909154D01*
X281849964Y36838375D01*
X281870898Y36775437D01*
X281877016Y36723321D01*
X281867164Y36685012D01*
X281859684Y36675372D01*
X281829181Y36659638D01*
X281795206Y36663195D01*
X281764283Y36682407D01*
X281742934Y36713637D01*
X281737124Y36743700D01*
X281732070Y36769067D01*
X281724618Y36779173D01*
X281713979Y36796876D01*
X281712112Y36810284D01*
X281703619Y36839064D01*
X281695276Y36850500D01*
X281678717Y36872700D01*
X281659965Y36905305D01*
X281657217Y36910798D01*
X281634132Y36950266D01*
X281605486Y36989810D01*
X281601649Y36994405D01*
X281567304Y37034550D01*
X281486508Y36942053D01*
X281446825Y36895398D01*
X281409370Y36849243D01*
X281380104Y36811011D01*
X281371438Y36798733D01*
X281344991Y36765400D01*
X281320576Y36750326D01*
X281302029Y36747908D01*
X281261298Y36755112D01*
X281240971Y36776530D01*
X281241075Y36811875D01*
X281261634Y36860856D01*
X281288063Y36902890D01*
X281339216Y36976582D01*
X281285404Y36967977D01*
X281244106Y36958098D01*
X281193196Y36941490D01*
X281156071Y36926912D01*
X281091530Y36903448D01*
X281033542Y36890389D01*
X280986768Y36888290D01*
X280955864Y36897708D01*
X280950731Y36902434D01*
X280939741Y36930431D01*
X280940964Y36964212D01*
X280953049Y36991891D01*
X280961742Y36999227D01*
X280998381Y37015953D01*
X281047602Y37034851D01*
X281102250Y37053591D01*
X281155169Y37069845D01*
X281199203Y37081284D01*
X281227095Y37085581D01*
X281273698Y37092349D01*
X281333004Y37110781D01*
X281397302Y37138080D01*
X281451291Y37166862D01*
X281487412Y37187226D01*
X281517503Y37202314D01*
X281527308Y37206302D01*
X281543996Y37222946D01*
X281561502Y37259540D01*
X281570725Y37287043D01*
X281583633Y37325632D01*
X281595329Y37352301D01*
X281602328Y37360710D01*
X281611344Y37370665D01*
X281612062Y37376666D01*
X281601654Y37390957D01*
X281575280Y37408929D01*
X281558911Y37417311D01*
X281505760Y37442000D01*
X281507203Y37554555D01*
X281937222Y37554555D01*
X281943475Y37548302D01*
X281949729Y37554555D01*
X281943475Y37560808D01*
X281937222Y37554555D01*
X281507203Y37554555D01*
X281507523Y37579567D01*
X281949729Y37579567D01*
X281955982Y37573314D01*
X281962235Y37579567D01*
X281955982Y37585820D01*
X281949729Y37579567D01*
X281507523Y37579567D01*
X281507844Y37604580D01*
X281962235Y37604580D01*
X281968488Y37598327D01*
X281974741Y37604580D01*
X281968488Y37610833D01*
X281962235Y37604580D01*
X281507844Y37604580D01*
X281507924Y37610833D01*
X281509367Y37680572D01*
X281510842Y37722650D01*
X281624569Y37722650D01*
X281628587Y37711287D01*
X281637810Y37721200D01*
X281641846Y37730291D01*
X281642721Y37743201D01*
X281636931Y37742059D01*
X281625013Y37726047D01*
X281624569Y37722650D01*
X281510842Y37722650D01*
X281511731Y37748009D01*
X281514696Y37805750D01*
X281517943Y37846401D01*
X281518177Y37848450D01*
X281520046Y37904727D01*
X282124815Y37904727D01*
X282131068Y37898474D01*
X282137321Y37904727D01*
X282131068Y37910980D01*
X282124815Y37904727D01*
X281520046Y37904727D01*
X281520144Y37907683D01*
X281513791Y37964149D01*
X281511615Y37973511D01*
X281510170Y37979764D01*
X282137321Y37979764D01*
X282143574Y37973511D01*
X282149827Y37979764D01*
X282143574Y37986017D01*
X282137321Y37979764D01*
X281510170Y37979764D01*
X281504392Y38004777D01*
X281637075Y38004777D01*
X281643328Y37998524D01*
X281644142Y37999338D01*
X282152893Y37999338D01*
X282154604Y37998524D01*
X282166017Y38007328D01*
X282168586Y38011030D01*
X282171773Y38022722D01*
X282170062Y38023536D01*
X282158649Y38014732D01*
X282156080Y38011030D01*
X282152893Y37999338D01*
X281644142Y37999338D01*
X281649581Y38004777D01*
X281643328Y38011030D01*
X281637075Y38004777D01*
X281504392Y38004777D01*
X281500796Y38020343D01*
X281496697Y38042295D01*
X282600049Y38042295D01*
X282606302Y38036042D01*
X282612555Y38042295D01*
X282606302Y38048548D01*
X282600049Y38042295D01*
X281496697Y38042295D01*
X281492145Y38066671D01*
X281492051Y38067307D01*
X281624569Y38067307D01*
X281630822Y38061054D01*
X281637075Y38067307D01*
X281630822Y38073560D01*
X281624569Y38067307D01*
X281492051Y38067307D01*
X281490669Y38076687D01*
X281486873Y38092320D01*
X281612062Y38092320D01*
X281618315Y38086067D01*
X281624569Y38092320D01*
X282187345Y38092320D01*
X282193599Y38086067D01*
X282199852Y38092320D01*
X283700590Y38092320D01*
X283706843Y38086067D01*
X283713096Y38092320D01*
X283706843Y38098573D01*
X283700590Y38092320D01*
X282199852Y38092320D01*
X282193599Y38098573D01*
X282187345Y38092320D01*
X281624569Y38092320D01*
X281618315Y38098573D01*
X281612062Y38092320D01*
X281486873Y38092320D01*
X281482687Y38109563D01*
X281468541Y38122703D01*
X281461263Y38123585D01*
X281432513Y38128699D01*
X281406089Y38138194D01*
X281382220Y38144251D01*
X281362409Y38135871D01*
X281343628Y38110006D01*
X281322850Y38063609D01*
X281317028Y38048548D01*
X281299310Y38007166D01*
X281280348Y37970573D01*
X281274360Y37961005D01*
X281255098Y37924315D01*
X281244027Y37892221D01*
X281229819Y37855924D01*
X281212573Y37829690D01*
X281196605Y37804093D01*
X281179039Y37764393D01*
X281168017Y37732768D01*
X281154834Y37694741D01*
X281142944Y37668675D01*
X281136110Y37660857D01*
X281127045Y37650050D01*
X281118184Y37623753D01*
X281117552Y37620984D01*
X281098645Y37573283D01*
X281062655Y37515834D01*
X281013350Y37452699D01*
X280954499Y37387943D01*
X280889870Y37325631D01*
X280823233Y37269825D01*
X280758355Y37224591D01*
X280739928Y37213762D01*
X280712228Y37206023D01*
X280666293Y37201142D01*
X280608744Y37199166D01*
X280546199Y37200142D01*
X280485277Y37204116D01*
X280432599Y37211135D01*
X280430231Y37211580D01*
X280380221Y37220614D01*
X280329695Y37228946D01*
X280314749Y37231198D01*
X280278378Y37239817D01*
X280252044Y37252012D01*
X280247560Y37256011D01*
X280224275Y37269920D01*
X280205120Y37273167D01*
X280177822Y37278258D01*
X280160559Y37295925D01*
X280151937Y37329444D01*
X280524027Y37329444D01*
X280530280Y37323191D01*
X280536533Y37329444D01*
X280530280Y37335697D01*
X280524027Y37329444D01*
X280151937Y37329444D01*
X280151856Y37329758D01*
X280151424Y37344035D01*
X280415640Y37344035D01*
X280417357Y37336600D01*
X280423978Y37335697D01*
X280434272Y37340273D01*
X280433400Y37341950D01*
X280686607Y37341950D01*
X280692860Y37335697D01*
X280699113Y37341950D01*
X280692860Y37348204D01*
X280686607Y37341950D01*
X280433400Y37341950D01*
X280432315Y37344035D01*
X280417473Y37345532D01*
X280415640Y37344035D01*
X280151424Y37344035D01*
X280151156Y37352889D01*
X280347205Y37352889D01*
X280363816Y37350724D01*
X280367700Y37350642D01*
X280389058Y37351993D01*
X280390939Y37355908D01*
X280389824Y37356407D01*
X280364997Y37358881D01*
X280352305Y37356870D01*
X280347205Y37352889D01*
X280151156Y37352889D01*
X280150235Y37383346D01*
X280150959Y37404944D01*
X280155095Y37500460D01*
X280123830Y37463205D01*
X280094511Y37435415D01*
X280054127Y37405539D01*
X280030034Y37390680D01*
X279999111Y37374629D01*
X279969806Y37363914D01*
X279935318Y37357163D01*
X279888848Y37353005D01*
X279829935Y37350299D01*
X279762672Y37350211D01*
X279689778Y37354111D01*
X279616773Y37361266D01*
X279549174Y37370946D01*
X279492502Y37382420D01*
X279452274Y37394957D01*
X279439118Y37402070D01*
X279428045Y37423499D01*
X279423988Y37459611D01*
X279426670Y37501165D01*
X279429112Y37511248D01*
X280524492Y37511248D01*
X280529566Y37475868D01*
X280539034Y37463260D01*
X280569073Y37448239D01*
X280603352Y37455974D01*
X280638323Y37485452D01*
X280644791Y37493476D01*
X280673651Y37529543D01*
X280899212Y37529543D01*
X280905465Y37523290D01*
X280911718Y37529543D01*
X280905465Y37535796D01*
X280899212Y37529543D01*
X280673651Y37529543D01*
X280674684Y37530834D01*
X280705274Y37566396D01*
X280705883Y37567061D01*
X280924224Y37567061D01*
X280930477Y37560808D01*
X280936730Y37567061D01*
X280930477Y37573314D01*
X280924224Y37567061D01*
X280705883Y37567061D01*
X280711350Y37573026D01*
X280726155Y37592074D01*
X280949236Y37592074D01*
X280955489Y37585820D01*
X280961742Y37592074D01*
X280955489Y37598327D01*
X280949236Y37592074D01*
X280726155Y37592074D01*
X280737128Y37606191D01*
X280743910Y37617086D01*
X280961742Y37617086D01*
X280967995Y37610833D01*
X280974248Y37617086D01*
X280967995Y37623339D01*
X280961742Y37617086D01*
X280743910Y37617086D01*
X280763169Y37648022D01*
X280770674Y37662243D01*
X280801715Y37726833D01*
X280829560Y37788636D01*
X280852231Y37842897D01*
X280867750Y37884858D01*
X280872847Y37904727D01*
X281099310Y37904727D01*
X281105563Y37898474D01*
X281111816Y37904727D01*
X281105563Y37910980D01*
X281099310Y37904727D01*
X280872847Y37904727D01*
X280874139Y37909762D01*
X280874199Y37911179D01*
X280863381Y37940166D01*
X280835031Y37956933D01*
X280804307Y37958782D01*
X280789224Y37956689D01*
X280777378Y37952160D01*
X280766304Y37941568D01*
X280753535Y37921284D01*
X280736605Y37887682D01*
X280713047Y37837133D01*
X280695285Y37798425D01*
X280664077Y37736769D01*
X280628392Y37676118D01*
X280593907Y37625868D01*
X280582405Y37611580D01*
X280542081Y37556403D01*
X280524492Y37511248D01*
X279429112Y37511248D01*
X279435815Y37538918D01*
X279443683Y37554995D01*
X279456335Y37576662D01*
X279458613Y37585819D01*
X279458560Y37585820D01*
X279445114Y37581595D01*
X279414904Y37570503D01*
X279374407Y37554926D01*
X279373461Y37554555D01*
X279293626Y37532833D01*
X279200347Y37522706D01*
X279101239Y37523760D01*
X279003915Y37535581D01*
X278915986Y37557754D01*
X278857582Y37582638D01*
X278827135Y37603048D01*
X279636090Y37603048D01*
X279642173Y37599305D01*
X279658799Y37615370D01*
X279662697Y37620212D01*
X279673513Y37635026D01*
X279667037Y37631920D01*
X279657976Y37624934D01*
X279640655Y37609507D01*
X279636090Y37603048D01*
X278827135Y37603048D01*
X278818088Y37609113D01*
X278798791Y37637063D01*
X278798887Y37640478D01*
X279887309Y37640478D01*
X279895858Y37608491D01*
X279899290Y37603891D01*
X279927266Y37588417D01*
X279967921Y37588740D01*
X280014910Y37604424D01*
X280028387Y37611647D01*
X280089378Y37611647D01*
X280091088Y37610833D01*
X280102501Y37619637D01*
X280105071Y37623339D01*
X280108258Y37635031D01*
X280106547Y37635845D01*
X280095134Y37627041D01*
X280092565Y37623339D01*
X280089378Y37611647D01*
X280028387Y37611647D01*
X280030768Y37612923D01*
X280072648Y37645114D01*
X280081824Y37654604D01*
X280323928Y37654604D01*
X280330182Y37648351D01*
X280336435Y37654604D01*
X280330182Y37660857D01*
X280323928Y37654604D01*
X280081824Y37654604D01*
X280118100Y37692123D01*
X280161348Y37692123D01*
X280167602Y37685870D01*
X280173855Y37692123D01*
X280167602Y37698376D01*
X280161348Y37692123D01*
X280118100Y37692123D01*
X280118523Y37692561D01*
X280158480Y37742147D01*
X280373953Y37742147D01*
X280380206Y37735894D01*
X280386459Y37742147D01*
X280380206Y37748400D01*
X280373953Y37742147D01*
X280158480Y37742147D01*
X280164899Y37750113D01*
X280202771Y37804678D01*
X280398965Y37804678D01*
X280405218Y37798425D01*
X280411472Y37804678D01*
X280405218Y37810931D01*
X280398965Y37804678D01*
X280202771Y37804678D01*
X280208281Y37812616D01*
X280245176Y37874916D01*
X280259265Y37904727D01*
X280298916Y37904727D01*
X280305169Y37898474D01*
X280311422Y37904727D01*
X280305169Y37910980D01*
X280298916Y37904727D01*
X280259265Y37904727D01*
X280272089Y37931860D01*
X280285527Y37978294D01*
X280286410Y37989951D01*
X280276195Y38025400D01*
X280270016Y38029789D01*
X281149335Y38029789D01*
X281155588Y38023536D01*
X281161841Y38029789D01*
X281155588Y38036042D01*
X281149335Y38029789D01*
X280270016Y38029789D01*
X280248887Y38044797D01*
X280221441Y38046382D01*
X280203589Y38038152D01*
X280183529Y38016156D01*
X280158572Y37976930D01*
X280136517Y37936929D01*
X280090352Y37860259D01*
X280039187Y37792334D01*
X279987078Y37737855D01*
X279938080Y37701524D01*
X279929628Y37697142D01*
X279899377Y37672522D01*
X279887309Y37640478D01*
X278798887Y37640478D01*
X278799715Y37669833D01*
X278817709Y37704629D01*
X279423485Y37704629D01*
X279429738Y37698376D01*
X279435991Y37704629D01*
X279429738Y37710882D01*
X279423485Y37704629D01*
X278817709Y37704629D01*
X278820883Y37710766D01*
X278858862Y37759208D01*
X278889068Y37795406D01*
X278912026Y37824972D01*
X279223387Y37824972D01*
X279230895Y37785098D01*
X279251940Y37764938D01*
X279284302Y37764782D01*
X279325761Y37784919D01*
X279355153Y37807805D01*
X279375514Y37824252D01*
X279864267Y37824252D01*
X279865978Y37823437D01*
X279877391Y37832241D01*
X279879960Y37835944D01*
X279883147Y37847635D01*
X279881436Y37848450D01*
X279870023Y37839646D01*
X279867454Y37835944D01*
X279864267Y37824252D01*
X279375514Y37824252D01*
X279394339Y37839458D01*
X279443677Y37875480D01*
X279447714Y37878184D01*
X279698621Y37878184D01*
X279704704Y37874440D01*
X279721329Y37890506D01*
X279725228Y37895348D01*
X279728106Y37899289D01*
X279951810Y37899289D01*
X279953521Y37898474D01*
X279964934Y37907278D01*
X279967503Y37910980D01*
X279970690Y37922672D01*
X279968979Y37923487D01*
X279957566Y37914683D01*
X279954997Y37910980D01*
X279951810Y37899289D01*
X279728106Y37899289D01*
X279736044Y37910161D01*
X279729568Y37907056D01*
X279720506Y37900070D01*
X279703186Y37884642D01*
X279698621Y37878184D01*
X279447714Y37878184D01*
X279487339Y37904727D01*
X279551298Y37946908D01*
X279595449Y37980289D01*
X279622371Y38007230D01*
X279634643Y38030091D01*
X279636090Y38040906D01*
X279630164Y38061869D01*
X279939304Y38061869D01*
X279941015Y38061054D01*
X279952428Y38069858D01*
X279954997Y38073560D01*
X279958184Y38085252D01*
X279956473Y38086067D01*
X279945060Y38077263D01*
X279942491Y38073560D01*
X279939304Y38061869D01*
X279630164Y38061869D01*
X279626165Y38076013D01*
X279604693Y38092320D01*
X280398965Y38092320D01*
X280405218Y38086067D01*
X280411472Y38092320D01*
X280405218Y38098573D01*
X280398965Y38092320D01*
X279604693Y38092320D01*
X279599846Y38096001D01*
X279582999Y38098573D01*
X279562673Y38091857D01*
X279528136Y38073920D01*
X279485530Y38048081D01*
X279467257Y38036042D01*
X279425153Y38008239D01*
X279390954Y37986790D01*
X279369841Y37974895D01*
X279365994Y37973511D01*
X279352891Y37965952D01*
X279326551Y37946076D01*
X279292521Y37918081D01*
X279290392Y37916267D01*
X279251491Y37880119D01*
X279230365Y37852121D01*
X279223437Y37827398D01*
X279223387Y37824972D01*
X278912026Y37824972D01*
X278912339Y37825375D01*
X278924111Y37843206D01*
X278924519Y37844206D01*
X278936610Y37862574D01*
X278963341Y37894398D01*
X279001108Y37936020D01*
X279046310Y37983784D01*
X279095344Y38034033D01*
X279144607Y38083110D01*
X279167128Y38104826D01*
X279360955Y38104826D01*
X279367208Y38098573D01*
X279373461Y38104826D01*
X279367208Y38111079D01*
X279360955Y38104826D01*
X279167128Y38104826D01*
X279180098Y38117332D01*
X280411472Y38117332D01*
X280417725Y38111079D01*
X280423978Y38117332D01*
X280417725Y38123585D01*
X280411472Y38117332D01*
X279180098Y38117332D01*
X279190496Y38127358D01*
X279206802Y38142344D01*
X280423978Y38142344D01*
X280430231Y38136091D01*
X280436484Y38142344D01*
X281199359Y38142344D01*
X281205612Y38136091D01*
X281211865Y38142344D01*
X281205612Y38148597D01*
X281199359Y38142344D01*
X280436484Y38142344D01*
X280430231Y38148597D01*
X280423978Y38142344D01*
X279206802Y38142344D01*
X279228100Y38161918D01*
X280452056Y38161918D01*
X280453767Y38161104D01*
X280465180Y38169908D01*
X280467749Y38173610D01*
X280470181Y38182531D01*
X280551055Y38182531D01*
X280554098Y38175542D01*
X280566690Y38162116D01*
X280573930Y38164870D01*
X280574052Y38166619D01*
X280565169Y38177196D01*
X280559613Y38181057D01*
X280551055Y38182531D01*
X280470181Y38182531D01*
X280470571Y38183963D01*
X281190773Y38183963D01*
X281194779Y38176733D01*
X281199359Y38173610D01*
X281217185Y38162976D01*
X281225293Y38165400D01*
X281230625Y38173610D01*
X281226470Y38183069D01*
X281209477Y38185924D01*
X281190773Y38183963D01*
X280470571Y38183963D01*
X280470936Y38185302D01*
X280469225Y38186116D01*
X280457812Y38177312D01*
X280455243Y38173610D01*
X280452056Y38161918D01*
X279228100Y38161918D01*
X279229408Y38163120D01*
X279251993Y38181947D01*
X279465172Y38181947D01*
X279466889Y38174512D01*
X279473510Y38173610D01*
X279483804Y38178186D01*
X279481847Y38181947D01*
X279467005Y38183444D01*
X279465172Y38181947D01*
X279251993Y38181947D01*
X279257742Y38186739D01*
X279266570Y38192369D01*
X279498522Y38192369D01*
X279504775Y38186116D01*
X279511028Y38192369D01*
X279504775Y38198622D01*
X279498522Y38192369D01*
X279266570Y38192369D01*
X279269118Y38193994D01*
X279291340Y38204875D01*
X279523535Y38204875D01*
X279529788Y38198622D01*
X279536041Y38204875D01*
X279529788Y38211128D01*
X279523535Y38204875D01*
X279291340Y38204875D01*
X279298006Y38208139D01*
X279315020Y38220310D01*
X279315721Y38221269D01*
X279308551Y38225291D01*
X279282528Y38224533D01*
X279243203Y38219694D01*
X279196127Y38211474D01*
X279146852Y38200573D01*
X279142097Y38199383D01*
X279101446Y38192836D01*
X279044367Y38188747D01*
X278975335Y38186930D01*
X278898825Y38187202D01*
X278819311Y38189375D01*
X278741269Y38193265D01*
X278669173Y38198688D01*
X278607497Y38205456D01*
X278560717Y38213386D01*
X278533307Y38222291D01*
X278529921Y38224729D01*
X278508512Y38234162D01*
X278491647Y38236140D01*
X278486975Y38236955D01*
X279576625Y38236955D01*
X279578336Y38236140D01*
X279589749Y38244945D01*
X279592318Y38248647D01*
X279595505Y38260339D01*
X279593795Y38261153D01*
X279582382Y38252349D01*
X279579812Y38248647D01*
X279576625Y38236955D01*
X278486975Y38236955D01*
X278460010Y38241659D01*
X278413963Y38256463D01*
X278359259Y38277924D01*
X278354766Y38279912D01*
X281361939Y38279912D01*
X281368192Y38273659D01*
X281374445Y38279912D01*
X281368192Y38286165D01*
X281361939Y38279912D01*
X278354766Y38279912D01*
X278312366Y38298671D01*
X283888183Y38298671D01*
X283892758Y38288377D01*
X283896520Y38290334D01*
X283898017Y38305176D01*
X283896520Y38307009D01*
X283889085Y38305292D01*
X283888183Y38298671D01*
X278312366Y38298671D01*
X278301646Y38303414D01*
X278247627Y38329937D01*
X283913195Y38329937D01*
X283919448Y38323684D01*
X283925701Y38329937D01*
X283919448Y38336190D01*
X283913195Y38329937D01*
X278247627Y38329937D01*
X278246877Y38330305D01*
X278200702Y38355969D01*
X278198297Y38357617D01*
X278587589Y38357617D01*
X278590632Y38350628D01*
X278603224Y38337202D01*
X278610464Y38339956D01*
X278610585Y38341705D01*
X278601702Y38352283D01*
X278597865Y38354949D01*
X283913195Y38354949D01*
X283919448Y38348696D01*
X283925701Y38354949D01*
X283919448Y38361202D01*
X283913195Y38354949D01*
X278597865Y38354949D01*
X278596147Y38356143D01*
X278587589Y38357617D01*
X278198297Y38357617D01*
X278168872Y38377779D01*
X278158866Y38388210D01*
X278153415Y38404974D01*
X279448498Y38404974D01*
X279454751Y38398721D01*
X279461004Y38404974D01*
X281086804Y38404974D01*
X281093057Y38398721D01*
X281099310Y38404974D01*
X281093057Y38411227D01*
X281086804Y38404974D01*
X279461004Y38404974D01*
X279454751Y38411227D01*
X279448498Y38404974D01*
X278153415Y38404974D01*
X278149349Y38417480D01*
X281061792Y38417480D01*
X281068045Y38411227D01*
X281074298Y38417480D01*
X281068045Y38423733D01*
X281061792Y38417480D01*
X278149349Y38417480D01*
X278148388Y38420434D01*
X278148371Y38423733D01*
X279500899Y38423733D01*
X279512960Y38431951D01*
X279529788Y38448745D01*
X279534773Y38454998D01*
X280886705Y38454998D01*
X280892958Y38448745D01*
X280899212Y38454998D01*
X280896544Y38457666D01*
X281038795Y38457666D01*
X281041838Y38450677D01*
X281054430Y38437252D01*
X281061670Y38440006D01*
X281061792Y38441754D01*
X281061172Y38442492D01*
X283900689Y38442492D01*
X283906942Y38436239D01*
X283913195Y38442492D01*
X283906942Y38448745D01*
X283900689Y38442492D01*
X281061172Y38442492D01*
X281052909Y38452332D01*
X281047353Y38456192D01*
X281038795Y38457666D01*
X280896544Y38457666D01*
X280892958Y38461251D01*
X280886705Y38454998D01*
X279534773Y38454998D01*
X279544230Y38466862D01*
X279544411Y38467504D01*
X279723633Y38467504D01*
X279729886Y38461251D01*
X279736139Y38467504D01*
X279733470Y38470173D01*
X283865186Y38470173D01*
X283868229Y38463184D01*
X283880821Y38449758D01*
X283888061Y38452512D01*
X283888183Y38454260D01*
X283887563Y38454998D01*
X284088281Y38454998D01*
X284094534Y38448745D01*
X284100787Y38454998D01*
X284094534Y38461251D01*
X284088281Y38454998D01*
X283887563Y38454998D01*
X283879300Y38464838D01*
X283873744Y38468699D01*
X283865186Y38470173D01*
X279733470Y38470173D01*
X279729886Y38473757D01*
X279723633Y38467504D01*
X279544411Y38467504D01*
X279546170Y38473757D01*
X279534109Y38465539D01*
X279517281Y38448745D01*
X279502839Y38430628D01*
X279500899Y38423733D01*
X278148371Y38423733D01*
X278148276Y38442492D01*
X278322944Y38442492D01*
X278329197Y38436239D01*
X278335450Y38442492D01*
X278329197Y38448745D01*
X278322944Y38442492D01*
X278148276Y38442492D01*
X278148212Y38454998D01*
X278285425Y38454998D01*
X278291678Y38448745D01*
X278297931Y38454998D01*
X278291678Y38461251D01*
X278285425Y38454998D01*
X278148212Y38454998D01*
X278148181Y38460976D01*
X278156415Y38502436D01*
X278163060Y38518092D01*
X278623091Y38518092D01*
X278627013Y38491510D01*
X278641410Y38475011D01*
X278670232Y38467092D01*
X278717427Y38466251D01*
X278753858Y38468348D01*
X278818738Y38473751D01*
X278889734Y38480765D01*
X278947668Y38487412D01*
X279017583Y38499807D01*
X279064695Y38516894D01*
X279087966Y38537102D01*
X279839255Y38537102D01*
X279840965Y38536288D01*
X279852378Y38545092D01*
X279854948Y38548794D01*
X279858134Y38560486D01*
X279856424Y38561301D01*
X279845011Y38552496D01*
X279842441Y38548794D01*
X279839255Y38537102D01*
X279087966Y38537102D01*
X279090942Y38539686D01*
X279098325Y38566311D01*
X279092280Y38598549D01*
X279084866Y38605072D01*
X279686115Y38605072D01*
X279692368Y38598819D01*
X279698621Y38605072D01*
X279692368Y38611325D01*
X279686115Y38605072D01*
X279084866Y38605072D01*
X279072270Y38616155D01*
X279035480Y38620243D01*
X278981707Y38612471D01*
X278932634Y38604344D01*
X278869880Y38596749D01*
X278804762Y38590997D01*
X278785671Y38589782D01*
X278716378Y38583788D01*
X278668753Y38574029D01*
X278639562Y38559079D01*
X278625572Y38537513D01*
X278623091Y38518092D01*
X278163060Y38518092D01*
X278171259Y38537408D01*
X278190883Y38558492D01*
X278201718Y38561511D01*
X278219431Y38566891D01*
X278252795Y38580941D01*
X278277569Y38592566D01*
X278598079Y38592566D01*
X278604332Y38586313D01*
X278610585Y38592566D01*
X278604332Y38598819D01*
X278598079Y38592566D01*
X278277569Y38592566D01*
X278295234Y38600855D01*
X278304184Y38605270D01*
X278347395Y38625961D01*
X278382573Y38641329D01*
X278403274Y38648595D01*
X278405139Y38648831D01*
X278422340Y38654447D01*
X278454257Y38669120D01*
X278491997Y38688623D01*
X278529589Y38705580D01*
X278561647Y38717627D01*
X280899212Y38717627D01*
X280905465Y38711374D01*
X280911718Y38717627D01*
X280905465Y38723881D01*
X280899212Y38717627D01*
X278561647Y38717627D01*
X278586711Y38727046D01*
X278595770Y38730134D01*
X279035795Y38730134D01*
X279042048Y38723881D01*
X279042862Y38724695D01*
X279826749Y38724695D01*
X279828459Y38723881D01*
X279836565Y38730134D01*
X279998768Y38730134D01*
X280005021Y38723881D01*
X280011275Y38730134D01*
X280005021Y38736387D01*
X279998768Y38730134D01*
X279836565Y38730134D01*
X279839872Y38732685D01*
X279842441Y38736387D01*
X279843538Y38740412D01*
X280024540Y38740412D01*
X280027554Y38736387D01*
X280027694Y38736387D01*
X280035117Y38742640D01*
X280736632Y38742640D01*
X280742885Y38736387D01*
X280749138Y38742640D01*
X280742885Y38748893D01*
X280736632Y38742640D01*
X280035117Y38742640D01*
X280037632Y38744759D01*
X280058089Y38765857D01*
X280068339Y38777032D01*
X280105071Y38817677D01*
X280064426Y38780945D01*
X280036012Y38754272D01*
X280024540Y38740412D01*
X279843538Y38740412D01*
X279845628Y38748079D01*
X279843918Y38748893D01*
X279832505Y38740089D01*
X279829935Y38736387D01*
X279826749Y38724695D01*
X279042862Y38724695D01*
X279048301Y38730134D01*
X279042048Y38736387D01*
X279035795Y38730134D01*
X278595770Y38730134D01*
X278627856Y38741072D01*
X279071578Y38741072D01*
X279088189Y38738907D01*
X279092072Y38738825D01*
X279113431Y38740177D01*
X279115311Y38744092D01*
X279114196Y38744590D01*
X279089369Y38747064D01*
X279076678Y38745053D01*
X279071578Y38741072D01*
X278627856Y38741072D01*
X278658602Y38751553D01*
X278740504Y38777635D01*
X278827658Y38803823D01*
X278915305Y38828651D01*
X278998686Y38850652D01*
X279073042Y38868358D01*
X279079566Y38869785D01*
X279130607Y38882064D01*
X279177972Y38895499D01*
X279209281Y38906373D01*
X279247666Y38918611D01*
X279282889Y38924147D01*
X279284318Y38924170D01*
X279316749Y38928809D01*
X279335942Y38936485D01*
X279343944Y38945006D01*
X279330469Y38948465D01*
X279317936Y38948800D01*
X279279179Y38951845D01*
X279221049Y38960023D01*
X279148418Y38972323D01*
X279066158Y38987736D01*
X278979142Y39005254D01*
X278946077Y39012336D01*
X279726699Y39012336D01*
X279728410Y39011522D01*
X279739823Y39020326D01*
X279742392Y39024028D01*
X280636582Y39024028D01*
X280641158Y39013734D01*
X280644920Y39015691D01*
X280646416Y39030533D01*
X280644920Y39032366D01*
X280637485Y39030649D01*
X280636582Y39024028D01*
X279742392Y39024028D01*
X279745579Y39035720D01*
X279743868Y39036534D01*
X279732455Y39027730D01*
X279729886Y39024028D01*
X279726699Y39012336D01*
X278946077Y39012336D01*
X278892244Y39023866D01*
X278810335Y39042562D01*
X278738289Y39060335D01*
X278685707Y39074867D01*
X279826749Y39074867D01*
X279828459Y39074053D01*
X279839872Y39082857D01*
X279842441Y39086559D01*
X279845628Y39098251D01*
X279843918Y39099065D01*
X279832505Y39090261D01*
X279829935Y39086559D01*
X279826749Y39074867D01*
X278685707Y39074867D01*
X278680978Y39076174D01*
X278645785Y39088037D01*
X278606947Y39101860D01*
X278574643Y39110324D01*
X278564151Y39111571D01*
X278524267Y39122724D01*
X278495998Y39151963D01*
X278495115Y39155343D01*
X279686115Y39155343D01*
X279692368Y39149090D01*
X279698621Y39155343D01*
X279692368Y39161596D01*
X279686115Y39155343D01*
X278495115Y39155343D01*
X278491360Y39169710D01*
X280976291Y39169710D01*
X280978160Y39121034D01*
X280989814Y39027431D01*
X281008345Y38948345D01*
X281036424Y38873636D01*
X281052127Y38840274D01*
X281093044Y38768817D01*
X281139617Y38706015D01*
X281188995Y38654089D01*
X281238325Y38615253D01*
X281284754Y38591728D01*
X281325432Y38585730D01*
X281341381Y38592566D01*
X286189315Y38592566D01*
X286195568Y38586313D01*
X286201821Y38592566D01*
X286195568Y38598819D01*
X286189315Y38592566D01*
X281341381Y38592566D01*
X281357505Y38599477D01*
X281359438Y38601320D01*
X281374387Y38631227D01*
X281370598Y38648844D01*
X283875676Y38648844D01*
X283880252Y38638550D01*
X283884014Y38640506D01*
X283885511Y38655348D01*
X283884014Y38657181D01*
X283876579Y38655464D01*
X283875676Y38648844D01*
X281370598Y38648844D01*
X281367223Y38664539D01*
X281339305Y38696024D01*
X281333800Y38700001D01*
X281275222Y38748798D01*
X283626372Y38748798D01*
X283629478Y38742322D01*
X283636464Y38733260D01*
X283654718Y38713817D01*
X283662866Y38713902D01*
X283663072Y38716096D01*
X283654525Y38726536D01*
X283643156Y38736292D01*
X283813965Y38736292D01*
X283817070Y38729815D01*
X283824057Y38720754D01*
X283842311Y38701311D01*
X283850459Y38701395D01*
X283850664Y38703590D01*
X283842118Y38714029D01*
X283828778Y38725476D01*
X283823361Y38729431D01*
X285491564Y38729431D01*
X285506596Y38727359D01*
X285520236Y38727034D01*
X285545974Y38728041D01*
X285552618Y38730875D01*
X285548520Y38732473D01*
X285518488Y38734803D01*
X285498496Y38732726D01*
X285491564Y38729431D01*
X283823361Y38729431D01*
X283813965Y38736292D01*
X283643156Y38736292D01*
X283641186Y38737982D01*
X283631952Y38744724D01*
X285443114Y38744724D01*
X285444831Y38737289D01*
X285451452Y38736387D01*
X285461746Y38740962D01*
X285459789Y38744724D01*
X285444947Y38746221D01*
X285443114Y38744724D01*
X283631952Y38744724D01*
X283626372Y38748798D01*
X281275222Y38748798D01*
X281267602Y38755146D01*
X286151796Y38755146D01*
X286158050Y38748893D01*
X286164303Y38755146D01*
X286158050Y38761399D01*
X286151796Y38755146D01*
X281267602Y38755146D01*
X281255633Y38765117D01*
X286072062Y38765117D01*
X286089266Y38763374D01*
X286107020Y38765339D01*
X286104898Y38769682D01*
X286079294Y38771333D01*
X286073633Y38769682D01*
X286072062Y38765117D01*
X281255633Y38765117D01*
X281252886Y38767405D01*
X281232854Y38792664D01*
X285201329Y38792664D01*
X285207582Y38786411D01*
X285213835Y38792664D01*
X285207582Y38798917D01*
X285201329Y38792664D01*
X281232854Y38792664D01*
X281188877Y38848116D01*
X281140533Y38944426D01*
X281133606Y38967751D01*
X283613047Y38967751D01*
X283619300Y38961497D01*
X283625553Y38967751D01*
X283619300Y38974004D01*
X283613047Y38967751D01*
X281133606Y38967751D01*
X281131507Y38974818D01*
X286730146Y38974818D01*
X286731857Y38974004D01*
X286743269Y38982808D01*
X286745839Y38986510D01*
X286749026Y38998202D01*
X286747315Y38999016D01*
X286735902Y38990212D01*
X286733333Y38986510D01*
X286730146Y38974818D01*
X281131507Y38974818D01*
X281118749Y39017775D01*
X286752092Y39017775D01*
X286758345Y39011522D01*
X286764598Y39017775D01*
X286758345Y39024028D01*
X286752092Y39017775D01*
X281118749Y39017775D01*
X281106618Y39058624D01*
X281090976Y39149090D01*
X281081253Y39197248D01*
X281065979Y39224758D01*
X281042238Y39235846D01*
X281030526Y39236633D01*
X281000541Y39230217D01*
X280982924Y39208929D01*
X280976291Y39169710D01*
X278491360Y39169710D01*
X278485524Y39192039D01*
X278489913Y39224332D01*
X278490218Y39224941D01*
X279113898Y39224941D01*
X279115608Y39224127D01*
X279127021Y39232931D01*
X279129591Y39236633D01*
X279132778Y39248325D01*
X279131067Y39249139D01*
X279119654Y39240335D01*
X279117085Y39236633D01*
X279113898Y39224941D01*
X278490218Y39224941D01*
X278500538Y39245545D01*
X278501156Y39246073D01*
X278519304Y39252139D01*
X278556739Y39259146D01*
X278607808Y39266181D01*
X278660610Y39271770D01*
X278744633Y39280610D01*
X278826944Y39291316D01*
X278850694Y39294995D01*
X279227556Y39294995D01*
X279229272Y39287560D01*
X279235893Y39286657D01*
X279246187Y39291233D01*
X279245314Y39292911D01*
X280674101Y39292911D01*
X280680354Y39286657D01*
X280686607Y39292911D01*
X280680354Y39299164D01*
X280674101Y39292911D01*
X279245314Y39292911D01*
X279244230Y39294995D01*
X279229389Y39296492D01*
X279227556Y39294995D01*
X278850694Y39294995D01*
X278903269Y39303139D01*
X278915613Y39305417D01*
X279260905Y39305417D01*
X279267158Y39299164D01*
X279273411Y39305417D01*
X279267158Y39311670D01*
X279260905Y39305417D01*
X278915613Y39305417D01*
X278953908Y39312484D01*
X279288984Y39312484D01*
X279290695Y39311670D01*
X279302107Y39320474D01*
X279304677Y39324176D01*
X279307864Y39335868D01*
X279306153Y39336682D01*
X279294740Y39327878D01*
X279292171Y39324176D01*
X279288984Y39312484D01*
X278953908Y39312484D01*
X278969335Y39315331D01*
X279020867Y39327144D01*
X279053592Y39337828D01*
X279060807Y39341880D01*
X279062448Y39342935D01*
X279323436Y39342935D01*
X279329689Y39336682D01*
X279335942Y39342935D01*
X279329689Y39349188D01*
X279323436Y39342935D01*
X279062448Y39342935D01*
X279084269Y39356966D01*
X279117586Y39375160D01*
X279123338Y39378044D01*
X279187815Y39413574D01*
X279196115Y39419014D01*
X280650076Y39419014D01*
X280652375Y39402794D01*
X280656644Y39402600D01*
X280659630Y39419338D01*
X280657632Y39426570D01*
X280652078Y39431307D01*
X280650076Y39419014D01*
X279196115Y39419014D01*
X279259269Y39460405D01*
X279341205Y39520970D01*
X279353198Y39530527D01*
X280986755Y39530527D01*
X280993527Y39501828D01*
X281001762Y39489257D01*
X281026144Y39476728D01*
X281043032Y39474250D01*
X281071732Y39481022D01*
X281084303Y39489257D01*
X281096832Y39513639D01*
X281099310Y39530527D01*
X281092537Y39559227D01*
X281084303Y39571798D01*
X281059921Y39584327D01*
X281043032Y39586805D01*
X281014333Y39580033D01*
X281001762Y39571798D01*
X280989232Y39547416D01*
X280986755Y39530527D01*
X279353198Y39530527D01*
X279424305Y39587190D01*
X279475970Y39628945D01*
X279509700Y39655589D01*
X280161348Y39655589D01*
X280167602Y39649336D01*
X280173855Y39655589D01*
X280167602Y39661842D01*
X280161348Y39655589D01*
X279509700Y39655589D01*
X279523810Y39666735D01*
X279534794Y39675163D01*
X280176921Y39675163D01*
X280178632Y39674348D01*
X280190044Y39683152D01*
X280192614Y39686854D01*
X280195801Y39698546D01*
X280194090Y39699361D01*
X280182677Y39690556D01*
X280180108Y39686854D01*
X280176921Y39675163D01*
X279534794Y39675163D01*
X279562921Y39696744D01*
X279588398Y39715155D01*
X279590674Y39716638D01*
X279618340Y39737832D01*
X279654210Y39770060D01*
X279664860Y39780651D01*
X279861201Y39780651D01*
X279867454Y39774398D01*
X279873707Y39780651D01*
X279867454Y39786904D01*
X279861201Y39780651D01*
X279664860Y39780651D01*
X279684989Y39800669D01*
X279716186Y39831621D01*
X279741588Y39853649D01*
X279746603Y39856620D01*
X279975562Y39856620D01*
X279978511Y39850095D01*
X279985524Y39849434D01*
X279992466Y39853152D01*
X280456799Y39853152D01*
X280474002Y39851409D01*
X280491756Y39853374D01*
X280490626Y39855688D01*
X280636582Y39855688D01*
X280642835Y39849434D01*
X280649088Y39855688D01*
X280642835Y39861941D01*
X280636582Y39855688D01*
X280490626Y39855688D01*
X280489635Y39857717D01*
X280464031Y39859369D01*
X280458370Y39857717D01*
X280456799Y39853152D01*
X279992466Y39853152D01*
X280002483Y39858517D01*
X280004933Y39861797D01*
X280002920Y39868904D01*
X279993165Y39866712D01*
X279975562Y39856620D01*
X279746603Y39856620D01*
X279755584Y39861941D01*
X279773060Y39868877D01*
X279776251Y39870727D01*
X281213392Y39870727D01*
X281216560Y39836925D01*
X281232563Y39809774D01*
X281261233Y39793978D01*
X281305311Y39787132D01*
X281356786Y39789405D01*
X281407649Y39800966D01*
X281420539Y39805827D01*
X281450016Y39817037D01*
X281467590Y39821625D01*
X281469255Y39821325D01*
X281469655Y39808245D01*
X281467995Y39775722D01*
X281464603Y39729212D01*
X281461528Y39692972D01*
X281456447Y39622054D01*
X281452467Y39540062D01*
X281450208Y39460930D01*
X281449929Y39433605D01*
X281449482Y39299164D01*
X281383200Y39299164D01*
X281332166Y39295160D01*
X281301650Y39281784D01*
X281288252Y39256987D01*
X281286902Y39241123D01*
X281289320Y39221895D01*
X281299264Y39208011D01*
X281320776Y39197802D01*
X281357894Y39189598D01*
X281414658Y39181728D01*
X281436976Y39179083D01*
X281530704Y39169718D01*
X281611308Y39164681D01*
X281675970Y39163996D01*
X281721873Y39167684D01*
X281746200Y39175767D01*
X281747129Y39176603D01*
X281759658Y39200985D01*
X281762136Y39217874D01*
X281754190Y39249303D01*
X281728639Y39267528D01*
X281682919Y39274213D01*
X281675218Y39274322D01*
X281624498Y39275209D01*
X281591783Y39280506D01*
X281573147Y39294720D01*
X281564664Y39322356D01*
X281562408Y39367920D01*
X281562404Y39403798D01*
X281563749Y39458188D01*
X281567193Y39529464D01*
X281568518Y39550414D01*
X281912063Y39550414D01*
X281915592Y39473993D01*
X281923965Y39408467D01*
X281933942Y39369504D01*
X281968971Y39304529D01*
X282021295Y39248604D01*
X282084489Y39207359D01*
X282140802Y39188265D01*
X282222133Y39179408D01*
X282301496Y39183165D01*
X282370511Y39198834D01*
X282396068Y39209640D01*
X282447540Y39246309D01*
X282505377Y39306995D01*
X282513657Y39317923D01*
X283225356Y39317923D01*
X283231609Y39311670D01*
X283237862Y39317923D01*
X283231609Y39324176D01*
X283225356Y39317923D01*
X282513657Y39317923D01*
X282569453Y39391559D01*
X282578867Y39405466D01*
X283187838Y39405466D01*
X283194091Y39399213D01*
X283200344Y39405466D01*
X283194091Y39411719D01*
X283187838Y39405466D01*
X282578867Y39405466D01*
X282594927Y39429189D01*
X282616423Y39462713D01*
X282620587Y39470665D01*
X283152335Y39470665D01*
X283155378Y39463676D01*
X283167971Y39450250D01*
X283175210Y39453004D01*
X283175332Y39454752D01*
X283166449Y39465330D01*
X283162611Y39467997D01*
X285926686Y39467997D01*
X285932939Y39461744D01*
X285939192Y39467997D01*
X285932939Y39474250D01*
X285926686Y39467997D01*
X283162611Y39467997D01*
X283160893Y39469191D01*
X283152335Y39470665D01*
X282620587Y39470665D01*
X282630609Y39489801D01*
X282635534Y39505515D01*
X283137813Y39505515D01*
X283144066Y39499262D01*
X283150319Y39505515D01*
X283144066Y39511768D01*
X283137813Y39505515D01*
X282635534Y39505515D01*
X282639239Y39517335D01*
X282644066Y39552193D01*
X282645822Y39583220D01*
X283102311Y39583220D01*
X283105354Y39576231D01*
X283117946Y39562805D01*
X283125185Y39565560D01*
X283125307Y39567308D01*
X283124808Y39567902D01*
X285183442Y39567902D01*
X285196959Y39565932D01*
X285220088Y39565370D01*
X285249747Y39566165D01*
X285260588Y39568394D01*
X285254652Y39570596D01*
X285220342Y39572848D01*
X285192121Y39570767D01*
X285183442Y39567902D01*
X283124808Y39567902D01*
X283116424Y39577886D01*
X283112587Y39580552D01*
X283250369Y39580552D01*
X283256622Y39574299D01*
X283262875Y39580552D01*
X283256622Y39586805D01*
X283250369Y39580552D01*
X283112587Y39580552D01*
X283110869Y39581746D01*
X283102311Y39583220D01*
X282645822Y39583220D01*
X282646842Y39601256D01*
X282647903Y39630577D01*
X285807877Y39630577D01*
X285864155Y39623075D01*
X285904509Y39618106D01*
X285937841Y39614689D01*
X285945445Y39614125D01*
X285966549Y39622127D01*
X286000928Y39645902D01*
X286044936Y39682800D01*
X286064253Y39700486D01*
X286103385Y39737804D01*
X286124315Y39759610D01*
X286127736Y39766782D01*
X286114337Y39760200D01*
X286108025Y39756243D01*
X286070453Y39733514D01*
X286036038Y39714838D01*
X286026735Y39710430D01*
X285994416Y39695611D01*
X285973753Y39685509D01*
X285945723Y39675873D01*
X285933362Y39674348D01*
X285910955Y39669816D01*
X285876477Y39658402D01*
X285861281Y39652462D01*
X285807877Y39630577D01*
X282647903Y39630577D01*
X282648178Y39638178D01*
X282645611Y39755537D01*
X282639077Y39793157D01*
X283150319Y39793157D01*
X283156572Y39786904D01*
X283162826Y39793157D01*
X283156572Y39799410D01*
X283150319Y39793157D01*
X282639077Y39793157D01*
X282634732Y39818169D01*
X283137813Y39818169D01*
X283144066Y39811916D01*
X283150319Y39818169D01*
X283144066Y39824422D01*
X283137813Y39818169D01*
X282634732Y39818169D01*
X282632560Y39830675D01*
X285964204Y39830675D01*
X285970457Y39824422D01*
X285976710Y39830675D01*
X285970457Y39836928D01*
X285964204Y39830675D01*
X282632560Y39830675D01*
X282631332Y39837743D01*
X285992283Y39837743D01*
X285993993Y39836928D01*
X286005406Y39845732D01*
X286007976Y39849434D01*
X286011163Y39861126D01*
X286009452Y39861941D01*
X285998039Y39853137D01*
X285995470Y39849434D01*
X285992283Y39837743D01*
X282631332Y39837743D01*
X282628285Y39855286D01*
X282622202Y39870862D01*
X282977249Y39870862D01*
X282980292Y39863873D01*
X282992884Y39850447D01*
X283000124Y39853201D01*
X283000246Y39854949D01*
X282991363Y39865527D01*
X282985807Y39869388D01*
X282977249Y39870862D01*
X282622202Y39870862D01*
X282594837Y39940937D01*
X282559341Y39993255D01*
X282937715Y39993255D01*
X282943968Y39987002D01*
X282950221Y39993255D01*
X282943968Y39999508D01*
X282937715Y39993255D01*
X282559341Y39993255D01*
X282543906Y40016005D01*
X282503229Y40055786D01*
X286401920Y40055786D01*
X286408173Y40049533D01*
X286414426Y40055786D01*
X286408173Y40062039D01*
X286401920Y40055786D01*
X282503229Y40055786D01*
X282477653Y40080798D01*
X286401920Y40080798D01*
X286408173Y40074545D01*
X286414426Y40080798D01*
X286408173Y40087051D01*
X286401920Y40080798D01*
X282477653Y40080798D01*
X282475751Y40082658D01*
X282457318Y40097146D01*
X282439756Y40107157D01*
X282418021Y40113625D01*
X282387066Y40117487D01*
X282369928Y40118317D01*
X286426932Y40118317D01*
X286433185Y40112064D01*
X286439438Y40118317D01*
X286433185Y40124570D01*
X286426932Y40118317D01*
X282369928Y40118317D01*
X282341846Y40119677D01*
X282277315Y40121132D01*
X282267277Y40121315D01*
X282101810Y40124313D01*
X282069269Y40085641D01*
X282038662Y40040405D01*
X282006125Y39977299D01*
X281974566Y39902989D01*
X281946891Y39824145D01*
X281931086Y39768643D01*
X281919755Y39705380D01*
X281913432Y39630090D01*
X281912063Y39550414D01*
X281568518Y39550414D01*
X281572265Y39609629D01*
X281578496Y39690688D01*
X281580894Y39718120D01*
X281590311Y39827670D01*
X281596349Y39914767D01*
X281598718Y39981781D01*
X281597129Y40031079D01*
X281591294Y40065030D01*
X281580922Y40086003D01*
X281565725Y40096365D01*
X281545413Y40098486D01*
X281534587Y40097391D01*
X281509763Y40084164D01*
X281483259Y40049874D01*
X281470822Y40028110D01*
X281429172Y39965723D01*
X281382626Y39926620D01*
X281328918Y39909214D01*
X281299760Y39908106D01*
X281262032Y39906651D01*
X281233785Y39900420D01*
X281227762Y39897084D01*
X281213392Y39870727D01*
X279776251Y39870727D01*
X279793454Y39880700D01*
X280023781Y39880700D01*
X280030034Y39874447D01*
X280036287Y39880700D01*
X280030034Y39886953D01*
X280023781Y39880700D01*
X279793454Y39880700D01*
X279804261Y39886965D01*
X279823532Y39899459D01*
X280063676Y39899459D01*
X280072852Y39905712D01*
X280651527Y39905712D01*
X280652878Y39884354D01*
X280656793Y39882473D01*
X280657292Y39883588D01*
X280659766Y39908415D01*
X280657755Y39921107D01*
X280653774Y39926207D01*
X280651609Y39909596D01*
X280651527Y39905712D01*
X280072852Y39905712D01*
X280075737Y39907678D01*
X280092565Y39924471D01*
X280107007Y39942588D01*
X280108947Y39949484D01*
X280096886Y39941265D01*
X280080058Y39924471D01*
X280065616Y39906355D01*
X280063676Y39899459D01*
X279823532Y39899459D01*
X279843070Y39912126D01*
X279883371Y39940282D01*
X279919051Y39967352D01*
X279938567Y39983994D01*
X279968499Y40009303D01*
X279995524Y40028396D01*
X279996948Y40029223D01*
X280018653Y40043019D01*
X280053776Y40066879D01*
X280095506Y40096156D01*
X280104647Y40102684D01*
X280131497Y40121485D01*
X280861693Y40121485D01*
X280864482Y40106269D01*
X280877168Y40100295D01*
X280906231Y40101393D01*
X280917971Y40102648D01*
X280974248Y40108991D01*
X280974248Y40054250D01*
X280975982Y40019670D01*
X280983139Y40003563D01*
X280998649Y39999511D01*
X280999261Y39999508D01*
X281014891Y40003191D01*
X281022283Y40018480D01*
X281024264Y40051743D01*
X281024273Y40055786D01*
X281027588Y40094974D01*
X281037244Y40111717D01*
X281039906Y40112234D01*
X281064330Y40115474D01*
X281082090Y40119531D01*
X281100566Y40120552D01*
X281111014Y40106795D01*
X281117048Y40081842D01*
X281126848Y40050161D01*
X281142848Y40037816D01*
X281150860Y40037027D01*
X281167348Y40040652D01*
X281173225Y40056095D01*
X281172179Y40083925D01*
X281168094Y40130823D01*
X281233751Y40134603D01*
X281272717Y40138258D01*
X281292555Y40145087D01*
X281299139Y40157609D01*
X281299408Y40162742D01*
X281298147Y40168341D01*
X282891565Y40168341D01*
X282892218Y40135119D01*
X282894050Y40120506D01*
X282896626Y40127472D01*
X282896818Y40130823D01*
X285076267Y40130823D01*
X285082520Y40124570D01*
X285088629Y40130679D01*
X285371035Y40130679D01*
X285384552Y40128709D01*
X285407680Y40128147D01*
X285437339Y40128941D01*
X285448180Y40131171D01*
X285442244Y40133373D01*
X285407935Y40135625D01*
X285379713Y40133544D01*
X285371035Y40130679D01*
X285088629Y40130679D01*
X285088773Y40130823D01*
X285082520Y40137076D01*
X285076267Y40130823D01*
X282896818Y40130823D01*
X282898802Y40165499D01*
X282897261Y40193354D01*
X285889167Y40193354D01*
X285895420Y40187101D01*
X285901673Y40193354D01*
X285895420Y40199607D01*
X285889167Y40193354D01*
X282897261Y40193354D01*
X282896754Y40202509D01*
X282894197Y40212819D01*
X282892336Y40200739D01*
X282891566Y40168893D01*
X282891565Y40168341D01*
X281298147Y40168341D01*
X281296232Y40176846D01*
X281282780Y40184193D01*
X281253170Y40186866D01*
X281230625Y40187101D01*
X281161841Y40187101D01*
X281161841Y40230872D01*
X281161841Y40274644D01*
X281230625Y40274644D01*
X281270375Y40275729D01*
X281291082Y40280423D01*
X281298675Y40290881D01*
X281299408Y40299656D01*
X281296386Y40314180D01*
X281283346Y40321706D01*
X281254332Y40324425D01*
X281231467Y40324668D01*
X281190735Y40326160D01*
X281168274Y40332094D01*
X281157445Y40344659D01*
X281155588Y40349681D01*
X281140120Y40371142D01*
X281119527Y40374612D01*
X281103196Y40361134D01*
X281099310Y40343428D01*
X281093253Y40318704D01*
X281075321Y40312162D01*
X281043917Y40308194D01*
X281031549Y40304571D01*
X281016687Y40304996D01*
X281011830Y40325017D01*
X281011767Y40329583D01*
X281006410Y40354762D01*
X280987550Y40362182D01*
X280986755Y40362187D01*
X280966827Y40354486D01*
X280961742Y40332313D01*
X280956820Y40310714D01*
X280937508Y40298831D01*
X280917971Y40294228D01*
X280886910Y40284484D01*
X280874951Y40268171D01*
X280874199Y40259924D01*
X280877060Y40243571D01*
X280890179Y40237819D01*
X280920359Y40240031D01*
X280924224Y40240542D01*
X280956143Y40243782D01*
X280970400Y40238531D01*
X280974117Y40219683D01*
X280974248Y40204670D01*
X280971540Y40175342D01*
X280960269Y40163561D01*
X280946110Y40161918D01*
X280897051Y40156213D01*
X280868585Y40140316D01*
X280861693Y40121485D01*
X280131497Y40121485D01*
X280143952Y40130206D01*
X280144884Y40130823D01*
X280574052Y40130823D01*
X280580305Y40124570D01*
X280586558Y40130823D01*
X280711619Y40130823D01*
X280717872Y40124570D01*
X280724125Y40130823D01*
X280717872Y40137076D01*
X280711619Y40130823D01*
X280586558Y40130823D01*
X280580305Y40137076D01*
X280574052Y40130823D01*
X280144884Y40130823D01*
X280175287Y40150960D01*
X280193331Y40161459D01*
X280195338Y40162088D01*
X280207369Y40170007D01*
X280233152Y40191240D01*
X280268186Y40222000D01*
X280288290Y40240252D01*
X280354978Y40301161D01*
X280396005Y40337989D01*
X280614636Y40337989D01*
X280616347Y40337174D01*
X280624453Y40343428D01*
X280649088Y40343428D01*
X280655342Y40337174D01*
X280661595Y40343428D01*
X280655342Y40349681D01*
X280649088Y40343428D01*
X280624453Y40343428D01*
X280627760Y40345979D01*
X280630329Y40349681D01*
X280633516Y40361373D01*
X280631805Y40362187D01*
X280620392Y40353383D01*
X280617823Y40349681D01*
X280614636Y40337989D01*
X280396005Y40337989D01*
X280406245Y40347181D01*
X280444841Y40380610D01*
X280445258Y40380946D01*
X280661595Y40380946D01*
X280667848Y40374693D01*
X280674101Y40380946D01*
X280671917Y40383130D01*
X286353558Y40383130D01*
X286365394Y40353799D01*
X286366902Y40352182D01*
X286396718Y40337679D01*
X286430467Y40344082D01*
X286460975Y40369887D01*
X286462734Y40372282D01*
X286481481Y40404234D01*
X286502280Y40447842D01*
X286513604Y40475458D01*
X286534208Y40543708D01*
X286538405Y40595903D01*
X286526369Y40631068D01*
X286498276Y40648226D01*
X286482240Y40649828D01*
X286461525Y40646713D01*
X286445393Y40634293D01*
X286430456Y40607956D01*
X286413328Y40563090D01*
X286408761Y40549779D01*
X286392914Y40507284D01*
X286377098Y40471505D01*
X286368662Y40456327D01*
X286354713Y40421174D01*
X286353558Y40383130D01*
X280671917Y40383130D01*
X280667848Y40387199D01*
X280661595Y40380946D01*
X280445258Y40380946D01*
X280469521Y40400519D01*
X285867221Y40400519D01*
X285868932Y40399705D01*
X285880345Y40408509D01*
X285882914Y40412211D01*
X285884618Y40418464D01*
X286026735Y40418464D01*
X286032988Y40412211D01*
X286039241Y40418464D01*
X286032988Y40424718D01*
X286026735Y40418464D01*
X285884618Y40418464D01*
X285886101Y40423903D01*
X285884390Y40424718D01*
X285872977Y40415913D01*
X285870408Y40412211D01*
X285867221Y40400519D01*
X280469521Y40400519D01*
X280473519Y40403744D01*
X280479015Y40407611D01*
X284958382Y40407611D01*
X284960615Y40406411D01*
X284984230Y40405480D01*
X285027411Y40404899D01*
X285076267Y40404739D01*
X285134168Y40404973D01*
X285173996Y40405622D01*
X285193934Y40406607D01*
X285192168Y40407847D01*
X285173190Y40409001D01*
X285107631Y40410601D01*
X285034593Y40410477D01*
X284979344Y40409001D01*
X284958382Y40407611D01*
X280479015Y40407611D01*
X280494438Y40418464D01*
X284776119Y40418464D01*
X284782373Y40412211D01*
X284788626Y40418464D01*
X284782373Y40424718D01*
X284776119Y40418464D01*
X280494438Y40418464D01*
X280495028Y40418879D01*
X280512121Y40428314D01*
X280515248Y40429717D01*
X280517261Y40430971D01*
X284713589Y40430971D01*
X284719842Y40424718D01*
X284726095Y40430971D01*
X284719842Y40437224D01*
X284713589Y40430971D01*
X280517261Y40430971D01*
X280538798Y40444391D01*
X280553978Y40455983D01*
X285889167Y40455983D01*
X285895420Y40449730D01*
X285901673Y40455983D01*
X285895420Y40462236D01*
X285889167Y40455983D01*
X280553978Y40455983D01*
X280570355Y40468489D01*
X280886705Y40468489D01*
X280892958Y40462236D01*
X280899212Y40468489D01*
X280892958Y40474742D01*
X280886705Y40468489D01*
X280570355Y40468489D01*
X280574902Y40471961D01*
X280585805Y40480995D01*
X285914180Y40480995D01*
X285920433Y40474742D01*
X285926686Y40480995D01*
X285920433Y40487248D01*
X285914180Y40480995D01*
X280585805Y40480995D01*
X280615994Y40506008D01*
X284450959Y40506008D01*
X284457213Y40499754D01*
X284463466Y40506008D01*
X284457213Y40512261D01*
X284450959Y40506008D01*
X280615994Y40506008D01*
X280618215Y40507848D01*
X280630375Y40518514D01*
X285926686Y40518514D01*
X285932939Y40512261D01*
X285939192Y40518514D01*
X285932939Y40524767D01*
X285926686Y40518514D01*
X280630375Y40518514D01*
X280644632Y40531020D01*
X285388921Y40531020D01*
X285395174Y40524767D01*
X285401427Y40531020D01*
X285395174Y40537273D01*
X285388921Y40531020D01*
X280644632Y40531020D01*
X280663394Y40547477D01*
X280705094Y40586268D01*
X280737972Y40619646D01*
X280741322Y40623351D01*
X280767104Y40644929D01*
X280806224Y40669832D01*
X280831518Y40683178D01*
X284042425Y40683178D01*
X284044142Y40675743D01*
X284050763Y40674841D01*
X284061056Y40679416D01*
X284059100Y40683178D01*
X284044258Y40684675D01*
X284042425Y40683178D01*
X280831518Y40683178D01*
X280839006Y40687129D01*
X280850411Y40693600D01*
X284013244Y40693600D01*
X284019497Y40687347D01*
X284025750Y40693600D01*
X284019497Y40699853D01*
X284013244Y40693600D01*
X280850411Y40693600D01*
X280887997Y40714926D01*
X280940742Y40751469D01*
X280974799Y40779263D01*
X281008576Y40808285D01*
X281035693Y40829128D01*
X281050435Y40837412D01*
X281050638Y40837421D01*
X281062801Y40842173D01*
X281055298Y40854236D01*
X281031115Y40870316D01*
X281012631Y40879309D01*
X280965913Y40907741D01*
X280911552Y40953633D01*
X280854142Y41012633D01*
X280822492Y41051019D01*
X282993992Y41051019D01*
X283001471Y41011217D01*
X283023844Y40991499D01*
X283061015Y40991925D01*
X283078742Y40997288D01*
X283114900Y41005712D01*
X283163287Y41011238D01*
X283197254Y41012507D01*
X283240892Y41010468D01*
X283272070Y41001487D01*
X283296278Y40981268D01*
X283319009Y40945515D01*
X283341157Y40899951D01*
X283378029Y40843864D01*
X283433037Y40790536D01*
X283499520Y40745996D01*
X283525504Y40733038D01*
X283582023Y40710376D01*
X283622122Y40701814D01*
X283649678Y40706828D01*
X283660570Y40714860D01*
X283663583Y40721280D01*
X283965235Y40721280D01*
X283968278Y40714291D01*
X283980871Y40700865D01*
X283988110Y40703620D01*
X283988232Y40705368D01*
X283979349Y40715946D01*
X283973793Y40719806D01*
X283965235Y40721280D01*
X283663583Y40721280D01*
X283674376Y40744276D01*
X283670226Y40778813D01*
X283653692Y40803323D01*
X283629665Y40819644D01*
X283592750Y40839232D01*
X283570330Y40849477D01*
X283534815Y40865986D01*
X283508644Y40883230D01*
X283486628Y40906678D01*
X283463574Y40941804D01*
X283435827Y40991264D01*
X283409029Y41034793D01*
X283379984Y41073481D01*
X283359880Y41094439D01*
X283341697Y41108156D01*
X283322487Y41117025D01*
X283296481Y41122081D01*
X283257912Y41124357D01*
X283201012Y41124886D01*
X283190005Y41124878D01*
X283114354Y41123305D01*
X283060312Y41118005D01*
X283024601Y41107742D01*
X283003940Y41091280D01*
X282995052Y41067385D01*
X282993992Y41051019D01*
X280822492Y41051019D01*
X280798278Y41080386D01*
X280792909Y41087534D01*
X280746538Y41151950D01*
X280715013Y41201406D01*
X280696467Y41239555D01*
X280689036Y41270046D01*
X280689579Y41289718D01*
X280692028Y41306401D01*
X283212850Y41306401D01*
X283219103Y41300148D01*
X283225356Y41306401D01*
X283219103Y41312655D01*
X283212850Y41306401D01*
X280692028Y41306401D01*
X280695110Y41327400D01*
X280637707Y41319205D01*
X280597968Y41310376D01*
X280545698Y41294576D01*
X280491233Y41274978D01*
X280483311Y41271825D01*
X280437965Y41251831D01*
X280397738Y41229428D01*
X280356805Y41200571D01*
X280309339Y41161212D01*
X280259056Y41116065D01*
X280182125Y41041512D01*
X280125354Y40977382D01*
X280089227Y40924303D01*
X280074227Y40882901D01*
X280073805Y40876164D01*
X280062992Y40845372D01*
X280033443Y40827737D01*
X280010305Y40824914D01*
X279983712Y40828621D01*
X279965240Y40842928D01*
X279951347Y40872621D01*
X279938667Y40921693D01*
X279928030Y40956117D01*
X279908406Y41007023D01*
X279882203Y41068624D01*
X279851827Y41135134D01*
X279837224Y41165563D01*
X279806639Y41229561D01*
X279779690Y41288408D01*
X279758521Y41337229D01*
X279745277Y41371152D01*
X279742201Y41381438D01*
X279732774Y41417597D01*
X279723705Y41443969D01*
X279705142Y41504336D01*
X279690327Y41586958D01*
X279679693Y41689302D01*
X279678173Y41710890D01*
X279678766Y41779349D01*
X279789775Y41779349D01*
X279790633Y41736909D01*
X279791964Y41721691D01*
X279799511Y41661558D01*
X279809065Y41602478D01*
X279819418Y41550588D01*
X279829361Y41512026D01*
X279836811Y41493994D01*
X279845216Y41473988D01*
X279853791Y41441748D01*
X279854631Y41437716D01*
X279863240Y41410756D01*
X279880801Y41366862D01*
X279905011Y41311434D01*
X279933569Y41249875D01*
X279943460Y41229331D01*
X280023465Y41064717D01*
X280065360Y41104269D01*
X280092205Y41129496D01*
X280131388Y41166174D01*
X280176939Y41208719D01*
X280209406Y41238991D01*
X280263416Y41287226D01*
X280309378Y41322285D01*
X280355753Y41349784D01*
X280411001Y41375336D01*
X280421389Y41379685D01*
X280472491Y41399683D01*
X280517595Y41415208D01*
X280549927Y41424020D01*
X280559128Y41425210D01*
X280578448Y41428785D01*
X280582198Y41444476D01*
X280579526Y41459602D01*
X280569003Y41498539D01*
X280558723Y41529083D01*
X280551225Y41568096D01*
X280549699Y41623275D01*
X280553449Y41686676D01*
X280561776Y41750358D01*
X280573983Y41806379D01*
X280586060Y41840314D01*
X280608244Y41875295D01*
X280647530Y41923646D01*
X280701725Y41982819D01*
X280757275Y42039132D01*
X280842053Y42125796D01*
X280911928Y42203817D01*
X280965604Y42271565D01*
X281001783Y42327415D01*
X281018539Y42367040D01*
X281017258Y42403209D01*
X280999050Y42433583D01*
X280969689Y42449830D01*
X280960542Y42450715D01*
X280937414Y42456932D01*
X280930477Y42463221D01*
X280912562Y42474318D01*
X280902284Y42475727D01*
X280880415Y42483900D01*
X280852476Y42504081D01*
X280846745Y42509332D01*
X280823923Y42537842D01*
X280813361Y42571282D01*
X280814549Y42615215D01*
X280826982Y42675204D01*
X280830428Y42688332D01*
X280842215Y42736215D01*
X280846487Y42772639D01*
X280841761Y42804990D01*
X280826556Y42840656D01*
X280799390Y42887024D01*
X280786426Y42907712D01*
X280757026Y42954381D01*
X280731247Y42995384D01*
X280713039Y43024438D01*
X280708262Y43032107D01*
X280682314Y43072215D01*
X280663297Y43094433D01*
X280645886Y43102674D01*
X280624757Y43100852D01*
X280617228Y43099014D01*
X280584288Y43083257D01*
X280538033Y43050750D01*
X280481231Y43003901D01*
X280416647Y42945114D01*
X280347050Y42876799D01*
X280276084Y42802312D01*
X280229124Y42753169D01*
X280188194Y42713747D01*
X280156580Y42687020D01*
X280137567Y42675959D01*
X280136298Y42675825D01*
X280114401Y42663469D01*
X280088901Y42626389D01*
X280080410Y42610168D01*
X280056061Y42562890D01*
X280030455Y42515514D01*
X280018537Y42494486D01*
X279961242Y42387952D01*
X279910290Y42277313D01*
X279868731Y42169879D01*
X279839616Y42072959D01*
X279835839Y42056771D01*
X279815735Y41962377D01*
X279801744Y41887638D01*
X279793285Y41828110D01*
X279789775Y41779349D01*
X279678766Y41779349D01*
X279679437Y41856725D01*
X279700797Y42011488D01*
X279741088Y42170928D01*
X279799148Y42330796D01*
X279873812Y42486842D01*
X279906448Y42544511D01*
X279930133Y42586743D01*
X279952005Y42629202D01*
X279956338Y42638307D01*
X279987482Y42695797D01*
X280019767Y42738261D01*
X280049741Y42761222D01*
X280051593Y42761957D01*
X280068780Y42773733D01*
X280099662Y42800084D01*
X280140513Y42837635D01*
X280187606Y42883011D01*
X280211511Y42906759D01*
X280266221Y42962669D01*
X280304172Y43004086D01*
X280327180Y43033265D01*
X280337061Y43052465D01*
X280336640Y43062346D01*
X280323116Y43103589D01*
X280312566Y43164718D01*
X280305087Y43240773D01*
X280300778Y43326793D01*
X280299735Y43417817D01*
X280302057Y43508886D01*
X280307840Y43595039D01*
X280317183Y43671315D01*
X280323945Y43707583D01*
X280342972Y43777672D01*
X280611922Y43777672D01*
X280613067Y43737807D01*
X280623303Y43707778D01*
X280626577Y43703831D01*
X280646753Y43695505D01*
X280682683Y43690055D01*
X280711619Y43688824D01*
X280753016Y43691363D01*
X280784978Y43697894D01*
X280796661Y43703831D01*
X280805751Y43724753D01*
X280811084Y43759904D01*
X280811668Y43776367D01*
X280808582Y43814298D01*
X280800803Y43842518D01*
X280796661Y43848903D01*
X280771861Y43859842D01*
X280732981Y43863958D01*
X280689902Y43861600D01*
X280652508Y43853113D01*
X280634441Y43843213D01*
X280619252Y43816449D01*
X280611922Y43777672D01*
X280342972Y43777672D01*
X280343698Y43780346D01*
X280371541Y43858440D01*
X280391411Y43905008D01*
X280899497Y43905008D01*
X280914219Y43878917D01*
X280941304Y43865103D01*
X280976452Y43871446D01*
X281021627Y43898504D01*
X281043262Y43915514D01*
X281080151Y43943944D01*
X281119979Y43969498D01*
X281168508Y43995360D01*
X281231500Y44024715D01*
X281276286Y44044319D01*
X281310034Y44057065D01*
X281335845Y44063727D01*
X281339442Y44064009D01*
X281363757Y44071449D01*
X281368818Y44075258D01*
X281385635Y44083104D01*
X281420610Y44094607D01*
X281467525Y44107805D01*
X281491375Y44113898D01*
X281524390Y44121675D01*
X281555697Y44127766D01*
X281588268Y44132198D01*
X281625080Y44134997D01*
X281669104Y44136187D01*
X281723316Y44135794D01*
X281790690Y44133845D01*
X281874199Y44130364D01*
X281976818Y44125378D01*
X282097499Y44119124D01*
X282164965Y44116727D01*
X282211376Y44118769D01*
X282240498Y44126590D01*
X282256096Y44141529D01*
X282261935Y44164926D01*
X282262382Y44177807D01*
X282257612Y44204475D01*
X282241172Y44224860D01*
X282209870Y44240446D01*
X282160512Y44252716D01*
X282089907Y44263153D01*
X282074790Y44264941D01*
X282009620Y44269911D01*
X281929553Y44272088D01*
X281839557Y44271720D01*
X281744598Y44269055D01*
X281649644Y44264342D01*
X281559664Y44257829D01*
X281479624Y44249765D01*
X281414493Y44240396D01*
X281369237Y44229972D01*
X281368192Y44229630D01*
X281334161Y44219633D01*
X281288624Y44207810D01*
X281261890Y44201434D01*
X281149732Y44163140D01*
X281048424Y44102535D01*
X280972508Y44034655D01*
X280927428Y43981490D01*
X280903326Y43938903D01*
X280899497Y43905008D01*
X280391411Y43905008D01*
X280405030Y43936926D01*
X280441722Y44010870D01*
X280479171Y44075335D01*
X280514932Y44125384D01*
X280545760Y44155532D01*
X280580631Y44175876D01*
X280611711Y44187784D01*
X280620884Y44189070D01*
X280645690Y44194094D01*
X280655041Y44201089D01*
X280671767Y44216314D01*
X280706235Y44239859D01*
X280753728Y44269031D01*
X280809527Y44301138D01*
X280868918Y44333490D01*
X280927182Y44363392D01*
X280979603Y44388154D01*
X280993008Y44393976D01*
X281045317Y44416126D01*
X281092056Y44435919D01*
X281126292Y44450419D01*
X281136828Y44454883D01*
X281154154Y44461368D01*
X281176188Y44467496D01*
X281207147Y44474102D01*
X281251250Y44482019D01*
X281312714Y44492083D01*
X281372924Y44501569D01*
X281429712Y44507337D01*
X281506991Y44510672D01*
X281600376Y44511732D01*
X281705478Y44510677D01*
G37*
G36*
X282365633Y39999917D02*
G01*
X282421115Y39972270D01*
X282464756Y39925390D01*
X282499441Y39857647D01*
X282508123Y39834190D01*
X282522713Y39775922D01*
X282530621Y39709445D01*
X282531876Y39642014D01*
X282526507Y39580884D01*
X282514543Y39533312D01*
X282506861Y39518021D01*
X282467587Y39461572D01*
X282426048Y39408453D01*
X282386196Y39363171D01*
X282351986Y39330229D01*
X282328234Y39314440D01*
X282287467Y39300416D01*
X282257445Y39295015D01*
X282225958Y39296923D01*
X282202156Y39300870D01*
X282134502Y39321320D01*
X282084112Y39356001D01*
X282050041Y39406529D01*
X282031343Y39474523D01*
X282027076Y39561600D01*
X282028866Y39597587D01*
X282038324Y39684494D01*
X282055209Y39761562D01*
X282082644Y39841931D01*
X282093211Y39868194D01*
X282116432Y39923767D01*
X282133644Y39960526D01*
X282148451Y39982749D01*
X282164455Y39994713D01*
X282185260Y40000697D01*
X282207615Y40004029D01*
X282295428Y40009960D01*
X282365633Y39999917D01*
G37*
G36*
X281110195Y40249086D02*
G01*
X281111816Y40219825D01*
X281110050Y40189846D01*
X281099874Y40177295D01*
X281073972Y40174613D01*
X281068045Y40174594D01*
X281038636Y40176686D01*
X281026574Y40187295D01*
X281024273Y40212113D01*
X281028871Y40239382D01*
X281039906Y40249802D01*
X281064033Y40253029D01*
X281083677Y40257514D01*
X281102305Y40259820D01*
X281110195Y40249086D01*
G37*
%TO.C,K40*%
D12*
X170948350Y86880700D02*
X172726350Y86880700D01*
X170948350Y85102700D02*
X170948350Y86880700D01*
X170948350Y74180700D02*
X170948350Y75958700D01*
X172726350Y74180700D02*
X170948350Y74180700D01*
X181870350Y86880700D02*
X183648350Y86880700D01*
X183648350Y86880700D02*
X183648350Y85102700D01*
X183648350Y75958700D02*
X183648350Y74180700D01*
X183648350Y74180700D02*
X181870350Y74180700D01*
%TO.C,K8*%
X133051550Y129514600D02*
X134829550Y129514600D01*
X133051550Y127736600D02*
X133051550Y129514600D01*
X133051550Y116814600D02*
X133051550Y118592600D01*
X134829550Y116814600D02*
X133051550Y116814600D01*
X143973550Y129514600D02*
X145751550Y129514600D01*
X145751550Y129514600D02*
X145751550Y127736600D01*
X145751550Y118592600D02*
X145751550Y116814600D01*
X145751550Y116814600D02*
X143973550Y116814600D01*
%TO.C,K58*%
X244373400Y67932300D02*
X246151400Y67932300D01*
X244373400Y66154300D02*
X244373400Y67932300D01*
X244373400Y55232300D02*
X244373400Y57010300D01*
X246151400Y55232300D02*
X244373400Y55232300D01*
X255295400Y67932300D02*
X257073400Y67932300D01*
X257073400Y67932300D02*
X257073400Y66154300D01*
X257073400Y57010300D02*
X257073400Y55232300D01*
X257073400Y55232300D02*
X255295400Y55232300D01*
%TO.C,K76*%
X180422550Y30035500D02*
X182200550Y30035500D01*
X180422550Y28257500D02*
X180422550Y30035500D01*
X180422550Y17335500D02*
X180422550Y19113500D01*
X182200550Y17335500D02*
X180422550Y17335500D01*
X191344550Y30035500D02*
X193122550Y30035500D01*
X193122550Y30035500D02*
X193122550Y28257500D01*
X193122550Y19113500D02*
X193122550Y17335500D01*
X193122550Y17335500D02*
X191344550Y17335500D01*
%TO.C,K50*%
X80943450Y67932300D02*
X82721450Y67932300D01*
X80943450Y66154300D02*
X80943450Y67932300D01*
X80943450Y55232300D02*
X80943450Y57010300D01*
X82721450Y55232300D02*
X80943450Y55232300D01*
X91865450Y67932300D02*
X93643450Y67932300D01*
X93643450Y67932300D02*
X93643450Y66154300D01*
X93643450Y57010300D02*
X93643450Y55232300D01*
X93643450Y55232300D02*
X91865450Y55232300D01*
%TO.C,K48*%
X43046650Y67932300D02*
X44824650Y67932300D01*
X43046650Y66154300D02*
X43046650Y67932300D01*
X43046650Y55232300D02*
X43046650Y57010300D01*
X44824650Y55232300D02*
X43046650Y55232300D01*
X53968650Y67932300D02*
X55746650Y67932300D01*
X55746650Y67932300D02*
X55746650Y66154300D01*
X55746650Y57010300D02*
X55746650Y55232300D01*
X55746650Y55232300D02*
X53968650Y55232300D01*
%TO.C,K23*%
X123577350Y105829100D02*
X125355350Y105829100D01*
X123577350Y104051100D02*
X123577350Y105829100D01*
X123577350Y93129100D02*
X123577350Y94907100D01*
X125355350Y93129100D02*
X123577350Y93129100D01*
X134499350Y105829100D02*
X136277350Y105829100D01*
X136277350Y105829100D02*
X136277350Y104051100D01*
X136277350Y94907100D02*
X136277350Y93129100D01*
X136277350Y93129100D02*
X134499350Y93129100D01*
%TO.C,K69*%
X185159650Y48983900D02*
X186937650Y48983900D01*
X185159650Y47205900D02*
X185159650Y48983900D01*
X185159650Y36283900D02*
X185159650Y38061900D01*
X186937650Y36283900D02*
X185159650Y36283900D01*
X196081650Y48983900D02*
X197859650Y48983900D01*
X197859650Y48983900D02*
X197859650Y47205900D01*
X197859650Y38061900D02*
X197859650Y36283900D01*
X197859650Y36283900D02*
X196081650Y36283900D01*
%TO.C,K54*%
X156737050Y67932300D02*
X158515050Y67932300D01*
X156737050Y66154300D02*
X156737050Y67932300D01*
X156737050Y55232300D02*
X156737050Y57010300D01*
X158515050Y55232300D02*
X156737050Y55232300D01*
X167659050Y67932300D02*
X169437050Y67932300D01*
X169437050Y67932300D02*
X169437050Y66154300D01*
X169437050Y57010300D02*
X169437050Y55232300D01*
X169437050Y55232300D02*
X167659050Y55232300D01*
%TO.C,K51*%
X99891850Y67932300D02*
X101669850Y67932300D01*
X99891850Y66154300D02*
X99891850Y67932300D01*
X99891850Y55232300D02*
X99891850Y57010300D01*
X101669850Y55232300D02*
X99891850Y55232300D01*
X110813850Y67932300D02*
X112591850Y67932300D01*
X112591850Y67932300D02*
X112591850Y66154300D01*
X112591850Y57010300D02*
X112591850Y55232300D01*
X112591850Y55232300D02*
X110813850Y55232300D01*
%TO.C,K63*%
X71469250Y48983900D02*
X73247250Y48983900D01*
X71469250Y47205900D02*
X71469250Y48983900D01*
X71469250Y36283900D02*
X71469250Y38061900D01*
X73247250Y36283900D02*
X71469250Y36283900D01*
X82391250Y48983900D02*
X84169250Y48983900D01*
X84169250Y48983900D02*
X84169250Y47205900D01*
X84169250Y38061900D02*
X84169250Y36283900D01*
X84169250Y36283900D02*
X82391250Y36283900D01*
%TO.C,K14*%
X256216150Y129514600D02*
X257994150Y129514600D01*
X256216150Y127736600D02*
X256216150Y129514600D01*
X256216150Y116814600D02*
X256216150Y118592600D01*
X257994150Y116814600D02*
X256216150Y116814600D01*
X267138150Y129514600D02*
X268916150Y129514600D01*
X268916150Y129514600D02*
X268916150Y127736600D01*
X268916150Y118592600D02*
X268916150Y116814600D01*
X268916150Y116814600D02*
X267138150Y116814600D01*
%TO.C,K43*%
X227793550Y86880700D02*
X229571550Y86880700D01*
X227793550Y85102700D02*
X227793550Y86880700D01*
X227793550Y74180700D02*
X227793550Y75958700D01*
X229571550Y74180700D02*
X227793550Y74180700D01*
X238715550Y86880700D02*
X240493550Y86880700D01*
X240493550Y86880700D02*
X240493550Y85102700D01*
X240493550Y75958700D02*
X240493550Y74180700D01*
X240493550Y74180700D02*
X238715550Y74180700D01*
%TO.C,K44*%
X251479050Y86880700D02*
X253257050Y86880700D01*
X251479050Y85102700D02*
X251479050Y86880700D01*
X251479050Y74180700D02*
X251479050Y75958700D01*
X253257050Y74180700D02*
X251479050Y74180700D01*
X262401050Y86880700D02*
X264179050Y86880700D01*
X264179050Y86880700D02*
X264179050Y85102700D01*
X264179050Y75958700D02*
X264179050Y74180700D01*
X264179050Y74180700D02*
X262401050Y74180700D01*
%TO.C,K57*%
X213582250Y67932300D02*
X215360250Y67932300D01*
X213582250Y66154300D02*
X213582250Y67932300D01*
X213582250Y55232300D02*
X213582250Y57010300D01*
X215360250Y55232300D02*
X213582250Y55232300D01*
X224504250Y67932300D02*
X226282250Y67932300D01*
X226282250Y67932300D02*
X226282250Y66154300D01*
X226282250Y57010300D02*
X226282250Y55232300D01*
X226282250Y55232300D02*
X224504250Y55232300D01*
%TO.C,K24*%
X142525750Y105829100D02*
X144303750Y105829100D01*
X142525750Y104051100D02*
X142525750Y105829100D01*
X142525750Y93129100D02*
X142525750Y94907100D01*
X144303750Y93129100D02*
X142525750Y93129100D01*
X153447750Y105829100D02*
X155225750Y105829100D01*
X155225750Y105829100D02*
X155225750Y104051100D01*
X155225750Y94907100D02*
X155225750Y93129100D01*
X155225750Y93129100D02*
X153447750Y93129100D01*
%TO.C,K39*%
X151999950Y86880700D02*
X153777950Y86880700D01*
X151999950Y85102700D02*
X151999950Y86880700D01*
X151999950Y74180700D02*
X151999950Y75958700D01*
X153777950Y74180700D02*
X151999950Y74180700D01*
X162921950Y86880700D02*
X164699950Y86880700D01*
X164699950Y86880700D02*
X164699950Y85102700D01*
X164699950Y75958700D02*
X164699950Y74180700D01*
X164699950Y74180700D02*
X162921950Y74180700D01*
%TO.C,K65*%
X109366050Y48983900D02*
X111144050Y48983900D01*
X109366050Y47205900D02*
X109366050Y48983900D01*
X109366050Y36283900D02*
X109366050Y38061900D01*
X111144050Y36283900D02*
X109366050Y36283900D01*
X120288050Y48983900D02*
X122066050Y48983900D01*
X122066050Y48983900D02*
X122066050Y47205900D01*
X122066050Y38061900D02*
X122066050Y36283900D01*
X122066050Y36283900D02*
X120288050Y36283900D01*
%TO.C,K7*%
X114103150Y129514600D02*
X115881150Y129514600D01*
X114103150Y127736600D02*
X114103150Y129514600D01*
X114103150Y116814600D02*
X114103150Y118592600D01*
X115881150Y116814600D02*
X114103150Y116814600D01*
X125025150Y129514600D02*
X126803150Y129514600D01*
X126803150Y129514600D02*
X126803150Y127736600D01*
X126803150Y118592600D02*
X126803150Y116814600D01*
X126803150Y116814600D02*
X125025150Y116814600D01*
%TO.C,K20*%
X66732150Y105829100D02*
X68510150Y105829100D01*
X66732150Y104051100D02*
X66732150Y105829100D01*
X66732150Y93129100D02*
X66732150Y94907100D01*
X68510150Y93129100D02*
X66732150Y93129100D01*
X77654150Y105829100D02*
X79432150Y105829100D01*
X79432150Y105829100D02*
X79432150Y104051100D01*
X79432150Y94907100D02*
X79432150Y93129100D01*
X79432150Y93129100D02*
X77654150Y93129100D01*
%TO.C,K68*%
X165868350Y48983900D02*
X167646350Y48983900D01*
X165868350Y47205900D02*
X165868350Y48983900D01*
X165868350Y36283900D02*
X165868350Y38061900D01*
X167646350Y36283900D02*
X165868350Y36283900D01*
X176790350Y48983900D02*
X178568350Y48983900D01*
X178568350Y48983900D02*
X178568350Y47205900D01*
X178568350Y38061900D02*
X178568350Y36283900D01*
X178568350Y36283900D02*
X176790350Y36283900D01*
%TO.C,K81*%
X260953250Y25298400D02*
X262731250Y25298400D01*
X260953250Y23520400D02*
X260953250Y25298400D01*
X260953250Y12598400D02*
X260953250Y14376400D01*
X262731250Y12598400D02*
X260953250Y12598400D01*
X271875250Y25298400D02*
X273653250Y25298400D01*
X273653250Y25298400D02*
X273653250Y23520400D01*
X273653250Y14376400D02*
X273653250Y12598400D01*
X273653250Y12598400D02*
X271875250Y12598400D01*
%TO.C,K35*%
X76206350Y86880700D02*
X77984350Y86880700D01*
X76206350Y85102700D02*
X76206350Y86880700D01*
X76206350Y74180700D02*
X76206350Y75958700D01*
X77984350Y74180700D02*
X76206350Y74180700D01*
X87128350Y86880700D02*
X88906350Y86880700D01*
X88906350Y86880700D02*
X88906350Y85102700D01*
X88906350Y75958700D02*
X88906350Y74180700D01*
X88906350Y74180700D02*
X87128350Y74180700D01*
%TO.C,K66*%
X128314450Y48983900D02*
X130092450Y48983900D01*
X128314450Y47205900D02*
X128314450Y48983900D01*
X128314450Y36283900D02*
X128314450Y38061900D01*
X130092450Y36283900D02*
X128314450Y36283900D01*
X139236450Y48983900D02*
X141014450Y48983900D01*
X141014450Y48983900D02*
X141014450Y47205900D01*
X141014450Y38061900D02*
X141014450Y36283900D01*
X141014450Y36283900D02*
X139236450Y36283900D01*
%TO.C,K38*%
X133051550Y86880700D02*
X134829550Y86880700D01*
X133051550Y85102700D02*
X133051550Y86880700D01*
X133051550Y74180700D02*
X133051550Y75958700D01*
X134829550Y74180700D02*
X133051550Y74180700D01*
X143973550Y86880700D02*
X145751550Y86880700D01*
X145751550Y86880700D02*
X145751550Y85102700D01*
X145751550Y75958700D02*
X145751550Y74180700D01*
X145751550Y74180700D02*
X143973550Y74180700D01*
%TO.C,K3*%
X33572450Y129514600D02*
X35350450Y129514600D01*
X33572450Y127736600D02*
X33572450Y129514600D01*
X33572450Y116814600D02*
X33572450Y118592600D01*
X35350450Y116814600D02*
X33572450Y116814600D01*
X44494450Y129514600D02*
X46272450Y129514600D01*
X46272450Y129514600D02*
X46272450Y127736600D01*
X46272450Y118592600D02*
X46272450Y116814600D01*
X46272450Y116814600D02*
X44494450Y116814600D01*
%TO.C,K67*%
X147262850Y48983900D02*
X149040850Y48983900D01*
X147262850Y47205900D02*
X147262850Y48983900D01*
X147262850Y36283900D02*
X147262850Y38061900D01*
X149040850Y36283900D02*
X147262850Y36283900D01*
X158184850Y48983900D02*
X159962850Y48983900D01*
X159962850Y48983900D02*
X159962850Y47205900D01*
X159962850Y38061900D02*
X159962850Y36283900D01*
X159962850Y36283900D02*
X158184850Y36283900D01*
%TO.C,K79*%
X242004850Y25298400D02*
X243782850Y25298400D01*
X242004850Y23520400D02*
X242004850Y25298400D01*
X242004850Y12598400D02*
X242004850Y14376400D01*
X243782850Y12598400D02*
X242004850Y12598400D01*
X252926850Y25298400D02*
X254704850Y25298400D01*
X254704850Y25298400D02*
X254704850Y23520400D01*
X254704850Y14376400D02*
X254704850Y12598400D01*
X254704850Y12598400D02*
X252926850Y12598400D01*
%TO.C,K10*%
X175685450Y129514600D02*
X177463450Y129514600D01*
X175685450Y127736600D02*
X175685450Y129514600D01*
X175685450Y116814600D02*
X175685450Y118592600D01*
X177463450Y116814600D02*
X175685450Y116814600D01*
X186607450Y129514600D02*
X188385450Y129514600D01*
X188385450Y129514600D02*
X188385450Y127736600D01*
X188385450Y118592600D02*
X188385450Y116814600D01*
X188385450Y116814600D02*
X186607450Y116814600D01*
%TO.C,K64*%
X90417650Y48983900D02*
X92195650Y48983900D01*
X90417650Y47205900D02*
X90417650Y48983900D01*
X90417650Y36283900D02*
X90417650Y38061900D01*
X92195650Y36283900D02*
X90417650Y36283900D01*
X101339650Y48983900D02*
X103117650Y48983900D01*
X103117650Y48983900D02*
X103117650Y47205900D01*
X103117650Y38061900D02*
X103117650Y36283900D01*
X103117650Y36283900D02*
X101339650Y36283900D01*
%TO.C,K32*%
X19361150Y86880700D02*
X21139150Y86880700D01*
X19361150Y85102700D02*
X19361150Y86880700D01*
X19361150Y74180700D02*
X19361150Y75958700D01*
X21139150Y74180700D02*
X19361150Y74180700D01*
X30283150Y86880700D02*
X32061150Y86880700D01*
X32061150Y86880700D02*
X32061150Y85102700D01*
X32061150Y75958700D02*
X32061150Y74180700D01*
X32061150Y74180700D02*
X30283150Y74180700D01*
%TO.C,K61*%
X33572450Y48983900D02*
X35350450Y48983900D01*
X33572450Y47205900D02*
X33572450Y48983900D01*
X33572450Y36283900D02*
X33572450Y38061900D01*
X35350450Y36283900D02*
X33572450Y36283900D01*
X44494450Y48983900D02*
X46272450Y48983900D01*
X46272450Y48983900D02*
X46272450Y47205900D01*
X46272450Y38061900D02*
X46272450Y36283900D01*
X46272450Y36283900D02*
X44494450Y36283900D01*
%TO.C,K33*%
X38309550Y86880700D02*
X40087550Y86880700D01*
X38309550Y85102700D02*
X38309550Y86880700D01*
X38309550Y74180700D02*
X38309550Y75958700D01*
X40087550Y74180700D02*
X38309550Y74180700D01*
X49231550Y86880700D02*
X51009550Y86880700D01*
X51009550Y86880700D02*
X51009550Y85102700D01*
X51009550Y75958700D02*
X51009550Y74180700D01*
X51009550Y74180700D02*
X49231550Y74180700D01*
%TO.C,K52*%
X118840250Y67932300D02*
X120618250Y67932300D01*
X118840250Y66154300D02*
X118840250Y67932300D01*
X118840250Y55232300D02*
X118840250Y57010300D01*
X120618250Y55232300D02*
X118840250Y55232300D01*
X129762250Y67932300D02*
X131540250Y67932300D01*
X131540250Y67932300D02*
X131540250Y66154300D01*
X131540250Y57010300D02*
X131540250Y55232300D01*
X131540250Y55232300D02*
X129762250Y55232300D01*
%TO.C,K30*%
X279901650Y105829100D02*
X281679650Y105829100D01*
X279901650Y104051100D02*
X279901650Y105829100D01*
X279901650Y93129100D02*
X279901650Y94907100D01*
X281679650Y93129100D02*
X279901650Y93129100D01*
X290823650Y105829100D02*
X292601650Y105829100D01*
X292601650Y105829100D02*
X292601650Y104051100D01*
X292601650Y94907100D02*
X292601650Y93129100D01*
X292601650Y93129100D02*
X290823650Y93129100D01*
%TO.C,K56*%
X194633850Y67932300D02*
X196411850Y67932300D01*
X194633850Y66154300D02*
X194633850Y67932300D01*
X194633850Y55232300D02*
X194633850Y57010300D01*
X196411850Y55232300D02*
X194633850Y55232300D01*
X205555850Y67932300D02*
X207333850Y67932300D01*
X207333850Y67932300D02*
X207333850Y66154300D01*
X207333850Y57010300D02*
X207333850Y55232300D01*
X207333850Y55232300D02*
X205555850Y55232300D01*
%TO.C,K82*%
X279901650Y25298400D02*
X281679650Y25298400D01*
X279901650Y23520400D02*
X279901650Y25298400D01*
X279901650Y12598400D02*
X279901650Y14376400D01*
X281679650Y12598400D02*
X279901650Y12598400D01*
X290823650Y25298400D02*
X292601650Y25298400D01*
X292601650Y25298400D02*
X292601650Y23520400D01*
X292601650Y14376400D02*
X292601650Y12598400D01*
X292601650Y12598400D02*
X290823650Y12598400D01*
%TO.C,K37*%
X114103150Y86880700D02*
X115881150Y86880700D01*
X114103150Y85102700D02*
X114103150Y86880700D01*
X114103150Y74180700D02*
X114103150Y75958700D01*
X115881150Y74180700D02*
X114103150Y74180700D01*
X125025150Y86880700D02*
X126803150Y86880700D01*
X126803150Y86880700D02*
X126803150Y85102700D01*
X126803150Y75958700D02*
X126803150Y74180700D01*
X126803150Y74180700D02*
X125025150Y74180700D01*
%TO.C,K49*%
X61995050Y67932300D02*
X63773050Y67932300D01*
X61995050Y66154300D02*
X61995050Y67932300D01*
X61995050Y55232300D02*
X61995050Y57010300D01*
X63773050Y55232300D02*
X61995050Y55232300D01*
X72917050Y67932300D02*
X74695050Y67932300D01*
X74695050Y67932300D02*
X74695050Y66154300D01*
X74695050Y57010300D02*
X74695050Y55232300D01*
X74695050Y55232300D02*
X72917050Y55232300D01*
%TO.C,K21*%
X85680550Y105829100D02*
X87458550Y105829100D01*
X85680550Y104051100D02*
X85680550Y105829100D01*
X85680550Y93129100D02*
X85680550Y94907100D01*
X87458550Y93129100D02*
X85680550Y93129100D01*
X96602550Y105829100D02*
X98380550Y105829100D01*
X98380550Y105829100D02*
X98380550Y104051100D01*
X98380550Y94907100D02*
X98380550Y93129100D01*
X98380550Y93129100D02*
X96602550Y93129100D01*
%TO.C,K12*%
X213582250Y129514600D02*
X215360250Y129514600D01*
X213582250Y127736600D02*
X213582250Y129514600D01*
X213582250Y116814600D02*
X213582250Y118592600D01*
X215360250Y116814600D02*
X213582250Y116814600D01*
X224504250Y129514600D02*
X226282250Y129514600D01*
X226282250Y129514600D02*
X226282250Y127736600D01*
X226282250Y118592600D02*
X226282250Y116814600D01*
X226282250Y116814600D02*
X224504250Y116814600D01*
%TO.C,K1*%
X-9061450Y129514600D02*
X-7283450Y129514600D01*
X-9061450Y127736600D02*
X-9061450Y129514600D01*
X-9061450Y116814600D02*
X-9061450Y118592600D01*
X-7283450Y116814600D02*
X-9061450Y116814600D01*
X1860550Y129514600D02*
X3638550Y129514600D01*
X3638550Y129514600D02*
X3638550Y127736600D01*
X3638550Y118592600D02*
X3638550Y116814600D01*
X3638550Y116814600D02*
X1860550Y116814600D01*
%TO.C,K77*%
X199370950Y30035500D02*
X201148950Y30035500D01*
X199370950Y28257500D02*
X199370950Y30035500D01*
X199370950Y17335500D02*
X199370950Y19113500D01*
X201148950Y17335500D02*
X199370950Y17335500D01*
X210292950Y30035500D02*
X212070950Y30035500D01*
X212070950Y30035500D02*
X212070950Y28257500D01*
X212070950Y19113500D02*
X212070950Y17335500D01*
X212070950Y17335500D02*
X210292950Y17335500D01*
%TO.C,K29*%
X246741950Y105829100D02*
X248519950Y105829100D01*
X246741950Y104051100D02*
X246741950Y105829100D01*
X246741950Y93129100D02*
X246741950Y94907100D01*
X248519950Y93129100D02*
X246741950Y93129100D01*
X257663950Y105829100D02*
X259441950Y105829100D01*
X259441950Y105829100D02*
X259441950Y104051100D01*
X259441950Y94907100D02*
X259441950Y93129100D01*
X259441950Y93129100D02*
X257663950Y93129100D01*
%TO.C,K18*%
X28835350Y105829100D02*
X30613350Y105829100D01*
X28835350Y104051100D02*
X28835350Y105829100D01*
X28835350Y93129100D02*
X28835350Y94907100D01*
X30613350Y93129100D02*
X28835350Y93129100D01*
X39757350Y105829100D02*
X41535350Y105829100D01*
X41535350Y105829100D02*
X41535350Y104051100D01*
X41535350Y94907100D02*
X41535350Y93129100D01*
X41535350Y93129100D02*
X39757350Y93129100D01*
%TO.C,K13*%
X232530650Y129514600D02*
X234308650Y129514600D01*
X232530650Y127736600D02*
X232530650Y129514600D01*
X232530650Y116814600D02*
X232530650Y118592600D01*
X234308650Y116814600D02*
X232530650Y116814600D01*
X243452650Y129514600D02*
X245230650Y129514600D01*
X245230650Y129514600D02*
X245230650Y127736600D01*
X245230650Y118592600D02*
X245230650Y116814600D01*
X245230650Y116814600D02*
X243452650Y116814600D01*
%TO.C,K70*%
X204108050Y48983900D02*
X205886050Y48983900D01*
X204108050Y47205900D02*
X204108050Y48983900D01*
X204108050Y36283900D02*
X204108050Y38061900D01*
X205886050Y36283900D02*
X204108050Y36283900D01*
X215030050Y48983900D02*
X216808050Y48983900D01*
X216808050Y48983900D02*
X216808050Y47205900D01*
X216808050Y38061900D02*
X216808050Y36283900D01*
X216808050Y36283900D02*
X215030050Y36283900D01*
%TO.C,K41*%
X189896750Y86880700D02*
X191674750Y86880700D01*
X189896750Y85102700D02*
X189896750Y86880700D01*
X189896750Y74180700D02*
X189896750Y75958700D01*
X191674750Y74180700D02*
X189896750Y74180700D01*
X200818750Y86880700D02*
X202596750Y86880700D01*
X202596750Y86880700D02*
X202596750Y85102700D01*
X202596750Y75958700D02*
X202596750Y74180700D01*
X202596750Y74180700D02*
X200818750Y74180700D01*
%TO.C,K60*%
X2781300Y48983900D02*
X4559300Y48983900D01*
X2781300Y47205900D02*
X2781300Y48983900D01*
X2781300Y36283900D02*
X2781300Y38061900D01*
X4559300Y36283900D02*
X2781300Y36283900D01*
X13703300Y48983900D02*
X15481300Y48983900D01*
X15481300Y48983900D02*
X15481300Y47205900D01*
X15481300Y38061900D02*
X15481300Y36283900D01*
X15481300Y36283900D02*
X13703300Y36283900D01*
%TO.C,K15*%
X279901650Y129514600D02*
X281679650Y129514600D01*
X279901650Y127736600D02*
X279901650Y129514600D01*
X279901650Y116814600D02*
X279901650Y118592600D01*
X281679650Y116814600D02*
X279901650Y116814600D01*
X290823650Y129514600D02*
X292601650Y129514600D01*
X292601650Y129514600D02*
X292601650Y127736600D01*
X292601650Y118592600D02*
X292601650Y116814600D01*
X292601650Y116814600D02*
X290823650Y116814600D01*
%TO.C,K22*%
X104628950Y105829100D02*
X106406950Y105829100D01*
X104628950Y104051100D02*
X104628950Y105829100D01*
X104628950Y93129100D02*
X104628950Y94907100D01*
X106406950Y93129100D02*
X104628950Y93129100D01*
X115550950Y105829100D02*
X117328950Y105829100D01*
X117328950Y105829100D02*
X117328950Y104051100D01*
X117328950Y94907100D02*
X117328950Y93129100D01*
X117328950Y93129100D02*
X115550950Y93129100D01*
%TO.C,K9*%
X151999950Y129514600D02*
X153777950Y129514600D01*
X151999950Y127736600D02*
X151999950Y129514600D01*
X151999950Y116814600D02*
X151999950Y118592600D01*
X153777950Y116814600D02*
X151999950Y116814600D01*
X162921950Y129514600D02*
X164699950Y129514600D01*
X164699950Y129514600D02*
X164699950Y127736600D01*
X164699950Y118592600D02*
X164699950Y116814600D01*
X164699950Y116814600D02*
X162921950Y116814600D01*
%TO.C,K27*%
X199370950Y105829100D02*
X201148950Y105829100D01*
X199370950Y104051100D02*
X199370950Y105829100D01*
X199370950Y93129100D02*
X199370950Y94907100D01*
X201148950Y93129100D02*
X199370950Y93129100D01*
X210292950Y105829100D02*
X212070950Y105829100D01*
X212070950Y105829100D02*
X212070950Y104051100D01*
X212070950Y94907100D02*
X212070950Y93129100D01*
X212070950Y93129100D02*
X210292950Y93129100D01*
%TO.C,K45*%
X279901650Y86880700D02*
X281679650Y86880700D01*
X279901650Y85102700D02*
X279901650Y86880700D01*
X279901650Y74180700D02*
X279901650Y75958700D01*
X281679650Y74180700D02*
X279901650Y74180700D01*
X290823650Y86880700D02*
X292601650Y86880700D01*
X292601650Y86880700D02*
X292601650Y85102700D01*
X292601650Y75958700D02*
X292601650Y74180700D01*
X292601650Y74180700D02*
X290823650Y74180700D01*
%TO.C,K4*%
X52520850Y129514600D02*
X54298850Y129514600D01*
X52520850Y127736600D02*
X52520850Y129514600D01*
X52520850Y116814600D02*
X52520850Y118592600D01*
X54298850Y116814600D02*
X52520850Y116814600D01*
X63442850Y129514600D02*
X65220850Y129514600D01*
X65220850Y129514600D02*
X65220850Y127736600D01*
X65220850Y118592600D02*
X65220850Y116814600D01*
X65220850Y116814600D02*
X63442850Y116814600D01*
%TO.C,K34*%
X57257950Y86880700D02*
X59035950Y86880700D01*
X57257950Y85102700D02*
X57257950Y86880700D01*
X57257950Y74180700D02*
X57257950Y75958700D01*
X59035950Y74180700D02*
X57257950Y74180700D01*
X68179950Y86880700D02*
X69957950Y86880700D01*
X69957950Y86880700D02*
X69957950Y85102700D01*
X69957950Y75958700D02*
X69957950Y74180700D01*
X69957950Y74180700D02*
X68179950Y74180700D01*
%TO.C,K42*%
X208845150Y86880700D02*
X210623150Y86880700D01*
X208845150Y85102700D02*
X208845150Y86880700D01*
X208845150Y74180700D02*
X208845150Y75958700D01*
X210623150Y74180700D02*
X208845150Y74180700D01*
X219767150Y86880700D02*
X221545150Y86880700D01*
X221545150Y86880700D02*
X221545150Y85102700D01*
X221545150Y75958700D02*
X221545150Y74180700D01*
X221545150Y74180700D02*
X219767150Y74180700D01*
%TO.C,K62*%
X52520850Y48983900D02*
X54298850Y48983900D01*
X52520850Y47205900D02*
X52520850Y48983900D01*
X52520850Y36283900D02*
X52520850Y38061900D01*
X54298850Y36283900D02*
X52520850Y36283900D01*
X63442850Y48983900D02*
X65220850Y48983900D01*
X65220850Y48983900D02*
X65220850Y47205900D01*
X65220850Y38061900D02*
X65220850Y36283900D01*
X65220850Y36283900D02*
X63442850Y36283900D01*
%TO.C,K26*%
X180422550Y105829100D02*
X182200550Y105829100D01*
X180422550Y104051100D02*
X180422550Y105829100D01*
X180422550Y93129100D02*
X180422550Y94907100D01*
X182200550Y93129100D02*
X180422550Y93129100D01*
X191344550Y105829100D02*
X193122550Y105829100D01*
X193122550Y105829100D02*
X193122550Y104051100D01*
X193122550Y94907100D02*
X193122550Y93129100D01*
X193122550Y93129100D02*
X191344550Y93129100D01*
%TO.C,K19*%
X47783750Y105829100D02*
X49561750Y105829100D01*
X47783750Y104051100D02*
X47783750Y105829100D01*
X47783750Y93129100D02*
X47783750Y94907100D01*
X49561750Y93129100D02*
X47783750Y93129100D01*
X58705750Y105829100D02*
X60483750Y105829100D01*
X60483750Y105829100D02*
X60483750Y104051100D01*
X60483750Y94907100D02*
X60483750Y93129100D01*
X60483750Y93129100D02*
X58705750Y93129100D01*
%TO.C,K55*%
X175685450Y67932300D02*
X177463450Y67932300D01*
X175685450Y66154300D02*
X175685450Y67932300D01*
X175685450Y55232300D02*
X175685450Y57010300D01*
X177463450Y55232300D02*
X175685450Y55232300D01*
X186607450Y67932300D02*
X188385450Y67932300D01*
X188385450Y67932300D02*
X188385450Y66154300D01*
X188385450Y57010300D02*
X188385450Y55232300D01*
X188385450Y55232300D02*
X186607450Y55232300D01*
%TO.C,K31*%
X-4324350Y86880700D02*
X-2546350Y86880700D01*
X-4324350Y85102700D02*
X-4324350Y86880700D01*
X-4324350Y74180700D02*
X-4324350Y75958700D01*
X-2546350Y74180700D02*
X-4324350Y74180700D01*
X6597650Y86880700D02*
X8375650Y86880700D01*
X8375650Y86880700D02*
X8375650Y85102700D01*
X8375650Y75958700D02*
X8375650Y74180700D01*
X8375650Y74180700D02*
X6597650Y74180700D01*
%TO.C,K59*%
X279901650Y68084700D02*
X281679650Y68084700D01*
X279901650Y66306700D02*
X279901650Y68084700D01*
X279901650Y55384700D02*
X279901650Y57162700D01*
X281679650Y55384700D02*
X279901650Y55384700D01*
X290823650Y68084700D02*
X292601650Y68084700D01*
X292601650Y68084700D02*
X292601650Y66306700D01*
X292601650Y57162700D02*
X292601650Y55384700D01*
X292601650Y55384700D02*
X290823650Y55384700D01*
%TO.C,K78*%
X218319350Y30035500D02*
X220097350Y30035500D01*
X218319350Y28257500D02*
X218319350Y30035500D01*
X218319350Y17335500D02*
X218319350Y19113500D01*
X220097350Y17335500D02*
X218319350Y17335500D01*
X229241350Y30035500D02*
X231019350Y30035500D01*
X231019350Y30035500D02*
X231019350Y28257500D01*
X231019350Y19113500D02*
X231019350Y17335500D01*
X231019350Y17335500D02*
X229241350Y17335500D01*
%TO.C,K53*%
X137788650Y67932300D02*
X139566650Y67932300D01*
X137788650Y66154300D02*
X137788650Y67932300D01*
X137788650Y55232300D02*
X137788650Y57010300D01*
X139566650Y55232300D02*
X137788650Y55232300D01*
X148710650Y67932300D02*
X150488650Y67932300D01*
X150488650Y67932300D02*
X150488650Y66154300D01*
X150488650Y57010300D02*
X150488650Y55232300D01*
X150488650Y55232300D02*
X148710650Y55232300D01*
%TO.C,K6*%
X95154750Y129514600D02*
X96932750Y129514600D01*
X95154750Y127736600D02*
X95154750Y129514600D01*
X95154750Y116814600D02*
X95154750Y118592600D01*
X96932750Y116814600D02*
X95154750Y116814600D01*
X106076750Y129514600D02*
X107854750Y129514600D01*
X107854750Y129514600D02*
X107854750Y127736600D01*
X107854750Y118592600D02*
X107854750Y116814600D01*
X107854750Y116814600D02*
X106076750Y116814600D01*
%TO.C,K25*%
X161474150Y105829100D02*
X163252150Y105829100D01*
X161474150Y104051100D02*
X161474150Y105829100D01*
X161474150Y93129100D02*
X161474150Y94907100D01*
X163252150Y93129100D02*
X161474150Y93129100D01*
X172396150Y105829100D02*
X174174150Y105829100D01*
X174174150Y105829100D02*
X174174150Y104051100D01*
X174174150Y94907100D02*
X174174150Y93129100D01*
X174174150Y93129100D02*
X172396150Y93129100D01*
%TO.C,K36*%
X95154750Y86880700D02*
X96932750Y86880700D01*
X95154750Y85102700D02*
X95154750Y86880700D01*
X95154750Y74180700D02*
X95154750Y75958700D01*
X96932750Y74180700D02*
X95154750Y74180700D01*
X106076750Y86880700D02*
X107854750Y86880700D01*
X107854750Y86880700D02*
X107854750Y85102700D01*
X107854750Y75958700D02*
X107854750Y74180700D01*
X107854750Y74180700D02*
X106076750Y74180700D01*
%TO.C,K16*%
X-9061450Y105829100D02*
X-7283450Y105829100D01*
X-9061450Y104051100D02*
X-9061450Y105829100D01*
X-9061450Y93129100D02*
X-9061450Y94907100D01*
X-7283450Y93129100D02*
X-9061450Y93129100D01*
X1860550Y105829100D02*
X3638550Y105829100D01*
X3638550Y105829100D02*
X3638550Y104051100D01*
X3638550Y94907100D02*
X3638550Y93129100D01*
X3638550Y93129100D02*
X1860550Y93129100D01*
%TO.C,K46*%
X-1955800Y67932300D02*
X-177800Y67932300D01*
X-1955800Y66154300D02*
X-1955800Y67932300D01*
X-1955800Y55232300D02*
X-1955800Y57010300D01*
X-177800Y55232300D02*
X-1955800Y55232300D01*
X8966200Y67932300D02*
X10744200Y67932300D01*
X10744200Y67932300D02*
X10744200Y66154300D01*
X10744200Y57010300D02*
X10744200Y55232300D01*
X10744200Y55232300D02*
X8966200Y55232300D01*
%TO.C,K80*%
X260953250Y44246800D02*
X262731250Y44246800D01*
X260953250Y42468800D02*
X260953250Y44246800D01*
X260953250Y31546800D02*
X260953250Y33324800D01*
X262731250Y31546800D02*
X260953250Y31546800D01*
X271875250Y44246800D02*
X273653250Y44246800D01*
X273653250Y44246800D02*
X273653250Y42468800D01*
X273653250Y33324800D02*
X273653250Y31546800D01*
X273653250Y31546800D02*
X271875250Y31546800D01*
%TO.C,K28*%
X218319350Y105829100D02*
X220097350Y105829100D01*
X218319350Y104051100D02*
X218319350Y105829100D01*
X218319350Y93129100D02*
X218319350Y94907100D01*
X220097350Y93129100D02*
X218319350Y93129100D01*
X229241350Y105829100D02*
X231019350Y105829100D01*
X231019350Y105829100D02*
X231019350Y104051100D01*
X231019350Y94907100D02*
X231019350Y93129100D01*
X231019350Y93129100D02*
X229241350Y93129100D01*
%TO.C,K11*%
X194633850Y129514600D02*
X196411850Y129514600D01*
X194633850Y127736600D02*
X194633850Y129514600D01*
X194633850Y116814600D02*
X194633850Y118592600D01*
X196411850Y116814600D02*
X194633850Y116814600D01*
X205555850Y129514600D02*
X207333850Y129514600D01*
X207333850Y129514600D02*
X207333850Y127736600D01*
X207333850Y118592600D02*
X207333850Y116814600D01*
X207333850Y116814600D02*
X205555850Y116814600D01*
%TO.C,K5*%
X71469250Y129514600D02*
X73247250Y129514600D01*
X71469250Y127736600D02*
X71469250Y129514600D01*
X71469250Y116814600D02*
X71469250Y118592600D01*
X73247250Y116814600D02*
X71469250Y116814600D01*
X82391250Y129514600D02*
X84169250Y129514600D01*
X84169250Y129514600D02*
X84169250Y127736600D01*
X84169250Y118592600D02*
X84169250Y116814600D01*
X84169250Y116814600D02*
X82391250Y116814600D01*
%TO.C,K47*%
X24098250Y67932300D02*
X25876250Y67932300D01*
X24098250Y66154300D02*
X24098250Y67932300D01*
X24098250Y55232300D02*
X24098250Y57010300D01*
X25876250Y55232300D02*
X24098250Y55232300D01*
X35020250Y67932300D02*
X36798250Y67932300D01*
X36798250Y67932300D02*
X36798250Y66154300D01*
X36798250Y57010300D02*
X36798250Y55232300D01*
X36798250Y55232300D02*
X35020250Y55232300D01*
%TO.C,K17*%
X9886950Y105829100D02*
X11664950Y105829100D01*
X9886950Y104051100D02*
X9886950Y105829100D01*
X9886950Y93129100D02*
X9886950Y94907100D01*
X11664950Y93129100D02*
X9886950Y93129100D01*
X20808950Y105829100D02*
X22586950Y105829100D01*
X22586950Y105829100D02*
X22586950Y104051100D01*
X22586950Y94907100D02*
X22586950Y93129100D01*
X22586950Y93129100D02*
X20808950Y93129100D01*
%TO.C,K2*%
X14624050Y129514600D02*
X16402050Y129514600D01*
X14624050Y127736600D02*
X14624050Y129514600D01*
X14624050Y116814600D02*
X14624050Y118592600D01*
X16402050Y116814600D02*
X14624050Y116814600D01*
X25546050Y129514600D02*
X27324050Y129514600D01*
X27324050Y129514600D02*
X27324050Y127736600D01*
X27324050Y118592600D02*
X27324050Y116814600D01*
X27324050Y116814600D02*
X25546050Y116814600D01*
%TD*%
D13*
%TO.C,K40*%
X174043350Y84050700D03*
D14*
X179818350Y85320700D03*
%TD*%
D13*
%TO.C,K8*%
X136146550Y126684600D03*
D14*
X141921550Y127954600D03*
%TD*%
D13*
%TO.C,K58*%
X247468400Y65102300D03*
D14*
X253243400Y66372300D03*
%TD*%
D13*
%TO.C,K75*%
X114829600Y27205500D03*
D14*
X120604600Y28475500D03*
%TD*%
D13*
%TO.C,K76*%
X183517550Y27205500D03*
D14*
X189292550Y28475500D03*
%TD*%
D13*
%TO.C,K50*%
X84038450Y65102300D03*
D14*
X89813450Y66372300D03*
%TD*%
D13*
%TO.C,K48*%
X46141650Y65102300D03*
D14*
X51916650Y66372300D03*
%TD*%
D13*
%TO.C,K23*%
X126672350Y102999100D03*
D14*
X132447350Y104269100D03*
%TD*%
D13*
%TO.C,K69*%
X188254650Y46153900D03*
D14*
X194029650Y47423900D03*
%TD*%
D13*
%TO.C,K54*%
X159832050Y65102300D03*
D14*
X165607050Y66372300D03*
%TD*%
D13*
%TO.C,K51*%
X102986850Y65102300D03*
D14*
X108761850Y66372300D03*
%TD*%
D13*
%TO.C,K63*%
X74564250Y46153900D03*
D14*
X80339250Y47423900D03*
%TD*%
D13*
%TO.C,K14*%
X259311150Y126684600D03*
D14*
X265086150Y127954600D03*
%TD*%
D13*
%TO.C,K43*%
X230888550Y84050700D03*
D14*
X236663550Y85320700D03*
%TD*%
D13*
%TO.C,K44*%
X254574050Y84050700D03*
D14*
X260349050Y85320700D03*
%TD*%
D13*
%TO.C,K57*%
X216677250Y65102300D03*
D14*
X222452250Y66372300D03*
%TD*%
D13*
%TO.C,K24*%
X145620750Y102999100D03*
D14*
X151395750Y104269100D03*
%TD*%
D13*
%TO.C,K39*%
X155094950Y84050700D03*
D14*
X160869950Y85320700D03*
%TD*%
D13*
%TO.C,K65*%
X112461050Y46153900D03*
D14*
X118236050Y47423900D03*
%TD*%
D13*
%TO.C,K7*%
X117198150Y126684600D03*
D14*
X122973150Y127954600D03*
%TD*%
D13*
%TO.C,K20*%
X69827150Y102999100D03*
D14*
X75602150Y104269100D03*
%TD*%
D13*
%TO.C,K72*%
X-3597900Y27205500D03*
D14*
X2177100Y28475500D03*
%TD*%
D13*
%TO.C,K68*%
X168963350Y46153900D03*
D14*
X174738350Y47423900D03*
%TD*%
D13*
%TO.C,K81*%
X264048250Y22468400D03*
D14*
X269823250Y23738400D03*
%TD*%
D13*
%TO.C,K74*%
X43773100Y27205500D03*
D14*
X49548100Y28475500D03*
%TD*%
D13*
%TO.C,K35*%
X79301350Y84050700D03*
D14*
X85076350Y85320700D03*
%TD*%
D13*
%TO.C,K66*%
X131409450Y46153900D03*
D14*
X137184450Y47423900D03*
%TD*%
D13*
%TO.C,K38*%
X136146550Y84050700D03*
D14*
X141921550Y85320700D03*
%TD*%
D13*
%TO.C,K3*%
X36667450Y126684600D03*
D14*
X42442450Y127954600D03*
%TD*%
D13*
%TO.C,K67*%
X150357850Y46153900D03*
D14*
X156132850Y47423900D03*
%TD*%
D13*
%TO.C,K79*%
X245099850Y22468400D03*
D14*
X250874850Y23738400D03*
%TD*%
D13*
%TO.C,K10*%
X178780450Y126684600D03*
D14*
X184555450Y127954600D03*
%TD*%
D13*
%TO.C,K64*%
X93512650Y46153900D03*
D14*
X99287650Y47423900D03*
%TD*%
D13*
%TO.C,K32*%
X22456150Y84050700D03*
D14*
X28231150Y85320700D03*
%TD*%
D13*
%TO.C,K61*%
X36667450Y46153900D03*
D14*
X42442450Y47423900D03*
%TD*%
D13*
%TO.C,K33*%
X41404550Y84050700D03*
D14*
X47179550Y85320700D03*
%TD*%
D13*
%TO.C,K52*%
X121935250Y65102300D03*
D14*
X127710250Y66372300D03*
%TD*%
D13*
%TO.C,K30*%
X282996650Y102999100D03*
D14*
X288771650Y104269100D03*
%TD*%
D13*
%TO.C,K56*%
X197728850Y65102300D03*
D14*
X203503850Y66372300D03*
%TD*%
D13*
%TO.C,K73*%
X20087600Y27205500D03*
D14*
X25862600Y28475500D03*
%TD*%
D13*
%TO.C,K82*%
X282996650Y22468400D03*
D14*
X288771650Y23738400D03*
%TD*%
D13*
%TO.C,K37*%
X117198150Y84050700D03*
D14*
X122973150Y85320700D03*
%TD*%
D13*
%TO.C,K49*%
X65090050Y65102300D03*
D14*
X70865050Y66372300D03*
%TD*%
D13*
%TO.C,K21*%
X88775550Y102999100D03*
D14*
X94550550Y104269100D03*
%TD*%
D13*
%TO.C,K12*%
X216677250Y126684600D03*
D14*
X222452250Y127954600D03*
%TD*%
D13*
%TO.C,K1*%
X-5966450Y126684600D03*
D14*
X-191450Y127954600D03*
%TD*%
D13*
%TO.C,K77*%
X202465950Y27205500D03*
D14*
X208240950Y28475500D03*
%TD*%
D13*
%TO.C,K29*%
X249836950Y102999100D03*
D14*
X255611950Y104269100D03*
%TD*%
D13*
%TO.C,K18*%
X31930350Y102999100D03*
D14*
X37705350Y104269100D03*
%TD*%
D13*
%TO.C,K13*%
X235625650Y126684600D03*
D14*
X241400650Y127954600D03*
%TD*%
D13*
%TO.C,K70*%
X207203050Y46153900D03*
D14*
X212978050Y47423900D03*
%TD*%
D13*
%TO.C,K41*%
X192991750Y84050700D03*
D14*
X198766750Y85320700D03*
%TD*%
D13*
%TO.C,K60*%
X5876300Y46153900D03*
D14*
X11651300Y47423900D03*
%TD*%
D13*
%TO.C,K15*%
X282996650Y126684600D03*
D14*
X288771650Y127954600D03*
%TD*%
D13*
%TO.C,K22*%
X107723950Y102999100D03*
D14*
X113498950Y104269100D03*
%TD*%
D13*
%TO.C,K9*%
X155094950Y126684600D03*
D14*
X160869950Y127954600D03*
%TD*%
D13*
%TO.C,K27*%
X202465950Y102999100D03*
D14*
X208240950Y104269100D03*
%TD*%
D13*
%TO.C,K45*%
X282996650Y84050700D03*
D14*
X288771650Y85320700D03*
%TD*%
D13*
%TO.C,K4*%
X55615850Y126684600D03*
D14*
X61390850Y127954600D03*
%TD*%
D13*
%TO.C,K34*%
X60352950Y84050700D03*
D14*
X66127950Y85320700D03*
%TD*%
D13*
%TO.C,K42*%
X211940150Y84050700D03*
D14*
X217715150Y85320700D03*
%TD*%
D13*
%TO.C,K62*%
X55615850Y46153900D03*
D14*
X61390850Y47423900D03*
%TD*%
D13*
%TO.C,K26*%
X183517550Y102999100D03*
D14*
X189292550Y104269100D03*
%TD*%
D13*
%TO.C,K19*%
X50878750Y102999100D03*
D14*
X56653750Y104269100D03*
%TD*%
D13*
%TO.C,K55*%
X178780450Y65102300D03*
D14*
X184555450Y66372300D03*
%TD*%
D13*
%TO.C,K31*%
X-1229350Y84050700D03*
D14*
X4545650Y85320700D03*
%TD*%
D13*
%TO.C,K59*%
X282996650Y65254700D03*
D14*
X288771650Y66524700D03*
%TD*%
D13*
%TO.C,K78*%
X221414350Y27205500D03*
D14*
X227189350Y28475500D03*
%TD*%
D13*
%TO.C,K53*%
X140883650Y65102300D03*
D14*
X146658650Y66372300D03*
%TD*%
D13*
%TO.C,K6*%
X98249750Y126684600D03*
D14*
X104024750Y127954600D03*
%TD*%
D13*
%TO.C,K25*%
X164569150Y102999100D03*
D14*
X170344150Y104269100D03*
%TD*%
D13*
%TO.C,K36*%
X98249750Y84050700D03*
D14*
X104024750Y85320700D03*
%TD*%
D13*
%TO.C,K16*%
X-5966450Y102999100D03*
D14*
X-191450Y104269100D03*
%TD*%
D13*
%TO.C,K71*%
X233257100Y46153900D03*
D14*
X239032100Y47423900D03*
%TD*%
D13*
%TO.C,K46*%
X1139200Y65102300D03*
D14*
X6914200Y66372300D03*
%TD*%
D13*
%TO.C,K80*%
X264048250Y41416800D03*
D14*
X269823250Y42686800D03*
%TD*%
D13*
%TO.C,K28*%
X221414350Y102999100D03*
D14*
X227189350Y104269100D03*
%TD*%
D13*
%TO.C,K11*%
X197728850Y126684600D03*
D14*
X203503850Y127954600D03*
%TD*%
D13*
%TO.C,K5*%
X74564250Y126684600D03*
D14*
X80339250Y127954600D03*
%TD*%
D13*
%TO.C,K47*%
X27193250Y65102300D03*
D14*
X32968250Y66372300D03*
%TD*%
D13*
%TO.C,K17*%
X12981950Y102999100D03*
D14*
X18756950Y104269100D03*
%TD*%
D13*
%TO.C,K2*%
X17719050Y126684600D03*
D14*
X23494050Y127954600D03*
%TD*%
D15*
%TO.C,U1*%
X103219250Y16065500D03*
D16*
X100679250Y16065500D03*
X98139250Y16065500D03*
X95599250Y16065500D03*
X93059250Y16065500D03*
X90519250Y16065500D03*
X87979250Y16065500D03*
X85439250Y16065500D03*
X82899250Y16065500D03*
X80359250Y16065500D03*
X77819250Y16065500D03*
X75279250Y16065500D03*
X75279250Y18605500D03*
X75279250Y21145500D03*
X75279250Y23685500D03*
X75279250Y26225500D03*
X75279250Y28765500D03*
X75279250Y31305500D03*
X77819250Y31305500D03*
X80359250Y31305500D03*
X82899250Y31305500D03*
X85439250Y31305500D03*
X87979250Y31305500D03*
X90519250Y31305500D03*
X93059250Y31305500D03*
X95599250Y31305500D03*
X98139250Y31305500D03*
X100679250Y31305500D03*
X103219250Y31305500D03*
X93059250Y28765500D03*
X93059250Y18605500D03*
%TD*%
M02*
